<svg height="512" viewBox="0 0 74 74" width="512" xmlns="http://www.w3.org/2000/svg"><path d="m38.44 10.87h-2.97a1 1 0 0 1 0-2h2.97a1 1 0 0 1 0 2z"/><path d="m55.41 52.92h-48.59a4.825 4.825 0 0 1 -4.82-4.82v-34.41a4.825 4.825 0 0 1 4.82-4.82h11.74a1 1 0 0 1 0 2h-11.74a2.824 2.824 0 0 0 -2.82 2.82v34.41a2.824 2.824 0 0 0 2.82 2.82h48.59a2.823 2.823 0 0 0 2.82-2.82v-34.41a2.823 2.823 0 0 0 -2.82-2.82h-9.97a1 1 0 0 1 0-2h9.97a4.825 4.825 0 0 1 4.82 4.82v34.41a4.825 4.825 0 0 1 -4.82 4.82z"/><path d="M28.47 10.87h-2.91a1 1 0 010-2h2.91a1 1 0 010 2zM52.03 47.664h-41.83a2.916 2.916 0 01-2.912-2.912v-27.717a2.915 2.915 0 012.912-2.911h41.83a2.914 2.914 0 012.911 2.911v27.717a2.914 2.914 0 01-2.911 2.912zm-41.83-31.54a.913.913 0 00-.912.911v27.717a.913.913 0 00.912.912h41.83a.913.913 0 00.911-.912v-27.717a.912.912 0 00-.911-.911z"/><path d="m21.332 47.664a1 1 0 0 1 -.763-1.646l16.3-19.275a1 1 0 0 1 1.416-.112l16.309 14.018a1 1 0 0 1 -1.3 1.517l-15.545-13.361-15.649 18.505a1 1 0 0 1 -.768.354z"/><path d="M8.289 40.2a1 1 0 01-.717-1.7l9.783-10.058a1 1 0 01.713-.3 1.2 1.2 0 01.715.3l9.741 9.858a1 1 0 11-1.424 1.4l-9.022-9.13-9.072 9.33a1 1 0 01-.717.3zM25.386 27.952a4.562 4.562 0 01-.7-.054 4.406 4.406 0 011.38-8.7 4.405 4.405 0 012.434 7.463 4.367 4.367 0 01-3.114 1.291zm0-6.81a2.407 2.407 0 00-2.378 2.791 2.406 2.406 0 102.762-2.762 2.5 2.5 0 00-.386-.029zM67.41 47.491a1 1 0 01-1-1v-31.191a1 1 0 112 0v31.191a1 1 0 01-1 1z"/><path d="M63.819 19.887a1 1 0 01-.707-1.707l3.588-3.59a1 1 0 011.414 0l3.59 3.59a1 1 0 01-1.414 1.414l-2.88-2.883-2.884 2.883a1 1 0 01-.707.293zM67.41 47.491a1 1 0 01-.71-.291l-3.591-3.59a1 1 0 011.414-1.414l2.884 2.883 2.883-2.883a1 1 0 111.414 1.414l-3.59 3.59a1 1 0 01-.704.291zM46.713 61.543h-31.194a1 1 0 110-2h31.194a1 1 0 010 2z"/><path d="M43.122 65.133a1 1 0 01-.707-1.707l2.885-2.883-2.885-2.883a1 1 0 011.414-1.414l3.591 3.59a1 1 0 010 1.414l-3.591 3.59a1 1 0 01-.707.293zM19.108 65.133a1 1 0 01-.707-.293l-3.589-3.59a1 1 0 010-1.414l3.589-3.59a1 1 0 011.414 1.414l-2.882 2.883 2.882 2.883a1 1 0 01-.707 1.707z"/></svg>