<?xml version="1.0" encoding="UTF-8"?>
<!DOCTYPE svg PUBLIC "-//W3C//DTD SVG 1.1//EN" "http://www.w3.org/Graphics/SVG/1.1/DTD/svg11.dtd">
<!-- Creator: CorelDRAW 2017 -->
<svg xmlns="http://www.w3.org/2000/svg" xml:space="preserve" width="37.2526mm" height="9.3775mm" version="1.1" style="shape-rendering:geometricPrecision; text-rendering:geometricPrecision; image-rendering:optimizeQuality; fill-rule:evenodd; clip-rule:evenodd"
viewBox="0 0 2698.47 679.28"
 xmlns:xlink="http://www.w3.org/1999/xlink">
 <defs>
  <style type="text/css">
   <![CDATA[
    .fil2 {fill:#E94870}
    .fil1 {fill:#368C7E}
    .fil0 {fill:#368C7E;fill-rule:nonzero}
   ]]>
  </style>
 </defs>
 <g id="Слой_x0020_1">
  <metadata id="CorelCorpID_0Corel-Layer"/>
  <path class="fil0" d="M900.06 618l210.14 0 0 -64.08 -142.3 0 0 -275.16 -67.84 0 0 339.24zm329.34 0l0 -339.24 -67.85 0 0 339.24 67.85 0zm74.43 0l175.28 0c39.59,0 66.9,-27.33 66.9,-66.9l0 -55.6c0,-23.09 -11.31,-40.05 -33.44,-50.88 19.79,-11.78 29.68,-28.74 29.68,-50.89l0 -48.05c0,-39.58 -27.32,-66.91 -66.9,-66.91l-171.51 0 0 339.24zm67.86 -276.1l86.69 0c10.83,0 16.02,5.19 16.02,16.02l0 40.52c0,13.19 -3.31,16.02 -16.02,16.02l-86.69 0 0 -72.56zm0 132.86l84.81 0c15.54,0 21.67,1.89 21.67,15.08l0 49c0,10.84 -5.19,16.02 -16.02,16.02l-90.46 0 0 -80.09zm237.92 143.24l221.93 0 0 -64.08 -154.07 0 0 -77.27 124.86 0 0 -64.08 -124.86 0 0 -69.74 154.07 0 0 -64.08 -221.93 0 0 339.24zm475.4 -128.63c28.28,-8.01 46.17,-32.04 46.17,-64.08l0 -79.62c0,-39.58 -27.32,-66.91 -66.9,-66.91l-172.91 0 0 339.24 67.84 0 0 -125.8 54.65 0 54.65 125.8 73.03 0 -56.54 -128.63zm-21.68 -76.33c0,10.84 -5.17,16.02 -16.01,16.02l-88.11 0 0 -86.22 88.11 0c10.84,0 16.01,5.19 16.01,16.02l0 54.18zm349.14 -134.28l-245 0 0 63.14 88.58 0 0 276.1 67.84 0 0 -276.1 88.58 0 0 -63.14zm190.82 262.9l22.13 76.33 73.05 0 -109.31 -339.24 -79.16 0 -109.3 339.24 70.19 0 22.61 -76.33 109.79 0zm-18.38 -64.08l-72.57 0 36.75 -124.38 35.81 124.38z"/>
  <polygon class="fil1" points="294.7,679.28 511.39,460.28 418.3,317.47 "/>
  <polygon class="fil2" points="-0,1.92 455.05,0 711.73,260.3 535.32,437.48 441.32,296.23 "/>
  <polygon class="fil1" points="734.45,237.75 615.62,117.25 788.44,81.68 850.91,144.24 761.81,155.69 "/>
 </g>
</svg>
