<?xml version="1.0" encoding="UTF-8"?>
<!DOCTYPE svg PUBLIC "-//W3C//DTD SVG 1.1//EN" "http://www.w3.org/Graphics/SVG/1.1/DTD/svg11.dtd">
<!-- Creator: CorelDRAW 2017 -->
<svg xmlns="http://www.w3.org/2000/svg" xml:space="preserve" width="30mm" height="5.8728mm" version="1.1" style="shape-rendering:geometricPrecision; text-rendering:geometricPrecision; image-rendering:optimizeQuality; fill-rule:evenodd; clip-rule:evenodd"
viewBox="0 0 1518.63 297.29"
 xmlns:xlink="http://www.w3.org/1999/xlink">
 <defs>
  <style type="text/css">
   <![CDATA[
    .fil2 {fill:#E94870}
    .fil1 {fill:#368C7E}
    .fil0 {fill:#368C7E;fill-rule:nonzero}
   ]]>
  </style>
 </defs>
 <g id="Слой_x0020_1">
  <metadata id="CorelCorpID_0Corel-Layer"/>
  <g id="_2137721409104">
   <path class="fil0" d="M464.62 247.46l123.16 0 0 -37.56 -83.4 0 0 -161.27 -39.76 0 0 198.82zm193.02 0l0 -198.82 -39.77 0 0 198.82 39.77 0zm43.62 0l102.73 0c23.2,0 39.21,-16.02 39.21,-39.21l0 -32.59c0,-13.53 -6.63,-23.47 -19.6,-29.82 11.6,-6.9 17.39,-16.84 17.39,-29.82l0 -28.17c0,-23.19 -16.02,-39.22 -39.21,-39.22l-100.52 0 0 198.82zm39.77 -161.82l50.81 0c6.34,0 9.39,3.04 9.39,9.39l0 23.75c0,7.73 -1.94,9.39 -9.39,9.39l-50.81 0 0 -42.53zm0 77.87l49.7 0c9.11,0 12.7,1.11 12.7,8.84l0 28.72c0,6.35 -3.04,9.39 -9.39,9.39l-53.02 0 0 -46.94zm139.44 83.95l130.07 0 0 -37.56 -90.3 0 0 -45.29 73.18 0 0 -37.56 -73.18 0 0 -40.87 90.3 0 0 -37.56 -130.07 0 0 198.82zm278.63 -75.38c16.57,-4.7 27.06,-18.78 27.06,-37.56l0 -46.67c0,-23.19 -16.01,-39.22 -39.21,-39.22l-101.33 0 0 198.82 39.76 0 0 -73.73 32.03 0 32.03 73.73 42.8 0 -33.14 -75.38zm-12.71 -44.73c0,6.35 -3.03,9.39 -9.38,9.39l-51.64 0 0 -50.54 51.64 0c6.35,0 9.38,3.04 9.38,9.39l0 31.76zm204.63 -78.71l-143.59 0 0 37 51.91 0 0 161.82 39.76 0 0 -161.82 51.91 0 0 -37zm111.84 154.09l12.97 44.74 42.81 0 -64.06 -198.82 -46.39 0 -64.06 198.82 41.14 0 13.25 -44.74 64.34 0zm-10.77 -37.56l-42.53 0 21.54 -72.9 20.99 72.9z"/>
   <g>
    <polygon class="fil1" points="128.98,297.29 223.81,201.44 183.07,138.94 "/>
    <polygon class="fil2" points="-0,0.84 199.15,0 311.49,113.92 234.28,191.46 193.14,129.65 "/>
    <polygon class="fil1" points="321.43,104.05 269.43,51.31 345.06,35.75 372.4,63.13 333.41,68.14 "/>
   </g>
  </g>
 </g>
</svg>
