<?xml version="1.0" encoding="utf-8"?>
<!-- Generator: Adobe Illustrator 21.0.0, SVG Export Plug-In . SVG Version: 6.00 Build 0)  -->
<svg version="1.1" id="Слой_1" xmlns="http://www.w3.org/2000/svg" xmlns:xlink="http://www.w3.org/1999/xlink" x="0px" y="0px" width="119.3px" height="204.9"
	 viewBox="0 0 119.3 205" style="enable-background:new 0 0 119.3 205;" xml:space="preserve">
<style type="text/css">
	.st0{fill:#101012;}
	.st1{fill:#E9416D;}
	.st2{fill:#FEFEFE;}
</style>
<g>
	<path class="st0" d="M7.9,148.5c0,0.8,0.4,1.4,0.6,1.9c0.2,0.3,0.3,0.5,0.5,0.8c0.2,0.3,0.3,0.6,0.5,0.9L5,152
		c-0.3-0.1-0.6-0.5-0.6-0.9v-9.4c0-0.4,0.3-0.9,0.7-0.9h18.2c0.4,0,0.8,0.4,0.8,0.8v9.7c0,0.3-0.4,0.7-0.7,0.7h-3.1
		c-0.2,0-0.3-0.5-0.5-0.8c-1.1-1.8-1.5-2.6-0.9-4.5c0.3-1,0.6-1,0.6-1.6c0-0.7-1-0.8-1.4,0c-0.1,0.2-0.1,0.3-0.3,0.5
		c-0.1,0.2-0.2,0.3-0.3,0.5c-0.3,0.6-0.6,1.6-0.6,2.4c0,1.1,1.4,2.9,1.6,3.5h-3c-0.3-0.6-1.1-2-1.3-2.5c-0.8-2,0.7-3.7,0.7-4.2
		c0-1.1-1.1-0.8-1.4-0.2c-0.6,1-1.1,1.9-1.1,3.3c0,1.3,1.4,3,1.6,3.6h-3c-0.5-0.9-1.6-2.7-1.6-3.4c0-2,0.9-2.9,0.9-3.2
		c0-0.2,0-0.3-0.1-0.5c-0.3-0.4-1-0.2-1.3,0.3c-0.4,0.7-0.7,1.2-0.9,2C8,147.4,7.9,148.1,7.9,148.5L7.9,148.5L7.9,148.5z M3,141.7
		v9.5c0,1.3,1.1,2.2,2.3,2.2h4.4c0,1.6-0.9,2.7-0.9,3c0.1,0.6,1,0.9,1.5,0c0.5-0.9,1-1.8,1-3h3c-0.1,0.3-0.1,0.6-0.2,1.1
		c-0.1,0.3-0.2,0.7-0.4,1c-0.1,0.2-0.1,0.3-0.2,0.4c-0.1,0.2-0.2,0.3-0.2,0.4c0,0.4,0.4,0.6,0.8,0.6c0.2,0,0.6-0.3,0.7-0.6
		c0.5-1,1-1.7,1-3h3.1c-0.1,0.6,0,0.7-0.3,1.6c-0.2,0.7-0.6,1.1-0.6,1.5c0,0.3,0.4,0.6,0.7,0.6c0.7,0,1.7-2.4,1.7-3.6
		c1,0,2.9,0.1,3.7-0.2c0.8-0.4,1.4-1.2,1.4-2.2v-9.2c0-0.7-0.3-1.4-0.7-1.7c-0.5-0.5-1-0.7-1.7-0.7H5.4C4,139.4,3,140.4,3,141.7
		L3,141.7L3,141.7z"/>
	<path class="st0" d="M16,74.2L16,74.2z M12.8,75.3c-0.6,0-0.8-0.2-1.2-0.6c-0.8-0.8-1.4-2.1-1.7-3.3c-1.1-3.3-1.2-8.8,0-12.3
		c0.3-0.9,0.6-1.5,1-2.3c0.2-0.3,0.5-0.7,0.7-0.9c0.8-0.8,1.5-0.9,2.3,0c0.3,0.3,0.5,0.7,0.7,1l0.6,1.1c0.2,0.4,0.3,0.8,0.5,1.3
		c0.6,1.7,0.5,2.8,0.8,4.4c0,0.3,0,0.5,0,0.8c0,0.3,0.1,0.5,0.1,0.8c0,0.3,0,0.5-0.1,0.8c0,1,0,1.3-0.2,2.4
		c-0.3,1.9-0.7,3.6-1.6,5.2c-0.1,0.1-0.1,0.2-0.1,0.3l-0.6,0.7C13.7,74.9,13.3,75.3,12.8,75.3L12.8,75.3L12.8,75.3z M16,56.4
		c0.4,0.1,1.7,1.6,2,2c0.7,1.2,1.4,2.6,1.7,4c0.6,3.1,0.3,6.6-1.4,9.4c-0.4,0.7-1.7,2.4-2.3,2.5c0.1-0.2,0.1-0.2,0.2-0.4
		c0.8-1.6,1.1-3,1.4-4.7c0.1-0.4,0.1-0.8,0.2-1.2c0.4-3,0-6.8-0.9-9.6c-0.1-0.3-0.3-0.6-0.4-1C16.3,57,16,56.6,16,56.4L16,56.4
		L16,56.4z M16,56.4L16,56.4z M7.7,64.5c0,3.1,0.1,4.3,0.9,7.3c0.3,1,0.8,2.2,1.4,3c0.3,0.4,0.6,0.8,1,1.2c1.8,1.6,4.8,0.3,6.3-0.9
		c0.4-0.3,0.8-0.7,1.1-1.1c1.1-1.2,1.8-2.7,2.3-4.3c0.7-2.1,0.8-4.7,0.4-7c-0.1-0.6-0.2-1.2-0.4-1.8c-0.6-1.9-1.5-3.5-2.9-4.8
		c-0.1-0.1-0.2-0.2-0.3-0.3l-0.9-0.7c-0.2-0.2-0.5-0.3-0.7-0.4c-1.3-0.7-3.3-1.3-4.6-0.4C8.6,56.2,7.7,61.6,7.7,64.5L7.7,64.5
		L7.7,64.5z"/>
	<path class="st0" d="M7.3,98.6V84.1c0-0.8,0.2-1.5-0.8-1.5c-0.4,0-0.7,0.3-0.7,0.7v17c0,0.4,0.3,0.7,0.6,0.7h17.2
		c0.8,0,1-1,0.4-1.4c-0.2-0.1-0.6-0.1-0.9-0.1H8.4c0.2-0.3,2.2-2.2,2.7-2.7c0.2-0.2,0.1-0.2,0.4-0.2c1.6,0,11.8,0.1,12.2,0
		c0.8-0.2,0.8-1.4-0.3-1.5c-1.2-0.1-3.8,0-5.1,0c-2.2,0-4.5,0-6.7,0c0.1-0.3,0-7.3,0-8.3c0-0.8,0.1-3.5-0.1-4c-0.3-0.5-1-0.5-1.3,0
		c-0.2,0.4-0.1,1.5-0.1,2c0,3.4,0,7,0,10.4c0,0.5,0,0.4-0.3,0.7c-0.2,0.2-0.3,0.3-0.5,0.5C9.1,96.9,7.5,98.5,7.3,98.6L7.3,98.6
		L7.3,98.6z"/>
	<path class="st0" d="M5.3,167H23c0.3,0,0.7,0,0.9,0.1c0.4,0.1,0.3,0.1,0.5,0.5l1.3,2.6c0.1,0.2,0.2,0.4,0.3,0.6
		c0.1,0.2,0.3,0.5,0.3,0.7H2c0-0.2,1.8-3.5,2-3.9c0.2-0.3,0.1-0.4,0.5-0.5C4.7,167,5,167,5.3,167L5.3,167L5.3,167z M0,172
		c0,0.4,0.3,0.7,0.7,0.8c0.3,0.2,0.8,0.3,1.2,0.3h24.6c1,0,2.3-0.5,1.8-1.6c-0.2-0.3-2.6-5.2-2.8-5.4c-0.3-0.4-1.5-0.7-2.1-0.7H5
		c-0.8,0-1.8,0.3-2.1,0.8c-0.2,0.2-0.6,1.1-0.8,1.4c-0.1,0.2-0.2,0.3-0.3,0.5l-1.5,2.9C0.3,171.2,0,171.7,0,172L0,172L0,172z"/>
	<path class="st0" d="M6.5,120.7H12v7H6.5V120.7z M6.5,112H12v7H6.5V112z M5.1,112.2v6.6c0,0.4,0.1,0.8,0.3,1.1
		c-0.2,0.2-0.3,0.7-0.3,1v6.5c0,1,0.5,1.6,1.5,1.6c1,0,5.2,0.1,5.9-0.1c0.2,0,0.4-0.2,0.5-0.3c0.2-0.2,0.2-0.3,0.3-0.5
		c0.1-0.2,0.1-0.4,0.1-0.7v-6.5c0-0.2-0.1-0.4-0.1-0.6c-0.1-0.6-0.3-0.3-0.1-0.7l0.2-0.8v-6.6c0-0.4-0.1-0.9-0.4-1.2c0,0,0,0-0.1,0
		c-0.3-0.2-0.6-0.3-1-0.3H6.6c-0.2,0-0.4,0.1-0.6,0.1c-0.1,0-0.4,0.2-0.5,0.3C5.3,111.3,5.1,111.8,5.1,112.2L5.1,112.2L5.1,112.2z"
		/>
	<path class="st0" d="M6.2,41.9v-7.1c0-0.2,0.2-0.4,0.4-0.4h15.7c0.2,0,0.4,0.2,0.4,0.3V42c0,0.1,0,0.1-0.1,0.2c0,0-0.2,0.1-0.2,0.1
		h-16C6.3,42.3,6.2,42.1,6.2,41.9L6.2,41.9L6.2,41.9z M4.8,35.1v6.5c0,0.7,0.2,1.1,0.5,1.5c0.3,0.3,0.7,0.6,1.4,0.6h15.6
		c0.3,0,0.6,0,0.8-0.1c0.3-0.1,0.5-0.2,0.7-0.5c0,0,0.1-0.1,0.1-0.1c0.2-0.2,0.4-0.7,0.4-1v-7.2c0-0.9-0.8-1.8-1.8-1.8H6.5
		C5.5,33,4.8,33.9,4.8,35.1L4.8,35.1L4.8,35.1z"/>
	<path class="st0" d="M16.2,120.7h5.5v7h-5.5V120.7z M16.2,112h5.5v7h-5.5V112z M14.8,112.1c0,1.2-0.1,6.5,0.1,7.2
		c0.1,0.2,0.1,0.3,0.2,0.5c-0.2,0.3-0.3,0.5-0.3,1v6.8c0,0.8,0.6,1.4,1.4,1.4h5.4c0.3,0,0.6-0.1,0.8-0.2l0.2-0.2
		c0.1-0.1,0.2-0.3,0.3-0.5c0.1-0.2,0.1-0.4,0.1-0.6v-6.8c0-0.2,0-0.3-0.1-0.5c-0.1-0.3-0.1-0.2-0.2-0.4c0-0.1,0.3-0.4,0.3-1v-6.8
		c0-0.9-0.6-1.5-1.5-1.5h-5.3c-0.4,0-0.8,0.1-1.1,0.4C15,111.3,14.8,111.6,14.8,112.1L14.8,112.1L14.8,112.1z"/>
	<path class="st0" d="M15.4,21.3c-1.1,0-1.9,0.2-2.4-0.5c-0.3-0.3-0.3-0.5-0.3-1.1c0-0.9,0-1.9,0-2.8c1.2,0.3,2.1,0.5,3.4,0.1
		c0.2,0,0.3-0.1,0.4-0.1c0,0.9,0,1.8,0,2.7c0,0.5,0,0.8-0.3,1.1C16.1,20.9,15.7,21.3,15.4,21.3L15.4,21.3L15.4,21.3z M14.6,15.8
		c-0.7,0-1.3-0.1-1.8-0.4c-1-0.5-0.6-0.3-1.4-0.9c-0.1-0.1-0.4-0.5-0.5-0.6c-0.7-1-0.9-1.7-0.9-3c0-0.8,0.2-1.1,0.4-1.7
		c0.3-0.6,0.9-1.4,1.4-1.8c0.4-0.3,0.6-0.4,1-0.6c0.8-0.4,1.1-0.3,2-0.3c1.2,0,2.2,0.6,3,1.4c0.4,0.4,0.6,0.7,0.9,1.3
		c0.4,0.8,0.5,2.1,0.3,3C18.5,14.3,16.7,15.8,14.6,15.8L14.6,15.8L14.6,15.8z M8.6,11.2c0,1.5,0.6,3,1.4,3.9c0.5,0.6,0.4,0.5,1.1,1
		c0.3,0.2,0.1,0.3,0.1,0.9v2.8c0,1,0.4,1.7,0.9,2.2c0.7,0.7,1.5,0.7,2.5,0.7c1.3,0,2.4-0.4,2.9-1.4c0.2-0.3,0.3-0.7,0.3-1.1
		c0-0.7,0.1-3.4,0-3.9c0.4-0.2,0.5-0.4,0.7-0.6c1.1-0.9,1.9-2.6,1.9-4c0-1.2,0-2-0.6-3.1C18,4.9,13.3,4.2,10.4,7
		c-0.3,0.3-0.5,0.5-0.7,0.8C9,8.8,8.6,9.9,8.6,11.2L8.6,11.2L8.6,11.2z"/>
	<path class="st0" d="M4.8,191.5c0,0.7,0.1,1.6,0.2,2.2c0.2,0.9,0.6,1.8,1,2.6c0.4,0.7,0.6,0.9,1,1.4c0.8,1.1,2,0,1.2-0.9
		c-1.2-1.3-2-3.4-2-5.2c0-1.8,0.4-3.3,1.4-4.8l0.5-0.7c0.1-0.1,0.1-0.1,0.2-0.2c1.3-1.5,3.2-2.5,5.3-2.8c1.4-0.2,3.1,0.1,4.4,0.7
		c1.8,0.9,3,2,3.9,3.8c0.5,0.9,0.8,1.9,0.9,3c0,0.2,0,0.4,0,0.6c0,0.3,0,0.3,0,0.6c0,1.6-0.7,3.6-1.7,4.7c-0.5,0.5-0.5,0.5-0.5,1
		c0,0.3,0.6,1.1,1.4,0.2c1.2-1.4,2.3-4,2.3-5.8c0-1.8-0.1-3.1-0.9-4.8c-1.1-2.1-2.5-3.5-4.6-4.6c-2-1-4.7-1.3-6.9-0.6
		c-0.6,0.2-0.8,0.2-1.3,0.5c-0.6,0.3-0.5,0.2-1.2,0.6c-0.7,0.4-1.8,1.3-2.2,1.9c-0.7,0.9-1.1,1.3-1.6,2.5c-0.1,0.3-0.2,0.5-0.3,0.8
		C5,189.4,4.8,190.3,4.8,191.5L4.8,191.5L4.8,191.5z"/>
	<path class="st0" d="M9.7,192.1v11.1c0,1.2-0.1,1.8,0.9,1.8c0.7,0,0.6-1.1,0.6-1.8v-11c0-0.6,0-0.7,0.2-1.1
		c0.1-0.3,0.2-0.5,0.4-0.8l0.5-0.5c1.1-1.1,3.2-1.1,4.4-0.1c1.4,1.2,1.2,2.1,1.2,3.7v9.9c0,0.5,0,0.8,0,1.2c0,0.9,1.3,0.9,1.4,0.1
		c0-0.3,0.1-0.7,0.1-1.1v-11.2c0-0.6-0.2-1.3-0.4-1.8c-0.4-1-1.3-1.8-2.3-2.3c-0.8-0.4-1.4-0.5-2.3-0.5c-2.1,0-4,1.6-4.5,3.6
		C9.8,191.4,9.7,191.8,9.7,192.1L9.7,192.1L9.7,192.1z"/>
	<path class="st0" d="M26.7,114.3v3.9c0,0.9,0.6,1.7,1.5,1.7h0.3c0.9,0,1.5-0.7,1.5-1.7c0-1.3,0.2-1.1-1.1-1.1
		c0,1.3,0.1,1.7-0.7,1.7c-0.4,0-0.4-0.4-0.4-0.8c0-0.7-0.1-3.5,0.1-4c0.1-0.4,1-0.5,1,0.4v0.7c1.3,0,1.1,0.2,1.1-0.8
		c0-0.9-0.6-1.7-1.5-1.7C27.4,112.6,26.7,113.1,26.7,114.3L26.7,114.3L26.7,114.3z"/>
	<path class="st0" d="M12.7,192.5c0,1.6,1.9,2.4,3.1,1.3c0.9-0.8,0.8-2.3-0.5-2.9c-0.5-0.2-1-0.2-1.5,0
		C13.3,191.1,12.7,191.8,12.7,192.5L12.7,192.5L12.7,192.5z"/>
	<path class="st0" d="M25.2,115.8c-0.1,0-0.3-0.1-0.3-0.2v-2.5c0-0.2,0.2-0.3,0.5-0.1c0.1,0.5,0,2,0,2.5
		C25.5,115.7,25.4,115.8,25.2,115.8L25.2,115.8L25.2,115.8z M24.2,113.2v2.4c0,1.2,2,1.2,2,0v-2.4C26.2,112,24.2,112,24.2,113.2z"/>
	<path class="st0" d="M13.8,0.9v2c0,1.2,1.5,1.1,1.5,0.1V0.9C15.3-0.3,13.8-0.3,13.8,0.9z"/>
	<path class="st0" d="M21.9,11.2c0,0.5,0.2,0.9,0.8,0.9h2.2c0.4,0,0.8-0.4,0.8-0.8c0-0.4-0.4-0.7-0.9-0.7h-2.1
		C22.3,10.6,21.9,10.8,21.9,11.2z"/>
	<path class="st0" d="M3.5,11.3c0,0.5,0.3,0.8,0.9,0.8c0.7,0,2.1,0.1,2.5-0.2c0.5-0.3,0.4-1.4-0.6-1.4c-0.6,0-2.2-0.1-2.5,0.2
		C3.6,10.9,3.5,11,3.5,11.3C3.5,11.3,3.5,11.3,3.5,11.3z"/>
	<path class="st0" d="M4.9,6c0,0.6,0.4,0.7,1.2,1.2c0.2,0.2,0.5,0.3,0.7,0.4C7,7.7,7.3,7.9,7.6,7.9c0.3,0,0.7-0.3,0.7-0.7
		c0-0.6-0.9-1-1.6-1.4C6.5,5.6,6,5.3,5.7,5.2C5.3,5.2,4.9,5.5,4.9,6L4.9,6L4.9,6z"/>
	<path class="st0" d="M4.9,16.5c0,0.5,0.2,0.8,0.7,0.8c0.4,0,1.2-0.6,1.5-0.8c0.4-0.3,1.7-0.8,1-1.7c-0.5-0.6-1.3,0.1-2,0.6
		C5.7,15.8,4.9,16.1,4.9,16.5L4.9,16.5L4.9,16.5z"/>
	<path class="st0" d="M20.7,15.4c0,0.3,0.2,0.5,0.4,0.6c0.3,0.2,1.9,1.2,2.1,1.2c0.6,0,0.9-0.3,0.9-0.8c0-0.6-0.9-0.9-1.6-1.4
		c-0.4-0.3-0.7-0.5-1.1-0.5C21.1,14.7,20.7,15.1,20.7,15.4L20.7,15.4L20.7,15.4z"/>
	<path class="st0" d="M8.6,2.1C8.6,2.5,8.8,2.6,9,3l0.8,1.4C10.1,5,10.7,5,11,4.7c0.6-0.5-0.1-1.3-0.5-2.1c-0.1-0.2-0.5-0.9-0.7-1
		C9.1,1.1,8.6,1.8,8.6,2.1L8.6,2.1L8.6,2.1z"/>
	<path class="st0" d="M20.8,7.1c0,0.4,0.3,0.8,0.7,0.8c0.3,0,1.8-1,2.2-1.2c0.5-0.3,0.5-0.4,0.5-0.9c0-0.3-0.4-0.7-0.8-0.6
		c-0.3,0-1.6,0.9-1.9,1.1C21.2,6.5,20.8,6.7,20.8,7.1L20.8,7.1L20.8,7.1z"/>
	<path class="st0" d="M17.9,4.2c0,0.7,1,1.1,1.4,0.3L20.1,3c0.2-0.3,0.4-0.5,0.4-0.9c0-0.7-1-1.1-1.4-0.3
		C18.8,2.2,17.9,3.8,17.9,4.2L17.9,4.2L17.9,4.2z"/>
	<path class="st0" d="M22.2,30.6c0,0.6,0.3,0.9,0.9,0.9c0.4,0,0.9-0.6,1.1-0.9c0.3-0.3,0.9-0.7,0.9-1.2c0-0.4-0.4-0.8-0.8-0.8
		c-0.6,0-1.2,0.8-1.7,1.3C22.4,30.1,22.2,30.2,22.2,30.6L22.2,30.6z"/>
	<path class="st0" d="M8.8,29.3c0,0.3,0.2,0.5,0.3,0.7c0.1,0.2,0.2,0.4,0.4,0.6c0.2,0.4,0.5,1,1,1c0.5,0,0.9-0.4,0.9-0.8
		c0-0.3-0.6-1.3-0.8-1.6c-0.2-0.3-0.3-0.7-0.9-0.7C9.2,28.4,8.8,28.8,8.8,29.3C8.8,29.3,8.8,29.3,8.8,29.3z"/>
	<path class="st0" d="M8.8,47.5c0,0.4,0.4,0.8,0.8,0.8c0.6,0,1-0.9,1.4-1.6c0.1-0.2,0.3-0.5,0.3-0.7c0-0.4-0.4-0.8-0.8-0.8
		c-0.6,0-0.8,0.5-1,1C9.3,46.4,8.8,47.1,8.8,47.5C8.8,47.5,8.8,47.5,8.8,47.5z"/>
	<path class="st0" d="M17.5,45.9c0,0.5,0.4,1,0.6,1.4c0.2,0.4,0.4,1,1,1c0.7,0,1-0.8,0.7-1.3c-0.1-0.1-0.1-0.2-0.2-0.3
		c-0.1-0.2-0.2-0.4-0.4-0.6c-0.2-0.4-0.4-0.9-1-0.9C17.9,45.1,17.5,45.5,17.5,45.9L17.5,45.9L17.5,45.9z"/>
	<path class="st0" d="M17.5,30.7c0,0.9,1,1.1,1.4,0.6l0.4-0.6c0.3-0.5,0.7-1,0.7-1.4c0-0.8-1-1-1.5-0.5L17.8,30
		C17.7,30.2,17.5,30.4,17.5,30.7L17.5,30.7L17.5,30.7z"/>
	<path class="st0" d="M22.2,46.1c0,0.3,0.1,0.5,0.4,0.8l1,1c0.9,0.9,2.1-0.2,1.2-1.2l-1-1c-0.3-0.3-0.3-0.4-0.8-0.4
		C22.7,45.3,22.2,45.6,22.2,46.1C22.2,46.1,22.2,46.1,22.2,46.1z"/>
	<path class="st0" d="M3.9,47.3c0,0.6,0.4,0.9,0.7,0.9c0.6,0,1.2-0.8,1.7-1.3c0.7-0.7,0.2-1.6-0.4-1.6c-0.6,0-1.2,0.8-1.7,1.3
		C4,46.8,3.9,47,3.9,47.3z"/>
	<path class="st0" d="M3.9,29.3c0,0.3,0,0.4,0.1,0.6C4,29.9,4.1,30,4.2,30.1c0.4,0.5,1.2,1.4,1.7,1.4c0.6,0,1.2-0.8,0.5-1.5
		c-0.2-0.2-0.3-0.3-0.5-0.5c-0.3-0.3-0.7-0.8-1.3-0.8C4.3,28.6,3.9,28.9,3.9,29.3L3.9,29.3L3.9,29.3z"/>
	<path class="st0" d="M13.8,45.7v1.9c0,1.1,1.6,0.9,1.6,0.1v-2c0-0.3-0.4-0.7-0.7-0.7h-0.2C14.1,45,13.8,45.4,13.8,45.7L13.8,45.7
		L13.8,45.7z"/>
	<path class="st0" d="M13.8,29v1.9c0,1.1,1.6,0.9,1.6,0.1v-2c0-0.3-0.4-0.7-0.7-0.7h-0.2C14.1,28.3,13.8,28.7,13.8,29
		C13.8,29,13.8,29,13.8,29z"/>
	<path class="st1" d="M54,148.5c0,0.8,0.4,1.4,0.6,1.9c0.2,0.3,0.3,0.5,0.5,0.8c0.2,0.3,0.3,0.6,0.5,0.9l-4.5,0
		c-0.3-0.1-0.6-0.5-0.6-0.9v-9.4c0-0.4,0.3-0.9,0.7-0.9h18.2c0.4,0,0.8,0.4,0.8,0.8v9.7c0,0.3-0.4,0.7-0.7,0.7h-3.1
		c-0.2,0-0.3-0.5-0.5-0.8c-1.1-1.8-1.5-2.6-0.9-4.5c0.3-1,0.6-1,0.6-1.6c0-0.7-1-0.8-1.4,0c-0.1,0.2-0.1,0.3-0.3,0.5
		c-0.1,0.2-0.2,0.3-0.3,0.5c-0.3,0.6-0.6,1.6-0.6,2.4c0,1.1,1.4,2.9,1.6,3.5h-3c-0.3-0.6-1.1-2-1.3-2.5c-0.8-2,0.7-3.7,0.7-4.2
		c0-1.1-1.1-0.8-1.4-0.2c-0.6,1-1.1,1.9-1.1,3.3c0,1.3,1.4,3,1.6,3.6h-3c-0.5-0.9-1.6-2.7-1.6-3.4c0-2,0.9-2.9,0.9-3.2
		c0-0.2,0-0.3-0.1-0.5c-0.3-0.4-1-0.2-1.3,0.3c-0.4,0.7-0.7,1.2-0.9,2C54.1,147.4,54,148.1,54,148.5L54,148.5L54,148.5z M49.1,141.7
		v9.5c0,1.3,1.1,2.2,2.3,2.2h4.4c0,1.6-0.9,2.7-0.9,3c0.1,0.6,1,0.9,1.5,0c0.5-0.9,1-1.8,1-3h3c-0.1,0.3-0.1,0.6-0.2,1.1
		c-0.1,0.3-0.2,0.7-0.4,1c-0.1,0.2-0.1,0.3-0.2,0.4c-0.1,0.2-0.2,0.3-0.2,0.4c0,0.4,0.4,0.6,0.8,0.6c0.2,0,0.6-0.3,0.7-0.6
		c0.5-1,1-1.7,1-3H65c-0.1,0.6,0,0.7-0.3,1.6c-0.2,0.7-0.6,1.1-0.6,1.5c0,0.3,0.4,0.6,0.7,0.6c0.7,0,1.7-2.4,1.7-3.6
		c1,0,2.9,0.1,3.7-0.2c0.8-0.4,1.4-1.2,1.4-2.2v-9.2c0-0.7-0.3-1.4-0.7-1.7c-0.5-0.5-1-0.7-1.7-0.7H51.5
		C50.1,139.4,49.1,140.4,49.1,141.7L49.1,141.7L49.1,141.7z"/>
	<path class="st1" d="M62.1,74.2L62.1,74.2z M58.9,75.3c-0.6,0-0.8-0.2-1.2-0.6c-0.8-0.8-1.4-2.1-1.7-3.3c-1.1-3.3-1.2-8.8,0-12.3
		c0.3-0.9,0.6-1.5,1-2.3c0.2-0.3,0.5-0.7,0.7-0.9c0.8-0.8,1.5-0.9,2.3,0c0.3,0.3,0.5,0.7,0.7,1l0.6,1.1c0.2,0.4,0.3,0.8,0.5,1.3
		c0.6,1.7,0.5,2.8,0.8,4.4c0,0.3,0,0.5,0,0.8c0,0.3,0.1,0.5,0.1,0.8c0,0.3,0,0.5-0.1,0.8c0,1,0,1.3-0.2,2.4
		c-0.3,1.9-0.7,3.6-1.6,5.2c-0.1,0.1-0.1,0.2-0.1,0.3L60,74.7C59.8,74.9,59.4,75.3,58.9,75.3L58.9,75.3L58.9,75.3z M62.1,56.4
		c0.4,0.1,1.7,1.6,2,2c0.7,1.2,1.4,2.6,1.7,4c0.6,3.1,0.3,6.6-1.4,9.4c-0.4,0.7-1.7,2.4-2.3,2.5c0.1-0.2,0.1-0.2,0.2-0.4
		c0.8-1.6,1.1-3,1.4-4.7c0.1-0.4,0.1-0.8,0.2-1.2c0.4-3,0-6.8-0.9-9.6c-0.1-0.3-0.3-0.6-0.4-1C62.4,57,62.1,56.6,62.1,56.4
		L62.1,56.4L62.1,56.4z M62.1,56.4L62.1,56.4z M53.8,64.5c0,3.1,0.1,4.3,0.9,7.3c0.3,1,0.8,2.2,1.4,3c0.3,0.4,0.6,0.8,1,1.2
		c1.8,1.6,4.8,0.3,6.3-0.9c0.4-0.3,0.8-0.7,1.1-1.1c1.1-1.2,1.8-2.7,2.3-4.3c0.7-2.1,0.8-4.7,0.4-7c-0.1-0.6-0.2-1.2-0.4-1.8
		c-0.6-1.9-1.5-3.5-2.9-4.8c-0.1-0.1-0.2-0.2-0.3-0.3l-0.9-0.7c-0.2-0.2-0.5-0.3-0.7-0.4c-1.3-0.7-3.3-1.3-4.6-0.4
		C54.7,56.2,53.8,61.6,53.8,64.5L53.8,64.5L53.8,64.5z"/>
	<path class="st1" d="M53.4,98.6V84.1c0-0.8,0.2-1.5-0.8-1.5c-0.4,0-0.7,0.3-0.7,0.7v17c0,0.4,0.3,0.7,0.6,0.7h17.2
		c0.8,0,1-1,0.4-1.4c-0.2-0.1-0.6-0.1-0.9-0.1H54.6c0.2-0.3,2.2-2.2,2.7-2.7c0.2-0.2,0.1-0.2,0.4-0.2c1.6,0,11.8,0.1,12.2,0
		c0.8-0.2,0.8-1.4-0.3-1.5c-1.2-0.1-3.8,0-5.1,0c-2.2,0-4.5,0-6.7,0c0.1-0.3,0-7.3,0-8.3c0-0.8,0.1-3.5-0.1-4c-0.3-0.5-1-0.5-1.3,0
		c-0.2,0.4-0.1,1.5-0.1,2c0,3.4,0,7,0,10.4c0,0.5,0,0.4-0.3,0.7c-0.2,0.2-0.3,0.3-0.5,0.5C55.2,96.9,53.6,98.5,53.4,98.6L53.4,98.6
		L53.4,98.6z"/>
	<path class="st1" d="M51.4,167h17.7c0.3,0,0.7,0,0.9,0.1c0.4,0.1,0.3,0.1,0.5,0.5l1.3,2.6c0.1,0.2,0.2,0.4,0.3,0.6
		c0.1,0.2,0.3,0.5,0.3,0.7H48.1c0-0.2,1.8-3.5,2-3.9c0.2-0.3,0.1-0.4,0.5-0.5C50.8,167,51.1,167,51.4,167L51.4,167L51.4,167z
		 M46.1,172c0,0.4,0.3,0.7,0.7,0.8c0.3,0.2,0.8,0.3,1.2,0.3h24.6c1,0,2.3-0.5,1.8-1.6c-0.2-0.3-2.6-5.2-2.8-5.4
		c-0.3-0.4-1.5-0.7-2.1-0.7H51.1c-0.8,0-1.8,0.3-2.1,0.8c-0.2,0.2-0.6,1.1-0.8,1.4c-0.1,0.2-0.2,0.3-0.3,0.5l-1.5,2.9
		C46.4,171.2,46.1,171.7,46.1,172L46.1,172L46.1,172z"/>
	<path class="st1" d="M52.7,120.7h5.4v7h-5.4V120.7z M52.7,112h5.4v7h-5.4V112z M51.2,112.2v6.6c0,0.4,0.1,0.8,0.3,1.1
		c-0.2,0.2-0.3,0.7-0.3,1v6.5c0,1,0.5,1.6,1.5,1.6c1,0,5.2,0.1,5.9-0.1c0.2,0,0.4-0.2,0.5-0.3c0.2-0.2,0.2-0.3,0.3-0.5
		c0.1-0.2,0.1-0.4,0.1-0.7v-6.5c0-0.2-0.1-0.4-0.1-0.6c-0.1-0.6-0.3-0.3-0.1-0.7l0.2-0.8v-6.6c0-0.4-0.1-0.9-0.4-1.2c0,0,0,0-0.1,0
		c-0.3-0.2-0.6-0.3-1-0.3h-5.2c-0.2,0-0.4,0.1-0.6,0.1c-0.1,0-0.4,0.2-0.5,0.3C51.4,111.3,51.2,111.8,51.2,112.2L51.2,112.2
		L51.2,112.2z"/>
	<path class="st1" d="M52.3,41.9v-7.1c0-0.2,0.2-0.4,0.4-0.4h15.7c0.2,0,0.4,0.2,0.4,0.3V42c0,0.1,0,0.1-0.1,0.2
		c0,0-0.2,0.1-0.2,0.1h-16C52.4,42.3,52.3,42.1,52.3,41.9L52.3,41.9L52.3,41.9z M50.9,35.1v6.5c0,0.7,0.2,1.1,0.5,1.5
		c0.3,0.3,0.7,0.6,1.4,0.6h15.6c0.3,0,0.6,0,0.8-0.1c0.3-0.1,0.5-0.2,0.7-0.5c0,0,0.1-0.1,0.1-0.1c0.2-0.2,0.4-0.7,0.4-1v-7.2
		c0-0.9-0.8-1.8-1.8-1.8H52.6C51.6,33,50.9,33.9,50.9,35.1L50.9,35.1L50.9,35.1z"/>
	<path class="st1" d="M62.3,120.7h5.5v7h-5.5V120.7z M62.3,112h5.5v7h-5.5V112z M61,112.1c0,1.2-0.1,6.5,0.1,7.2
		c0.1,0.2,0.1,0.3,0.2,0.5c-0.2,0.3-0.3,0.5-0.3,1v6.8c0,0.8,0.6,1.4,1.4,1.4h5.4c0.3,0,0.6-0.1,0.8-0.2l0.2-0.2
		c0.1-0.1,0.2-0.3,0.3-0.5c0.1-0.2,0.1-0.4,0.1-0.6v-6.8c0-0.2,0-0.3-0.1-0.5c-0.1-0.3-0.1-0.2-0.2-0.4c0-0.1,0.3-0.4,0.3-1v-6.8
		c0-0.9-0.6-1.5-1.5-1.5h-5.3c-0.4,0-0.8,0.1-1.1,0.4C61.1,111.3,60.9,111.6,61,112.1L61,112.1L61,112.1z"/>
	<path class="st1" d="M61.5,21.3c-1.1,0-1.9,0.2-2.4-0.5c-0.3-0.3-0.3-0.5-0.3-1.1c0-0.9,0-1.9,0-2.8c1.2,0.3,2.1,0.5,3.4,0.1
		c0.2,0,0.3-0.1,0.4-0.1c0,0.9,0,1.8,0,2.7c0,0.5,0,0.8-0.3,1.1C62.2,20.9,61.8,21.3,61.5,21.3L61.5,21.3L61.5,21.3z M60.7,15.8
		c-0.7,0-1.3-0.1-1.8-0.4c-1-0.5-0.6-0.3-1.4-0.9c-0.1-0.1-0.4-0.5-0.5-0.6c-0.7-1-0.9-1.7-0.9-3c0-0.8,0.2-1.1,0.4-1.7
		c0.3-0.6,0.9-1.4,1.4-1.8c0.4-0.3,0.6-0.4,1-0.6c0.8-0.4,1.1-0.3,2-0.3c1.2,0,2.2,0.6,3,1.4c0.4,0.4,0.6,0.7,0.9,1.3
		c0.4,0.8,0.5,2.1,0.3,3C64.6,14.3,62.8,15.8,60.7,15.8L60.7,15.8L60.7,15.8z M54.7,11.2c0,1.5,0.6,3,1.4,3.9c0.5,0.6,0.4,0.5,1.1,1
		c0.3,0.2,0.1,0.3,0.1,0.9v2.8c0,1,0.4,1.7,0.9,2.2c0.7,0.7,1.5,0.7,2.5,0.7c1.3,0,2.4-0.4,2.9-1.4c0.2-0.3,0.3-0.7,0.3-1.1
		c0-0.7,0.1-3.4,0-3.9c0.4-0.2,0.5-0.4,0.7-0.6c1.1-0.9,1.9-2.6,1.9-4c0-1.2,0-2-0.6-3.1c-1.9-3.7-6.7-4.4-9.5-1.6
		c-0.3,0.3-0.5,0.5-0.7,0.8C55.1,8.8,54.7,9.9,54.7,11.2L54.7,11.2L54.7,11.2z"/>
	<path class="st1" d="M50.9,191.5c0,0.7,0.1,1.6,0.2,2.2c0.2,0.9,0.6,1.8,1,2.6c0.4,0.7,0.6,0.9,1,1.4c0.8,1.1,2,0,1.2-0.9
		c-1.2-1.3-2-3.4-2-5.2c0-1.8,0.4-3.3,1.4-4.8l0.5-0.7c0.1-0.1,0.1-0.1,0.2-0.2c1.3-1.5,3.2-2.5,5.3-2.8c1.4-0.2,3.1,0.1,4.4,0.7
		c1.8,0.9,3,2,3.9,3.8c0.5,0.9,0.8,1.9,0.9,3c0,0.2,0,0.4,0,0.6c0,0.3,0,0.3,0,0.6c0,1.6-0.7,3.6-1.7,4.7c-0.5,0.5-0.5,0.5-0.5,1
		c0,0.3,0.6,1.1,1.4,0.2c1.2-1.4,2.3-4,2.3-5.8c0-1.8-0.1-3.1-0.9-4.8c-1.1-2.1-2.5-3.5-4.6-4.6c-2-1-4.7-1.3-6.9-0.6
		c-0.6,0.2-0.8,0.2-1.3,0.5c-0.6,0.3-0.5,0.2-1.2,0.6c-0.7,0.4-1.8,1.3-2.2,1.9c-0.7,0.9-1.1,1.3-1.6,2.5c-0.1,0.3-0.2,0.5-0.3,0.8
		C51.1,189.4,50.9,190.3,50.9,191.5L50.9,191.5L50.9,191.5z"/>
	<path class="st1" d="M55.8,192.1v11.1c0,1.2-0.1,1.8,0.9,1.8c0.7,0,0.6-1.1,0.6-1.8v-11c0-0.6,0-0.7,0.2-1.1
		c0.1-0.3,0.2-0.5,0.4-0.8l0.5-0.5c1.1-1.1,3.2-1.1,4.4-0.1c1.4,1.2,1.2,2.1,1.2,3.7v9.9c0,0.5,0,0.8,0,1.2c0,0.9,1.3,0.9,1.4,0.1
		c0-0.3,0.1-0.7,0.1-1.1v-11.2c0-0.6-0.2-1.3-0.4-1.8c-0.4-1-1.3-1.8-2.3-2.3c-0.8-0.4-1.4-0.5-2.3-0.5c-2.1,0-4,1.6-4.5,3.6
		C55.9,191.4,55.8,191.8,55.8,192.1L55.8,192.1L55.8,192.1z"/>
	<path class="st1" d="M72.8,114.3v3.9c0,0.9,0.6,1.7,1.5,1.7h0.3c0.9,0,1.5-0.7,1.5-1.7c0-1.3,0.2-1.1-1.1-1.1
		c0,1.3,0.1,1.7-0.7,1.7c-0.4,0-0.4-0.4-0.4-0.8c0-0.7-0.1-3.5,0.1-4c0.1-0.4,1-0.5,1,0.4v0.7c1.3,0,1.1,0.2,1.1-0.8
		c0-0.9-0.6-1.7-1.5-1.7C73.5,112.6,72.8,113.1,72.8,114.3L72.8,114.3L72.8,114.3z"/>
	<path class="st1" d="M58.8,192.5c0,1.6,1.9,2.4,3.1,1.3c0.9-0.8,0.8-2.3-0.5-2.9c-0.5-0.2-1-0.2-1.5,0
		C59.4,191.1,58.8,191.8,58.8,192.5L58.8,192.5L58.8,192.5z"/>
	<path class="st1" d="M71.3,115.8c-0.1,0-0.3-0.1-0.3-0.2v-2.5c0-0.2,0.2-0.3,0.5-0.1c0.1,0.5,0,2,0,2.5
		C71.6,115.7,71.5,115.8,71.3,115.8L71.3,115.8L71.3,115.8z M70.3,113.2v2.4c0,1.2,2,1.2,2,0v-2.4C72.3,112,70.3,112,70.3,113.2z"/>
	<path class="st1" d="M59.9,0.9v2c0,1.2,1.5,1.1,1.5,0.1V0.9C61.4-0.3,59.9-0.3,59.9,0.9z"/>
	<path class="st1" d="M68,11.2c0,0.5,0.2,0.9,0.8,0.9H71c0.4,0,0.8-0.4,0.8-0.8c0-0.4-0.4-0.7-0.9-0.7h-2.1
		C68.4,10.6,68,10.8,68,11.2z"/>
	<path class="st1" d="M49.6,11.3c0,0.5,0.3,0.8,0.9,0.8c0.7,0,2.1,0.1,2.5-0.2c0.5-0.3,0.4-1.4-0.6-1.4c-0.6,0-2.2-0.1-2.5,0.2
		C49.7,10.9,49.6,11,49.6,11.3C49.6,11.3,49.6,11.3,49.6,11.3z"/>
	<path class="st1" d="M51,6c0,0.6,0.4,0.7,1.2,1.2c0.2,0.2,0.5,0.3,0.7,0.4c0.2,0.1,0.5,0.3,0.8,0.3c0.3,0,0.7-0.3,0.7-0.7
		c0-0.6-0.9-1-1.6-1.4c-0.2-0.1-0.7-0.5-1-0.5C51.4,5.2,51,5.5,51,6L51,6L51,6z"/>
	<path class="st1" d="M51,16.5c0,0.5,0.2,0.8,0.7,0.8c0.4,0,1.2-0.6,1.5-0.8c0.4-0.3,1.7-0.8,1-1.7c-0.5-0.6-1.3,0.1-2,0.6
		C51.8,15.8,51,16.1,51,16.5L51,16.5L51,16.5z"/>
	<path class="st1" d="M66.9,15.4c0,0.3,0.2,0.5,0.4,0.6c0.3,0.2,1.9,1.2,2.1,1.2c0.6,0,0.9-0.3,0.9-0.8c0-0.6-0.9-0.9-1.6-1.4
		c-0.4-0.3-0.7-0.5-1.1-0.5C67.2,14.7,66.9,15.1,66.9,15.4L66.9,15.4L66.9,15.4z"/>
	<path class="st1" d="M54.8,2.1c0,0.4,0.1,0.5,0.3,0.9l0.8,1.4C56.2,5,56.8,5,57.1,4.7c0.6-0.5-0.1-1.3-0.5-2.1
		c-0.1-0.2-0.5-0.9-0.7-1C55.2,1.1,54.8,1.8,54.8,2.1L54.8,2.1L54.8,2.1z"/>
	<path class="st1" d="M66.9,7.1c0,0.4,0.3,0.8,0.7,0.8c0.3,0,1.8-1,2.2-1.2c0.5-0.3,0.5-0.4,0.5-0.9c0-0.3-0.4-0.7-0.8-0.6
		c-0.3,0-1.6,0.9-1.9,1.1C67.3,6.5,66.9,6.7,66.9,7.1L66.9,7.1L66.9,7.1z"/>
	<path class="st1" d="M64,4.2c0,0.7,1,1.1,1.4,0.3L66.2,3c0.2-0.3,0.4-0.5,0.4-0.9c0-0.7-1-1.1-1.4-0.3C64.9,2.2,64,3.8,64,4.2
		L64,4.2L64,4.2z"/>
	<path class="st1" d="M68.3,30.6c0,0.6,0.3,0.9,0.9,0.9c0.4,0,0.9-0.6,1.1-0.9c0.3-0.3,0.9-0.7,0.9-1.2c0-0.4-0.4-0.8-0.8-0.8
		c-0.6,0-1.2,0.8-1.7,1.3C68.5,30.1,68.3,30.2,68.3,30.6L68.3,30.6z"/>
	<path class="st1" d="M54.9,29.3c0,0.3,0.2,0.5,0.3,0.7c0.1,0.2,0.2,0.4,0.4,0.6c0.2,0.4,0.5,1,1,1c0.5,0,0.9-0.4,0.9-0.8
		c0-0.3-0.6-1.3-0.8-1.6c-0.2-0.3-0.3-0.7-0.9-0.7C55.3,28.4,54.9,28.8,54.9,29.3C54.9,29.3,54.9,29.3,54.9,29.3z"/>
	<path class="st1" d="M54.9,47.5c0,0.4,0.4,0.8,0.8,0.8c0.6,0,1-0.9,1.4-1.6c0.1-0.2,0.3-0.5,0.3-0.7c0-0.4-0.4-0.8-0.8-0.8
		c-0.6,0-0.8,0.5-1,1C55.4,46.4,54.9,47.1,54.9,47.5C54.9,47.5,54.9,47.5,54.9,47.5z"/>
	<path class="st1" d="M63.6,45.9c0,0.5,0.4,1,0.6,1.4c0.2,0.4,0.4,1,1,1c0.7,0,1-0.8,0.7-1.3c-0.1-0.1-0.1-0.2-0.2-0.3
		c-0.1-0.2-0.2-0.4-0.4-0.6c-0.2-0.4-0.4-0.9-1-0.9C64,45.1,63.6,45.5,63.6,45.9L63.6,45.9L63.6,45.9z"/>
	<path class="st1" d="M63.6,30.7c0,0.9,1,1.1,1.4,0.6l0.4-0.6c0.3-0.5,0.7-1,0.7-1.4c0-0.8-1-1-1.5-0.5L63.9,30
		C63.8,30.2,63.6,30.4,63.6,30.7L63.6,30.7L63.6,30.7z"/>
	<path class="st1" d="M68.3,46.1c0,0.3,0.1,0.5,0.4,0.8l1,1c0.9,0.9,2.1-0.2,1.2-1.2l-1-1c-0.3-0.3-0.3-0.4-0.8-0.4
		C68.8,45.3,68.3,45.6,68.3,46.1L68.3,46.1L68.3,46.1z"/>
	<path class="st1" d="M50,47.3c0,0.6,0.4,0.9,0.7,0.9c0.6,0,1.2-0.8,1.7-1.3c0.7-0.7,0.2-1.6-0.4-1.6c-0.6,0-1.2,0.8-1.7,1.3
		C50.1,46.8,50,47,50,47.3z"/>
	<path class="st1" d="M50,29.3c0,0.3,0,0.4,0.1,0.6c0.1,0.1,0.1,0.2,0.2,0.3c0.4,0.5,1.2,1.4,1.7,1.4c0.6,0,1.2-0.8,0.5-1.5
		c-0.2-0.2-0.3-0.3-0.5-0.5c-0.3-0.3-0.7-0.8-1.3-0.8C50.4,28.6,50,28.9,50,29.3L50,29.3L50,29.3z"/>
	<path class="st1" d="M59.9,45.7v1.9c0,1.1,1.6,0.9,1.6,0.1v-2c0-0.3-0.4-0.7-0.7-0.7h-0.2C60.2,45,59.9,45.4,59.9,45.7L59.9,45.7
		L59.9,45.7z"/>
	<path class="st1" d="M59.9,29v1.9c0,1.1,1.6,0.9,1.6,0.1v-2c0-0.3-0.4-0.7-0.7-0.7h-0.2C60.2,28.3,59.9,28.7,59.9,29
		C59.9,29,59.9,29,59.9,29z"/>
	<path class="st2" d="M97.3,148.5c0,0.8,0.4,1.4,0.6,1.9c0.2,0.3,0.3,0.5,0.5,0.8c0.2,0.3,0.3,0.6,0.5,0.9l-4.5,0
		c-0.3-0.1-0.6-0.5-0.6-0.9v-9.4c0-0.4,0.3-0.9,0.7-0.9h18.2c0.4,0,0.8,0.4,0.8,0.8v9.7c0,0.3-0.4,0.7-0.7,0.7h-3.1
		c-0.2,0-0.3-0.5-0.5-0.8c-1.1-1.8-1.5-2.6-0.9-4.5c0.3-1,0.6-1,0.6-1.6c0-0.7-1-0.8-1.4,0c-0.1,0.2-0.1,0.3-0.3,0.5
		c-0.1,0.2-0.2,0.3-0.3,0.5c-0.3,0.6-0.6,1.6-0.6,2.4c0,1.1,1.4,2.9,1.6,3.5h-3c-0.3-0.6-1.1-2-1.3-2.5c-0.8-2,0.7-3.7,0.7-4.2
		c0-1.1-1.1-0.8-1.4-0.2c-0.6,1-1.1,1.9-1.1,3.3c0,1.3,1.4,3,1.6,3.6h-3c-0.5-0.9-1.6-2.7-1.6-3.4c0-2,0.9-2.9,0.9-3.2
		c0-0.2,0-0.3-0.1-0.5c-0.3-0.4-1-0.2-1.3,0.3c-0.4,0.7-0.7,1.2-0.9,2C97.4,147.4,97.3,148.1,97.3,148.5L97.3,148.5L97.3,148.5z
		 M92.3,141.7v9.5c0,1.3,1.1,2.2,2.3,2.2h4.4c0,1.6-0.9,2.7-0.9,3c0.1,0.6,1,0.9,1.5,0c0.5-0.9,1-1.8,1-3h3
		c-0.1,0.3-0.1,0.6-0.2,1.1c-0.1,0.3-0.2,0.7-0.4,1c-0.1,0.2-0.1,0.3-0.2,0.4c-0.1,0.2-0.2,0.3-0.2,0.4c0,0.4,0.4,0.6,0.8,0.6
		c0.2,0,0.6-0.3,0.7-0.6c0.5-1,1-1.7,1-3h3.1c-0.1,0.6,0,0.7-0.3,1.6c-0.2,0.7-0.6,1.1-0.6,1.5c0,0.3,0.4,0.6,0.7,0.6
		c0.7,0,1.7-2.4,1.7-3.6c1,0,2.9,0.1,3.7-0.2c0.8-0.4,1.4-1.2,1.4-2.2v-9.2c0-0.7-0.3-1.4-0.7-1.7c-0.5-0.5-1-0.7-1.7-0.7H94.8
		C93.3,139.4,92.3,140.4,92.3,141.7L92.3,141.7L92.3,141.7z"/>
	<path class="st2" d="M105.3,74.2L105.3,74.2z M102.2,75.3c-0.6,0-0.8-0.2-1.2-0.6c-0.8-0.8-1.4-2.1-1.7-3.3
		c-1.1-3.3-1.2-8.8,0-12.3c0.3-0.9,0.6-1.5,1-2.3c0.2-0.3,0.5-0.7,0.7-0.9c0.8-0.8,1.5-0.9,2.3,0c0.3,0.3,0.5,0.7,0.7,1l0.6,1.1
		c0.2,0.4,0.3,0.8,0.5,1.3c0.6,1.7,0.5,2.8,0.8,4.4c0,0.3,0,0.5,0,0.8c0,0.3,0.1,0.5,0.1,0.8c0,0.3,0,0.5-0.1,0.8c0,1,0,1.3-0.2,2.4
		c-0.3,1.9-0.7,3.6-1.6,5.2c-0.1,0.1-0.1,0.2-0.1,0.3l-0.6,0.7C103.1,74.9,102.6,75.3,102.2,75.3L102.2,75.3L102.2,75.3z
		 M105.3,56.4c0.4,0.1,1.7,1.6,2,2c0.7,1.2,1.4,2.6,1.7,4c0.6,3.1,0.3,6.6-1.4,9.4c-0.4,0.7-1.7,2.4-2.3,2.5
		c0.1-0.2,0.1-0.2,0.2-0.4c0.8-1.6,1.1-3,1.4-4.7c0.1-0.4,0.1-0.8,0.2-1.2c0.4-3,0-6.8-0.9-9.6c-0.1-0.3-0.3-0.6-0.4-1
		C105.6,57,105.4,56.6,105.3,56.4L105.3,56.4L105.3,56.4z M105.3,56.4L105.3,56.4z M97,64.5c0,3.1,0.1,4.3,0.9,7.3
		c0.3,1,0.8,2.2,1.4,3c0.3,0.4,0.6,0.8,1,1.2c1.8,1.6,4.8,0.3,6.3-0.9c0.4-0.3,0.8-0.7,1.1-1.1c1.1-1.2,1.8-2.7,2.3-4.3
		c0.7-2.1,0.8-4.7,0.4-7c-0.1-0.6-0.2-1.2-0.4-1.8c-0.6-1.9-1.5-3.5-2.9-4.8c-0.1-0.1-0.2-0.2-0.3-0.3l-0.9-0.7
		c-0.2-0.2-0.5-0.3-0.7-0.4c-1.3-0.7-3.3-1.3-4.6-0.4C98,56.2,97,61.6,97,64.5L97,64.5L97,64.5z"/>
	<path class="st2" d="M96.7,98.6V84.1c0-0.8,0.2-1.5-0.8-1.5c-0.4,0-0.7,0.3-0.7,0.7v17c0,0.4,0.3,0.7,0.6,0.7H113
		c0.8,0,1-1,0.4-1.4c-0.2-0.1-0.6-0.1-0.9-0.1H97.8c0.2-0.3,2.2-2.2,2.7-2.7c0.2-0.2,0.1-0.2,0.4-0.2c1.6,0,11.8,0.1,12.2,0
		c0.8-0.2,0.8-1.4-0.3-1.5c-1.2-0.1-3.8,0-5.1,0c-2.2,0-4.5,0-6.7,0c0.1-0.3,0-7.3,0-8.3c0-0.8,0.1-3.5-0.1-4c-0.3-0.5-1-0.5-1.3,0
		c-0.2,0.4-0.1,1.5-0.1,2c0,3.4,0,7,0,10.4c0,0.5,0,0.4-0.3,0.7c-0.2,0.2-0.3,0.3-0.5,0.5C98.4,96.9,96.9,98.5,96.7,98.6L96.7,98.6
		L96.7,98.6z"/>
	<path class="st2" d="M94.7,167h17.7c0.3,0,0.7,0,0.9,0.1c0.4,0.1,0.3,0.1,0.5,0.5l1.3,2.6c0.1,0.2,0.2,0.4,0.3,0.6
		c0.1,0.2,0.3,0.5,0.3,0.7H91.4c0-0.2,1.8-3.5,2-3.9c0.2-0.3,0.1-0.4,0.5-0.5C94.1,167,94.4,167,94.7,167L94.7,167L94.7,167z
		 M89.4,172c0,0.4,0.3,0.7,0.7,0.8c0.3,0.2,0.8,0.3,1.2,0.3h24.6c1,0,2.3-0.5,1.8-1.6c-0.2-0.3-2.6-5.2-2.8-5.4
		c-0.3-0.4-1.5-0.7-2.1-0.7H94.4c-0.8,0-1.8,0.3-2.1,0.8c-0.2,0.2-0.6,1.1-0.8,1.4c-0.1,0.2-0.2,0.3-0.3,0.5l-1.5,2.9
		C89.7,171.2,89.4,171.7,89.4,172L89.4,172L89.4,172z"/>
	<path class="st2" d="M95.9,120.7h5.4v7h-5.4V120.7z M95.9,112h5.4v7h-5.4V112z M94.5,112.2v6.6c0,0.4,0.1,0.8,0.3,1.1
		c-0.2,0.2-0.3,0.7-0.3,1v6.5c0,1,0.5,1.6,1.5,1.6c1,0,5.2,0.1,5.9-0.1c0.2,0,0.4-0.2,0.5-0.3c0.2-0.2,0.2-0.3,0.3-0.5
		c0.1-0.2,0.1-0.4,0.1-0.7v-6.5c0-0.2-0.1-0.4-0.1-0.6c-0.1-0.6-0.3-0.3-0.1-0.7l0.2-0.8v-6.6c0-0.4-0.1-0.9-0.4-1.2c0,0,0,0-0.1,0
		c-0.3-0.2-0.6-0.3-1-0.3H96c-0.2,0-0.4,0.1-0.6,0.1c-0.1,0-0.4,0.2-0.5,0.3C94.6,111.3,94.5,111.8,94.5,112.2L94.5,112.2
		L94.5,112.2z"/>
	<path class="st2" d="M95.6,41.9v-7.1c0-0.2,0.2-0.4,0.4-0.4h15.7c0.2,0,0.4,0.2,0.4,0.3V42c0,0.1,0,0.1-0.1,0.2
		c0,0-0.2,0.1-0.2,0.1h-16C95.7,42.3,95.6,42.1,95.6,41.9L95.6,41.9L95.6,41.9z M94.1,35.1v6.5c0,0.7,0.2,1.1,0.5,1.5
		c0.3,0.3,0.7,0.6,1.4,0.6h15.6c0.3,0,0.6,0,0.8-0.1c0.3-0.1,0.5-0.2,0.7-0.5c0,0,0.1-0.1,0.1-0.1c0.2-0.2,0.4-0.7,0.4-1v-7.2
		c0-0.9-0.8-1.8-1.8-1.8H95.9C94.9,33,94.1,33.9,94.1,35.1L94.1,35.1L94.1,35.1z"/>
	<path class="st2" d="M105.6,120.7h5.5v7h-5.5V120.7z M105.6,112h5.5v7h-5.5V112z M104.2,112.1c0,1.2-0.1,6.5,0.1,7.2
		c0.1,0.2,0.1,0.3,0.2,0.5c-0.2,0.3-0.3,0.5-0.3,1v6.8c0,0.8,0.6,1.4,1.4,1.4h5.4c0.3,0,0.6-0.1,0.8-0.2l0.2-0.2
		c0.1-0.1,0.2-0.3,0.3-0.5c0.1-0.2,0.1-0.4,0.1-0.6v-6.8c0-0.2,0-0.3-0.1-0.5c-0.1-0.3-0.1-0.2-0.2-0.4c0-0.1,0.3-0.4,0.3-1v-6.8
		c0-0.9-0.6-1.5-1.5-1.5h-5.3c-0.4,0-0.8,0.1-1.1,0.4C104.3,111.3,104.2,111.6,104.2,112.1L104.2,112.1L104.2,112.1z"/>
	<path class="st2" d="M104.7,21.3c-1.1,0-1.9,0.2-2.4-0.5c-0.3-0.3-0.3-0.5-0.3-1.1c0-0.9,0-1.9,0-2.8c1.2,0.3,2.1,0.5,3.4,0.1
		c0.2,0,0.3-0.1,0.4-0.1c0,0.9,0,1.8,0,2.7c0,0.5,0,0.8-0.3,1.1C105.4,20.9,105,21.3,104.7,21.3L104.7,21.3L104.7,21.3z M104,15.8
		c-0.7,0-1.3-0.1-1.8-0.4c-1-0.5-0.6-0.3-1.4-0.9c-0.1-0.1-0.4-0.5-0.5-0.6c-0.7-1-0.9-1.7-0.9-3c0-0.8,0.2-1.1,0.4-1.7
		c0.3-0.6,0.9-1.4,1.4-1.8c0.4-0.3,0.6-0.4,1-0.6c0.8-0.4,1.1-0.3,2-0.3c1.2,0,2.2,0.6,3,1.4c0.4,0.4,0.6,0.7,0.9,1.3
		c0.4,0.8,0.5,2.1,0.3,3C107.9,14.3,106.1,15.8,104,15.8L104,15.8L104,15.8z M97.9,11.2c0,1.5,0.6,3,1.4,3.9c0.5,0.6,0.4,0.5,1.1,1
		c0.3,0.2,0.1,0.3,0.1,0.9v2.8c0,1,0.4,1.7,0.9,2.2c0.7,0.7,1.5,0.7,2.5,0.7c1.3,0,2.4-0.4,2.9-1.4c0.2-0.3,0.3-0.7,0.3-1.1
		c0-0.7,0.1-3.4,0-3.9c0.4-0.2,0.5-0.4,0.7-0.6c1.1-0.9,1.9-2.6,1.9-4c0-1.2,0-2-0.6-3.1c-1.9-3.7-6.7-4.4-9.5-1.6
		c-0.3,0.3-0.5,0.5-0.7,0.8C98.4,8.8,97.9,9.9,97.9,11.2L97.9,11.2L97.9,11.2z"/>
	<path class="st2" d="M94.1,191.5c0,0.7,0.1,1.6,0.2,2.2c0.2,0.9,0.6,1.8,1,2.6c0.4,0.7,0.6,0.9,1,1.4c0.8,1.1,2,0,1.2-0.9
		c-1.2-1.3-2-3.4-2-5.2c0-1.8,0.4-3.3,1.4-4.8l0.5-0.7c0.1-0.1,0.1-0.1,0.2-0.2c1.3-1.5,3.2-2.5,5.3-2.8c1.4-0.2,3.1,0.1,4.4,0.7
		c1.8,0.9,3,2,3.9,3.8c0.5,0.9,0.8,1.9,0.9,3c0,0.2,0,0.4,0,0.6c0,0.3,0,0.3,0,0.6c0,1.6-0.7,3.6-1.7,4.7c-0.5,0.5-0.5,0.5-0.5,1
		c0,0.3,0.6,1.1,1.4,0.2c1.2-1.4,2.3-4,2.3-5.8c0-1.8-0.1-3.1-0.9-4.8c-1.1-2.1-2.5-3.5-4.6-4.6c-2-1-4.7-1.3-6.9-0.6
		c-0.6,0.2-0.8,0.2-1.3,0.5c-0.6,0.3-0.5,0.2-1.2,0.6c-0.7,0.4-1.8,1.3-2.2,1.9c-0.7,0.9-1.1,1.3-1.6,2.5c-0.1,0.3-0.2,0.5-0.3,0.8
		C94.3,189.4,94.1,190.3,94.1,191.5L94.1,191.5L94.1,191.5z"/>
	<path class="st2" d="M99,192.1v11.1c0,1.2-0.1,1.8,0.9,1.8c0.7,0,0.6-1.1,0.6-1.8v-11c0-0.6,0-0.7,0.2-1.1c0.1-0.3,0.2-0.5,0.4-0.8
		l0.5-0.5c1.1-1.1,3.2-1.1,4.4-0.1c1.4,1.2,1.2,2.1,1.2,3.7v9.9c0,0.5,0,0.8,0,1.2c0,0.9,1.3,0.9,1.4,0.1c0-0.3,0.1-0.7,0.1-1.1
		v-11.2c0-0.6-0.2-1.3-0.4-1.8c-0.4-1-1.3-1.8-2.3-2.3c-0.8-0.4-1.4-0.5-2.3-0.5c-2.1,0-4,1.6-4.5,3.6C99.1,191.4,99,191.8,99,192.1
		L99,192.1L99,192.1z"/>
	<path class="st2" d="M116,114.3v3.9c0,0.9,0.6,1.7,1.5,1.7h0.3c0.9,0,1.5-0.7,1.5-1.7c0-1.3,0.2-1.1-1.1-1.1c0,1.3,0.1,1.7-0.7,1.7
		c-0.4,0-0.4-0.4-0.4-0.8c0-0.7-0.1-3.5,0.1-4c0.1-0.4,1-0.5,1,0.4v0.7c1.3,0,1.1,0.2,1.1-0.8c0-0.9-0.6-1.7-1.5-1.7
		C116.7,112.6,116,113.1,116,114.3L116,114.3L116,114.3z"/>
	<path class="st2" d="M102.1,192.5c0,1.6,1.9,2.4,3.1,1.3c0.9-0.8,0.8-2.3-0.5-2.9c-0.5-0.2-1-0.2-1.5,0
		C102.6,191.1,102.1,191.8,102.1,192.5L102.1,192.5L102.1,192.5z"/>
	<path class="st2" d="M114.5,115.8c-0.1,0-0.3-0.1-0.3-0.2v-2.5c0-0.2,0.2-0.3,0.5-0.1c0.1,0.5,0,2,0,2.5
		C114.8,115.7,114.7,115.8,114.5,115.8L114.5,115.8L114.5,115.8z M113.6,113.2v2.4c0,1.2,2,1.2,2,0v-2.4
		C115.5,112,113.6,112,113.6,113.2z"/>
	<path class="st2" d="M103.1,0.9v2c0,1.2,1.5,1.1,1.5,0.1V0.9C104.6-0.3,103.1-0.3,103.1,0.9z"/>
	<path class="st2" d="M111.3,11.2c0,0.5,0.2,0.9,0.8,0.9h2.2c0.4,0,0.8-0.4,0.8-0.8c0-0.4-0.4-0.7-0.9-0.7h-2.1
		C111.7,10.6,111.3,10.8,111.3,11.2z"/>
	<path class="st2" d="M92.8,11.3c0,0.5,0.3,0.8,0.9,0.8c0.7,0,2.1,0.1,2.5-0.2c0.5-0.3,0.4-1.4-0.6-1.4c-0.6,0-2.2-0.1-2.5,0.2
		C93,10.9,92.8,11,92.8,11.3C92.8,11.3,92.8,11.3,92.8,11.3z"/>
	<path class="st2" d="M94.2,6c0,0.6,0.4,0.7,1.2,1.2c0.2,0.2,0.5,0.3,0.7,0.4c0.2,0.1,0.5,0.3,0.8,0.3c0.3,0,0.7-0.3,0.7-0.7
		c0-0.6-0.9-1-1.6-1.4c-0.2-0.1-0.7-0.5-1-0.5C94.7,5.2,94.2,5.5,94.2,6L94.2,6L94.2,6z"/>
	<path class="st2" d="M94.3,16.5c0,0.5,0.2,0.8,0.7,0.8c0.4,0,1.2-0.6,1.5-0.8c0.4-0.3,1.7-0.8,1-1.7c-0.5-0.6-1.3,0.1-2,0.6
		C95,15.8,94.3,16.1,94.3,16.5L94.3,16.5L94.3,16.5z"/>
	<path class="st2" d="M110.1,15.4c0,0.3,0.2,0.5,0.4,0.6c0.3,0.2,1.9,1.2,2.1,1.2c0.6,0,0.9-0.3,0.9-0.8c0-0.6-0.9-0.9-1.6-1.4
		c-0.4-0.3-0.7-0.5-1.1-0.5C110.4,14.7,110.1,15.1,110.1,15.4L110.1,15.4L110.1,15.4z"/>
	<path class="st2" d="M98,2.1c0,0.4,0.1,0.5,0.3,0.9l0.8,1.4C99.5,5,100,5,100.4,4.7c0.6-0.5-0.1-1.3-0.5-2.1
		c-0.1-0.2-0.5-0.9-0.7-1C98.5,1.1,98,1.8,98,2.1L98,2.1L98,2.1z"/>
	<path class="st2" d="M110.2,7.1c0,0.4,0.3,0.8,0.7,0.8c0.3,0,1.8-1,2.2-1.2c0.5-0.3,0.5-0.4,0.5-0.9c0-0.3-0.4-0.7-0.8-0.6
		c-0.3,0-1.6,0.9-1.9,1.1C110.6,6.5,110.1,6.7,110.2,7.1L110.2,7.1L110.2,7.1z"/>
	<path class="st2" d="M107.2,4.2c0,0.7,1,1.1,1.4,0.3l0.8-1.4c0.2-0.3,0.4-0.5,0.4-0.9c0-0.7-1-1.1-1.4-0.3
		C108.2,2.2,107.2,3.8,107.2,4.2L107.2,4.2L107.2,4.2z"/>
	<path class="st2" d="M111.6,30.6c0,0.6,0.3,0.9,0.9,0.9c0.4,0,0.9-0.6,1.1-0.9c0.3-0.3,0.9-0.7,0.9-1.2c0-0.4-0.4-0.8-0.8-0.8
		c-0.6,0-1.2,0.8-1.7,1.3C111.7,30.1,111.6,30.2,111.6,30.6L111.6,30.6z"/>
	<path class="st2" d="M98.2,29.3c0,0.3,0.2,0.5,0.3,0.7c0.1,0.2,0.2,0.4,0.4,0.6c0.2,0.4,0.5,1,1,1c0.5,0,0.9-0.4,0.9-0.8
		c0-0.3-0.6-1.3-0.8-1.6c-0.2-0.3-0.3-0.7-0.9-0.7C98.6,28.4,98.2,28.8,98.2,29.3C98.2,29.3,98.2,29.3,98.2,29.3z"/>
	<path class="st2" d="M98.2,47.5c0,0.4,0.4,0.8,0.8,0.8c0.6,0,1-0.9,1.4-1.6c0.1-0.2,0.3-0.5,0.3-0.7c0-0.4-0.4-0.8-0.8-0.8
		c-0.6,0-0.8,0.5-1,1C98.7,46.4,98.2,47.1,98.2,47.5L98.2,47.5z"/>
	<path class="st2" d="M106.9,45.9c0,0.5,0.4,1,0.6,1.4c0.2,0.4,0.4,1,1,1c0.7,0,1-0.8,0.7-1.3c-0.1-0.1-0.1-0.2-0.2-0.3
		c-0.1-0.2-0.2-0.4-0.4-0.6c-0.2-0.4-0.4-0.9-1-0.9C107.3,45.1,106.9,45.5,106.9,45.9L106.9,45.9L106.9,45.9z"/>
	<path class="st2" d="M106.9,30.7c0,0.9,1,1.1,1.4,0.6l0.4-0.6c0.3-0.5,0.7-1,0.7-1.4c0-0.8-1-1-1.5-0.5l-0.7,1.3
		C107.1,30.2,106.9,30.4,106.9,30.7L106.9,30.7L106.9,30.7z"/>
	<path class="st2" d="M111.6,46.1c0,0.3,0.1,0.5,0.4,0.8l1,1c0.9,0.9,2.1-0.2,1.2-1.2l-1-1c-0.3-0.3-0.3-0.4-0.8-0.4
		C112,45.3,111.6,45.6,111.6,46.1L111.6,46.1L111.6,46.1z"/>
	<path class="st2" d="M93.2,47.3c0,0.6,0.4,0.9,0.7,0.9c0.6,0,1.2-0.8,1.7-1.3c0.7-0.7,0.2-1.6-0.4-1.6c-0.6,0-1.2,0.8-1.7,1.3
		C93.4,46.8,93.2,47,93.2,47.3z"/>
	<path class="st2" d="M93.2,29.3c0,0.3,0,0.4,0.1,0.6c0.1,0.1,0.1,0.2,0.2,0.3c0.4,0.5,1.2,1.4,1.7,1.4c0.6,0,1.2-0.8,0.5-1.5
		c-0.2-0.2-0.3-0.3-0.5-0.5c-0.3-0.3-0.7-0.8-1.3-0.8C93.6,28.6,93.2,28.9,93.2,29.3L93.2,29.3L93.2,29.3z"/>
	<path class="st2" d="M103.1,45.7v1.9c0,1.1,1.6,0.9,1.6,0.1v-2c0-0.3-0.4-0.7-0.7-0.7h-0.2C103.5,45,103.1,45.4,103.1,45.7
		L103.1,45.7L103.1,45.7z"/>
	<path class="st2" d="M103.1,29v1.9c0,1.1,1.6,0.9,1.6,0.1v-2c0-0.3-0.4-0.7-0.7-0.7h-0.2C103.5,28.3,103.1,28.7,103.1,29L103.1,29z
		"/>
</g>
</svg>
