<?xml version="1.0" encoding="UTF-8"?>
<!DOCTYPE svg PUBLIC "-//W3C//DTD SVG 1.1//EN" "http://www.w3.org/Graphics/SVG/1.1/DTD/svg11.dtd">
<!-- Creator: CorelDRAW 2017 -->
<svg xmlns="http://www.w3.org/2000/svg" xml:space="preserve" width="745.112px" height="562.574px" version="1.1" style="shape-rendering:geometricPrecision; text-rendering:geometricPrecision; image-rendering:optimizeQuality; fill-rule:evenodd; clip-rule:evenodd"
viewBox="0 0 38390.51 28985.57"
 xmlns:xlink="http://www.w3.org/1999/xlink"
 xmlns:sketch="http://www.bohemiancoding.com/sketch/ns"
 enable-background="new 0 0 91 91">
 <defs>
  <style type="text/css">
   <![CDATA[
    .str1 {stroke:#FEFEFE;stroke-width:87.67;stroke-miterlimit:22.9256}
    .str0 {stroke:#FEFEFE;stroke-width:87.75;stroke-miterlimit:22.9256}
    .str2 {stroke:#2B2A29;stroke-width:29.21;stroke-miterlimit:22.9256}
    .fil5 {fill:none}
    .fil30 {fill:#2B2A29}
    .fil1 {fill:black}
    .fil0 {fill:#2C8A7A}
    .fil15 {fill:#2C8A7B}
    .fil18 {fill:#368C7E}
    .fil11 {fill:#676767}
    .fil21 {fill:#9AC5BE}
    .fil16 {fill:#AEAEAE}
    .fil26 {fill:#B1B1B1}
    .fil17 {fill:#BFBFBF}
    .fil10 {fill:#C3A573}
    .fil32 {fill:#D4D4D4}
    .fil9 {fill:#D9D9D9}
    .fil28 {fill:#E5E5E5}
    .fil6 {fill:#E9416D}
    .fil24 {fill:#E94870}
    .fil27 {fill:#EAEAEA}
    .fil2 {fill:#FEFEFE}
    .fil31 {fill:#FEFEFE;fill-rule:nonzero}
    .fil7 {fill:#2B2A29;fill-rule:nonzero}
    .fil3 {fill:black;fill-rule:nonzero}
    .fil12 {fill:#2B2A29;fill-rule:nonzero}
    .fil4 {fill:#2C8A7A;fill-rule:nonzero}
    .fil23 {fill:#368C7E;fill-rule:nonzero}
    .fil22 {fill:#9AC5BE;fill-rule:nonzero}
    .fil8 {fill:#AEAEAE;fill-rule:nonzero}
    .fil14 {fill:#C3A573;fill-rule:nonzero}
    .fil33 {fill:#D4D4D4;fill-rule:nonzero}
    .fil29 {fill:#E5E5E5;fill-rule:nonzero}
    .fil25 {fill:#E6E6E6;fill-rule:nonzero}
    .fil13 {fill:#E9416D;fill-rule:nonzero}
    .fil34 {fill:#E9416D;fill-rule:nonzero}
    .fil19 {fill:#EDE4D5;fill-rule:nonzero}
    .fil20 {fill:#FBD9E2;fill-rule:nonzero}
   ]]>
  </style>
 </defs>
 <g id="Слой_x0020_1">
  <metadata id="CorelCorpID_0Corel-Layer"/>
  <path class="fil0" d="M6681.38 11254.78c719.86,0 1304.75,584.87 1304.75,1304.73 0,719.86 -584.87,1304.75 -1304.75,1304.75 -719.85,0 -1304.73,-584.87 -1304.73,-1304.75 0,-719.85 584.87,-1304.73 1304.73,-1304.73zm-258.68 1765.9l0 -922.3 794.83 461.15 -794.83 461.17 0 -0.01z"/>
  <g id="_2591183054640">
   <rect class="fil1" x="9235.37" y="11916.88" width="1455.67" height="1309.86"/>
   <path class="fil2" d="M9885.52 11468.71c619.08,0 1121.03,501.94 1121.03,1122.22 0,619.08 -501.94,1121.03 -1121.03,1121.03 -620.27,0 -1122.22,-501.94 -1122.22,-1121.03 0,-620.27 501.94,-1122.22 1122.22,-1122.22zm-221.09 1519l0 -793.56 681.22 396.79 -681.22 396.79 0 -0.01z"/>
  </g>
  <path class="fil3" d="M10671.43 28064.06l596.8 0 0 0 66.31 0c33.14,0 66.31,0 99.46,-33.15 0,-33.14 33.14,-66.31 33.14,-99.45 0,-33.14 -33.14,-66.31 -33.14,-66.31 -33.15,-33.15 -66.32,-66.32 -99.46,-66.32l0 0 -663.11 0 0 -99.45 663.11 0 0 0 66.31 0c33.15,0 66.32,-33.14 99.46,-66.32 33.14,0 33.14,-33.14 33.14,-66.31 0,-33.14 0,-66.31 -33.14,-99.45 -33.14,-33.15 -66.31,-33.15 -99.46,-33.15l-1160.42 0 66.31 -99.45 33.14 -99.46c99.46,-165.75 165.77,-331.55 165.77,-464.18 0,-99.45 -33.14,-198.93 -99.45,-232.07l0 0c-33.15,-33.14 -66.32,-33.14 -99.46,-33.14 0,0 -33.14,0 -33.14,0 -33.14,33.14 -33.14,33.14 -66.31,66.31 -33.15,66.31 -33.15,132.63 -33.15,198.93l0 0c0,165.77 -99.45,298.39 -198.93,431.01 -132.61,132.63 -265.24,198.93 -331.55,232.07l0 1392.54 1525.15 0c33.14,0 66.32,0 66.32,-33.14 33.14,0 33.14,-33.14 33.14,-66.31 0,-66.32 0,-66.32 -33.14,-99.46 0,-33.14 -33.15,-33.14 -66.32,-33.14l0 0 -497.31 0 0 -132.63 497.31 0 0 0 99.46 0c33.14,0 66.31,-33.14 66.31,-33.14 33.14,-33.14 66.31,-66.31 66.31,-99.45 0,-33.14 -33.14,-66.32 -66.31,-99.46 0,-33.14 -33.14,-33.14 -66.31,-33.14l0 0 -596.8 0 0 -132.63 -0.03 -0.19zm-1160.44 -629.94c-165.77,0 -331.55,0 -497.31,0l0 1392.53 497.31 0 0 -1392.53zm2022.48 331.52c33.14,66.32 66.31,99.46 66.31,165.77 0,66.31 -33.14,132.63 -99.45,198.93 0,0 -33.14,33.14 -33.14,33.14 33.14,33.14 33.14,99.46 33.14,165.77 0,66.31 0,132.63 -66.31,165.77 -33.15,33.14 -33.15,66.31 -66.32,66.31 33.14,33.14 33.14,99.46 33.14,165.77 0,66.31 -33.14,132.63 -66.31,165.77 -33.14,33.14 -99.45,66.31 -165.77,66.31l-2287.72 0 0 -1657.78 729.43 0c66.31,0 165.75,-66.31 265.24,-198.93 99.45,-99.46 165.77,-232.07 165.77,-331.56l0 0c0,-99.45 33.14,-198.93 66.31,-265.24 33.14,-33.14 33.14,-66.31 66.31,-99.45 33.15,0 99.46,-33.15 132.63,-33.15 33.14,0 99.46,0 165.77,33.15l0 0c99.45,99.45 165.77,198.93 165.77,364.69 -33.14,165.77 -66.32,331.56 -165.77,530.5l928.35 0c66.32,0 132.63,33.14 198.93,66.31 33.15,66.32 66.32,99.46 66.32,198.93 0,66.32 -33.14,132.63 -66.32,165.77 -33.14,33.14 -33.14,33.14 -66.31,33.14l0 0.12z"/>
  <path class="fil4" d="M7657.47 28064.06l596.8 0 0 0 66.31 0c33.15,0 66.32,0 99.46,-33.15 0,-33.14 33.14,-66.31 33.14,-99.45 0,-33.14 -33.14,-66.31 -33.14,-66.31 -33.14,-33.15 -66.31,-66.32 -99.46,-66.32l0 0 -663.11 0 0 -99.45 663.11 0 0 0 66.32 0c33.14,0 66.31,-33.14 99.45,-66.32 33.14,0 33.14,-33.14 33.14,-66.31 0,-33.14 0,-66.31 -33.14,-99.45 -33.14,-33.15 -66.31,-33.15 -99.45,-33.15l-1160.44 0 66.31 -99.45 33.14 -99.46c99.46,-165.75 165.77,-331.55 165.77,-464.18 0,-99.45 -33.14,-198.93 -99.45,-232.07l0 0c-33.14,-33.14 -66.32,-33.14 -99.46,-33.14 0,0 -33.14,0 -33.14,0 -33.14,33.14 -33.14,33.14 -66.31,66.31 -33.14,66.31 -33.14,132.63 -33.14,198.93l0 0c0,165.77 -99.46,298.39 -198.93,431.01 -132.63,132.63 -265.26,198.93 -331.56,232.07l0 1392.54 1525.17 0c33.14,0 66.31,0 66.31,-33.14 33.14,0 33.14,-33.14 33.14,-66.31 0,-66.32 0,-66.32 -33.14,-99.46 0,-33.14 -33.14,-33.14 -66.31,-33.14l0 0 -497.33 0 0 -132.63 497.33 0 0 0 99.45 0c33.14,0 66.31,-33.14 66.31,-33.14 33.15,-33.14 66.32,-66.31 66.32,-99.45 0,-33.14 -33.15,-66.32 -66.32,-99.46 0,-33.14 -33.14,-33.14 -66.31,-33.14l0 0 -596.8 0 0 -132.63 -0.03 -0.19zm-1160.44 -629.94c-165.75,0 -331.55,0 -497.31,0l0 1392.53 497.31 0 0 -1392.53zm2022.48 331.52c33.15,66.32 66.32,99.46 66.32,165.77 0,66.31 -33.15,132.63 -99.46,198.93 0,0 -33.14,33.14 -33.14,33.14 33.14,33.14 33.14,99.46 33.14,165.77 0,66.31 0,132.63 -66.31,165.77 -33.14,33.14 -33.14,66.31 -66.31,66.31 33.14,33.14 33.14,99.46 33.14,165.77 0,66.31 -33.14,132.63 -66.32,165.77 -33.14,33.14 -99.45,66.31 -165.75,66.31l-2287.74 0 0 -1657.78 729.43 0c66.31,0 165.77,-66.31 265.24,-198.93 99.46,-99.46 165.77,-232.07 165.77,-331.56l0 0c0,-99.45 33.14,-198.93 66.31,-265.24 33.14,-33.14 33.14,-66.31 66.32,-99.45 33.14,0 99.45,-33.15 132.61,-33.15 33.14,0 99.46,0 165.77,33.15l0 0c99.46,99.45 165.77,198.93 165.77,364.69 -33.14,165.77 -66.31,331.56 -165.77,530.5l928.36 0c66.31,0 132.61,33.14 198.93,66.31 33.14,66.32 66.31,99.46 66.31,198.93 0,66.32 -33.14,132.63 -66.31,165.77 -33.15,33.14 -33.15,33.14 -66.32,33.14l0 0.12z"/>
  <g id="_2591183056784">
   <polygon class="fil5 str0" points="27725.37,10819.87 25841.82,10819.87 25841.82,8936.33 27725.37,8936.33 "/>
   <polygon class="fil2" points="26568.07,10170.36 26857.41,9881.05 26568.07,9585.82 26656.65,9497.26 27034.54,9881.05 26656.65,10258.94 "/>
  </g>
  <path class="fil6" d="M17877.47 3471.4l-144.37 -144.37c40.5,-54.56 65.14,-121.48 65.14,-195.41 0,-179.57 -146.12,-325.69 -325.69,-325.69 -179.57,0 -325.69,146.12 -325.69,325.69 0,179.57 146.12,325.69 325.69,325.69 73.93,0 140.84,-24.64 195.41,-65.14l144.37 144.37c8.79,8.79 17.61,14.09 33.46,14.09 26.41,0 45.77,-19.37 45.77,-45.77 0,-10.56 -1.75,-21.12 -14.09,-33.46zm-637.29 -339.77c0,-128.51 103.87,-232.38 232.38,-232.38 128.52,0 232.39,103.87 232.39,232.38 0,128.52 -103.87,232.39 -232.39,232.39 -128.51,0 -232.38,-103.87 -232.38,-232.39z"/>
  <polygon class="fil7" points="9633.13,15431.5 9800.53,15598.91 10210.99,15188.48 10292.82,15270.31 9800.53,15762.54 9551.3,15513.34 "/>
  <path class="fil3" d="M13847.36 17945.34l30.06 0c30.06,-30.06 120.29,30.06 240.57,90.2 90.2,30.06 180.43,60.14 180.43,60.14l0 0 0 0c30.06,0 120.29,-60.14 180.43,-120.29 90.21,-30.06 180.44,-90.2 210.5,-90.2l30.06 0c30.06,30.06 90.2,120.29 120.29,240.57 30.06,90.21 60.14,180.44 60.14,180.44l30.06 0 0 0c0,0 90.2,30.06 210.49,60.14 90.21,0 180.44,30.06 210.5,60.14l0 30.06c30.06,30.06 -30.06,120.29 -60.14,240.57 -60.14,90.2 -90.2,180.43 -90.2,180.43l0 0 0 0c0,30.06 60.14,120.29 120.29,180.44 60.14,90.2 120.29,180.43 90.2,210.49l0 30.06c0,30.06 -120.29,90.2 -210.49,120.29 -90.21,30.06 -180.44,60.14 -180.44,60.14l-30.06 30.06 0 0c0,0 -30.06,60.14 -30.06,120.29l270.63 1503.61 -481.15 -360.86 -270.63 390.92 -150.36 -1142.74 -270.63 872.08 -300.72 -390.93 -330.79 120.3 300.72 -1082.61c-30.06,0 -90.2,0 -120.29,0 -120.29,-30.06 -210.49,-60.14 -240.57,-90.2l0 0c-30.06,-60.14 30.06,-150.34 90.2,-270.63 30.06,-60.14 60.14,-150.34 60.14,-180.43l0 0 0 0c0,-30.07 -60.14,-90.21 -120.29,-180.44 -30.06,-90.2 -90.2,-180.43 -90.2,-210.49l0 0c30.06,-60.14 120.29,-90.2 240.57,-150.34 90.2,-30.06 180.43,-60.14 180.43,-60.14l0 0 0 0c0,-30.06 30.07,-120.29 60.16,-210.5 0,-120.29 30.06,-210.49 60.14,-240.57zm1052.51 1954.7c-30.06,30.06 -30.06,30.06 -30.06,30.06l0 0c-60.14,30.07 -150.34,-30.06 -270.64,-60.14 -60.14,-60.14 -150.34,-90.2 -180.43,-90.2l0 0 0 0c0,0 0,0 -30.06,0l180.43 1052.51 150.36 -210.49 330.77 240.57 -150.34 -962.31 -0.03 0zm-661.59 0c-90.2,60.14 -180.43,120.29 -210.49,90.21l0 0c-60.14,0 -90.2,-120.3 -150.34,-210.5 0,-90.2 -30.07,-150.34 -60.14,-180.43l-210.5 811.93 210.5 -60.14 210.49 270.63 210.49 -721.73 0 0.03zm30.09 -180.43l120.29 -60.14c0,0 30.06,0 30.06,0 60.14,0 150.36,60.14 240.59,90.2 90.2,30.06 120.29,90.2 150.34,90.2l0 -30.06c0,0 0,-60.14 30.06,-120.29 0,-120.29 30.06,-240.57 60.14,-270.63 60.14,-60.14 150.34,-90.2 240.57,-120.29 90.2,-30.06 150.36,-30.06 150.36,-30.06l0 -30.07c30.06,0 -30.07,-30.06 -90.21,-90.2 -60.14,-90.2 -120.29,-210.49 -120.29,-270.63 0,-30.06 60.14,-150.34 90.2,-240.57 30.07,-60.14 90.21,-120.3 90.21,-150.36l-30.07 0c0,0 -60.14,0 -120.29,0 -120.29,-30.06 -240.57,-60.14 -270.63,-90.2 -60.14,-30.06 -90.2,-150.34 -120.29,-240.57 -30.06,-90.2 -30.06,-150.34 -30.06,-150.34l-30.06 0c0,0 -30.06,30.06 -90.21,90.2 -90.2,60.14 -210.49,120.29 -270.63,120.29 -30.06,0 -150.34,-30.06 -240.57,-90.2 -60.14,-30.06 -120.29,-90.2 -150.34,-60.14l0 0c0,0 0,60.14 0,120.29 -30.07,120.29 -60.16,240.57 -90.21,270.63 -30.06,60.14 -150.34,90.2 -240.57,120.29 -90.2,30.07 -150.34,30.07 -150.34,60.16l0 0c0,0 30.06,30.06 90.2,120.29 60.14,90.2 120.29,180.43 120.29,240.57 0,60.14 -30.06,150.34 -90.2,240.57 -30.06,90.2 -90.2,120.29 -60.14,150.34l0 0c0,0 60.14,0 120.29,30.07 120.29,0 240.57,30.06 270.63,60.14 60.16,60.14 90.21,150.34 120.3,240.57 30.06,90.2 30.06,150.34 60.14,150.34l0 0c0,30.06 30.06,-30.06 120.29,-90.2 30.06,0 60.14,-30.06 90.2,-60.14l-0.03 -0.06z"/>
  <path class="fil4" d="M17423.53 17945.34l30.06 0c30.06,-30.06 120.29,30.06 240.57,90.2 90.2,30.06 180.43,60.14 180.43,60.14l0 0 0 0c30.06,0 120.29,-60.14 180.43,-120.29 90.21,-30.06 180.44,-90.2 210.5,-90.2l30.06 0c30.06,30.06 90.2,120.29 120.29,240.57 30.06,90.21 60.14,180.44 60.14,180.44l30.06 0 0 0c0,0 90.2,30.06 210.49,60.14 90.21,0 180.44,30.06 210.5,60.14l0 30.06c30.06,30.06 -30.06,120.29 -60.14,240.57 -60.14,90.2 -90.21,180.43 -90.21,180.43l0 0 0 0c0,30.06 60.16,120.29 120.3,180.44 60.14,90.2 120.29,180.43 90.2,210.49l0 30.06c0,30.06 -120.29,90.2 -210.5,120.29 -90.2,30.06 -180.43,60.14 -180.43,60.14l-30.06 30.06 0 0c0,0 -30.06,60.14 -30.06,120.29l270.63 1503.61 -481.15 -360.86 -270.63 390.92 -150.36 -1142.74 -270.63 872.08 -300.72 -390.93 -330.79 120.3 300.72 -1082.61c-30.06,0 -90.2,0 -120.29,0 -120.29,-30.06 -210.49,-60.14 -240.57,-90.2l0 0c-30.06,-60.14 30.06,-150.34 90.2,-270.63 30.06,-60.14 60.14,-150.34 60.14,-180.43l0 0 0 0c0,-30.07 -60.14,-90.21 -120.29,-180.44 -30.06,-90.2 -90.2,-180.43 -90.2,-210.49l0 0c30.06,-60.14 120.29,-90.2 240.57,-150.34 90.2,-30.06 180.43,-60.14 180.43,-60.14l0 0 0 0c0,-30.06 30.07,-120.29 60.16,-210.5 0,-120.29 30.06,-210.49 60.14,-240.57zm1052.51 1954.7c-30.06,30.06 -30.06,30.06 -30.06,30.06l0 0c-60.14,30.07 -150.34,-30.06 -270.64,-60.14 -60.14,-60.14 -150.34,-90.2 -180.43,-90.2l0 0 0 0c0,0 0,0 -30.06,0l180.43 1052.51 150.36 -210.49 330.77 240.57 -150.34 -962.31 -0.03 0zm-661.59 0c-90.2,60.14 -180.43,120.29 -210.49,90.21l0 0c-60.14,0 -90.2,-120.3 -150.34,-210.5 0,-90.2 -30.07,-150.34 -60.16,-180.43l-210.49 811.93 210.49 -60.14 210.5 270.63 210.49 -721.73 0 0.03zm30.09 -180.43l120.29 -60.14c0,0 30.06,0 30.06,0 60.14,0 150.36,60.14 240.59,90.2 90.2,30.06 120.29,90.2 150.34,90.2l0 -30.06c0,0 0,-60.14 30.06,-120.29 0,-120.29 30.06,-240.57 60.14,-270.63 60.14,-60.14 150.34,-90.2 240.57,-120.29 90.2,-30.06 150.36,-30.06 150.36,-30.06l0 -30.07c30.06,0 -30.07,-30.06 -90.21,-90.2 -60.14,-90.2 -120.29,-210.49 -120.29,-270.63 0,-30.06 60.14,-150.34 90.2,-240.57 30.06,-60.14 90.21,-120.3 90.21,-150.36l-30.07 0c0,0 -60.14,0 -120.29,0 -120.29,-30.06 -240.57,-60.14 -270.63,-90.2 -60.14,-30.06 -90.2,-150.34 -120.29,-240.57 -30.06,-90.2 -30.06,-150.34 -30.06,-150.34l-30.06 0c0,0 -30.07,30.06 -90.21,90.2 -90.2,60.14 -210.49,120.29 -270.63,120.29 -30.06,0 -150.34,-30.06 -240.57,-90.2 -60.14,-30.06 -120.29,-90.2 -150.34,-60.14l0 0c0,0 0,60.14 0,120.29 -30.07,120.29 -60.16,240.57 -90.21,270.63 -30.06,60.14 -150.34,90.2 -240.57,120.29 -90.2,30.07 -150.34,30.07 -150.34,60.16l0 0c0,0 30.06,30.06 90.2,120.29 60.14,90.2 120.29,180.43 120.29,240.57 0,60.14 -30.06,150.34 -90.2,240.57 -30.06,90.2 -90.2,120.29 -60.14,150.34l0 0c0,0 60.14,0 120.29,30.07 120.29,0 240.57,30.06 270.63,60.14 60.14,60.14 90.21,150.34 120.3,240.57 30.06,90.2 30.06,150.34 60.14,150.34l0 0c0,30.06 30.06,-30.06 120.29,-90.2 30.06,0 60.14,-30.06 90.2,-60.14l-0.03 -0.06z"/>
  <path class="fil8" d="M17564.3 9349.4l171.33 0 0 -128.51 128.51 0 0 128.51 985.25 0 214.18 -214.18 85.67 85.67 -171.35 171.35 0 1028.07 128.51 0 0 128.51 -128.51 0 0 171.35 -128.51 0 0 -171.35 -1113.76 0 0 -1070.91 -171.33 0 0 -128.51zm299.84 985.24l856.74 -856.73 -856.74 0 0 856.73zm985.25 -813.89l-899.58 899.56 899.58 0 0 -899.56z"/>
  <path class="fil3" d="M5649.92 24760.56l-338.88 0 0 -323.49 123.24 0 0 200.26 215.64 0 0 123.24 0 -0.01zm1062.88 -1401.78c46.21,0 77.03,-15.41 92.41,-30.8 30.8,-15.41 30.8,-30.79 30.8,-61.62 0,-15.41 0,-30.79 -30.8,-46.21 0,-15.41 0,-15.41 0,-15.41l-30.79 -15.41c-15.41,0 -46.21,0 -61.62,0 -46.21,0 -77.03,0 -92.42,30.8 -30.79,15.41 -30.79,30.79 -30.79,46.2 0,30.8 0,46.21 30.79,61.62 15.41,15.42 46.21,30.8 92.42,30.8l0 0.03zm169.45 61.62c-46.21,30.79 -107.83,61.62 -169.45,61.62 -61.62,0 -123.24,-30.8 -169.45,-61.62 -46.21,-30.8 -77.03,-92.42 -77.03,-154.04 0,-46.21 30.79,-107.83 77.03,-138.64 15.41,-15.41 15.41,-15.41 30.8,-30.8l-231.07 -107.81 -492.95 231.05 -46.21 -107.81 400.51 -184.86 -400.51 -184.86 46.21 -107.83 492.95 231.07 231.07 -107.83c-15.42,-15.41 -15.42,-15.41 -30.8,-30.8 -46.21,-30.79 -77.03,-92.41 -77.03,-154.02 0,-46.21 30.79,-107.83 77.03,-138.66 46.21,-46.2 107.83,-61.62 169.45,-61.62 61.62,0 123.24,15.42 169.45,61.62 46.2,30.8 77.03,92.42 77.03,138.66 0,61.62 -30.8,123.24 -77.03,154.02 0,15.41 -15.42,15.41 -15.42,15.41l0 0 -15.41 15.42c-15.41,0 -15.41,0 -30.79,15.41l-338.89 154.02 338.89 154.04c15.41,0 15.41,15.41 30.79,15.41l15.41 15.41 0 0c0,0 15.42,0 15.42,15.42 46.2,30.79 77.03,92.41 77.03,138.64 0,61.62 -30.8,123.24 -77.03,154.02l0 -0.04zm-77.01 -893.46c-15.41,-30.79 -46.21,-30.79 -92.41,-30.79 -46.21,0 -77.04,0 -92.42,30.79 -30.79,15.41 -30.79,30.8 -30.79,46.21 0,30.8 0,46.21 30.79,61.62 15.41,15.41 46.21,30.8 92.42,30.8 15.41,0 46.2,0 61.62,0l30.79 -15.42c0,0 0,-15.41 0,-15.41 30.8,-15.41 30.8,-30.79 30.8,-61.62 0,-15.41 0,-30.79 -30.8,-46.21l0 0.03zm92.42 308.09l508.33 0 0 123.24 -508.33 0 0 -123.24zm-893.43 1802.3l508.34 0 0 123.24 -508.34 0 0 -123.24zm893.43 0l508.33 0 0 123.24 -508.33 0 0 -123.24zm1201.54 -1109.1l0 508.33 -107.81 0 0 -508.33 107.81 0zm-2664.94 0l0 508.33 -123.24 0 0 -508.33 123.24 0zm2326.03 -693.2l338.89 0 0 338.89 -107.83 0 0 -215.66 -231.07 0 0 -123.24zm0 1802.3l231.07 0 0 -200.28 107.83 0 0 323.49 -338.89 0 0 -123.24 0 0.03zm-2110.36 -1679.06l-215.64 0 0 215.66 -123.24 0 0 -338.89 338.88 0 0 123.24z"/>
  <path class="fil4" d="M9328.31 24760.56l-338.89 0 0 -323.49 123.24 0 0 200.26 215.66 0 0 123.24 0 -0.01zm1062.88 -1401.78c46.2,0 77.03,-15.41 92.41,-30.8 30.8,-15.41 30.8,-30.79 30.8,-61.62 0,-15.41 0,-30.79 -30.8,-46.21 0,-15.41 0,-15.41 0,-15.41l-30.79 -15.41c-15.42,0 -46.21,0 -61.62,0 -46.21,0 -77.04,0 -92.42,30.8 -30.8,15.41 -30.8,30.79 -30.8,46.2 0,30.8 0,46.21 30.8,61.62 15.41,15.42 46.21,30.8 92.42,30.8l0 0.03zm169.43 61.62c-46.2,30.79 -107.81,61.62 -169.43,61.62 -61.62,0 -123.24,-30.8 -169.45,-61.62 -46.21,-30.8 -77.03,-92.42 -77.03,-154.04 0,-46.21 30.79,-107.83 77.03,-138.64 15.41,-15.41 15.41,-15.41 30.79,-30.8l-231.05 -107.81 -492.95 231.05 -46.21 -107.81 400.5 -184.86 -400.5 -184.86 46.21 -107.83 492.95 231.07 231.05 -107.83c-15.41,-15.41 -15.41,-15.41 -30.79,-30.8 -46.21,-30.79 -77.03,-92.41 -77.03,-154.02 0,-46.21 30.79,-107.83 77.03,-138.66 46.21,-46.2 107.83,-61.62 169.45,-61.62 61.62,0 123.24,15.42 169.43,61.62 46.21,30.8 77.04,92.42 77.04,138.66 0,61.62 -30.8,123.24 -77.04,154.02 0,15.41 -15.41,15.41 -15.41,15.41l0 0 -15.41 15.42c-15.41,0 -15.41,0 -30.8,15.41l-338.88 154.02 338.88 154.04c15.42,0 15.42,15.41 30.8,15.41l15.41 15.41 0 0c0,0 15.41,0 15.41,15.42 46.21,30.79 77.04,92.41 77.04,138.64 0,61.62 -30.8,123.24 -77.04,154.02l0 -0.04zm-77 -893.46c-15.41,-30.79 -46.21,-30.79 -92.42,-30.79 -46.2,0 -77.03,0 -92.41,30.79 -30.8,15.41 -30.8,30.8 -30.8,46.21 0,30.8 0,46.21 30.8,61.62 15.41,15.41 46.21,30.8 92.41,30.8 15.42,0 46.21,0 61.62,0l30.8 -15.42c0,0 0,-15.41 0,-15.41 30.8,-15.41 30.8,-30.79 30.8,-61.62 0,-15.41 0,-30.79 -30.8,-46.21l0 0.03zm92.42 308.09l508.33 0 0 123.24 -508.33 0 0 -123.24zm-893.43 1802.3l508.33 0 0 123.24 -508.33 0 0 -123.24zm893.43 0l508.33 0 0 123.24 -508.33 0 0 -123.24zm1201.54 -1109.1l0 508.33 -107.83 0 0 -508.33 107.83 0zm-2664.94 0l0 508.33 -123.24 0 0 -508.33 123.24 0zm2326.03 -693.2l338.88 0 0 338.89 -107.83 0 0 -215.66 -231.05 0 0 -123.24zm0 1802.3l231.05 0 0 -200.28 107.83 0 0 323.49 -338.88 0 0 -123.24 0 0.03zm-2110.36 -1679.06l-215.66 0 0 215.66 -123.24 0 0 -338.89 338.89 0 0 123.24z"/>
  <g id="_2591183058288">
   <g id="_2618065801904">
    <g id="Page-1">
     <g id="Core">
      <g id="star">
       <polygon id="Shape" class="fil9" points="12709.8,15704.33 12978.95,15865.81 12898.2,15569.76 13140.44,15354.43 12817.46,15327.52 12709.8,15031.46 12575.21,15327.52 12252.24,15354.43 12494.48,15569.76 12413.72,15865.81 "/>
      </g>
     </g>
    </g>
   </g>
  </g>
  <g id="_2591183061104">
   <g id="_2618057569904">
    <g id="Page-1_0">
     <g id="Core_1">
      <g id="star_2">
       <polygon id="Shape_3" class="fil10" points="13858.14,15697.45 14139.4,15870.53 14074.48,15545.99 14312.49,15351.28 13987.95,15308.01 13858.14,15026.74 13749.96,15308.01 13425.43,15351.28 13663.41,15545.99 13598.51,15870.53 "/>
      </g>
     </g>
    </g>
   </g>
  </g>
  <path class="fil1" d="M17120.44 23259.14l237.07 237.07 -118.55 282.9 -335.05 0 0 287.64 335.05 0 116.97 282.88 -237.07 237.07 203.89 202.31 237.07 -237.07 281.31 118.55 0 335.05 287.64 0 0 -335.05 282.88 -115.38 237.07 235.48 202.31 -202.29 -237.07 -237.07 118.55 -282.9 335.05 0 0 -287.64 -335.05 0 -115.38 -282.88 237.07 -235.49 -203.89 -203.89 -237.07 237.07 -281.31 -118.55 0 -335.05 -287.64 0 0 335.05 -282.9 115.38 -237.07 -235.48 -203.89 202.29zm309.76 -257.6c-15.79,-41.1 -37.93,-77.45 -67.96,-107.48 -52.17,-52.17 -124.86,-83.76 -203.89,-83.76 -79.04,0 -150.14,31.62 -202.31,83.76 -52.17,52.17 -83.76,123.27 -83.76,202.29 0,79.04 31.62,151.73 83.76,203.9 31.62,31.61 69.55,55.31 113.79,69.53l-109.06 -109.06 363.5 -363.5 105.89 104.31 0.03 0zm-233.9 493.09c-12.65,1.58 -25.27,3.17 -37.93,3.17 -53.72,0 -104.31,-11.07 -151.72,-31.62 -49,-20.55 -93.24,-49 -131.17,-86.93 -36.35,-36.35 -66.38,-80.62 -86.93,-129.59 -18.97,-47.41 -30.03,-99.58 -30.03,-153.31 0,-53.72 11.06,-104.31 30.03,-151.72 20.55,-49 50.58,-93.24 86.93,-129.59 37.93,-37.93 82.17,-67.96 131.17,-88.51 47.41,-18.97 98,-30.03 151.72,-30.03 53.73,0 105.9,11.06 153.31,30.03 49,20.55 93.24,50.58 129.59,86.93l9.48 11.07c33.21,34.76 60.07,75.86 77.45,120.1 20.55,47.41 30.03,98 30.03,151.72 0,11.07 0,22.14 0,33.21l30.03 30.03 142.25 -58.48 0 -109.07 -26.87 0 -83.76 -205.43 172.28 -172.28 -148.56 -148.55 -172.27 172.27 -207.03 -86.93 0 -243.38 -210.21 0 0 244.97 -205.45 83.76 -172.27 -172.28 -148.55 148.56 172.27 172.27 -86.93 205.45 -243.38 0 0 210.19 244.97 0 83.74 207.04 -172.27 172.27 148.55 148.55 172.28 -172.27 205.45 85.34 0 23.73 112.2 0 58.48 -142.24 -26.86 -28.45 -0.03 0zm-404.57 278.17l-116.96 115.36 -309.76 -308.19 200.72 -199.14 -26.86 -66.36 -282.9 0 0 -437.78 282.9 0 26.86 -64.8 -199.14 -199.12 309.76 -309.76 199.14 200.72 66.38 -26.86 0 -282.9 436.19 0 0 282.9 66.38 26.86 199.14 -199.14 308.19 308.19 -115.38 115.38 407.76 0 0 373 142.24 60.06 263.93 -263.93 363.5 365.09 -263.93 263.93 58.48 142.24 372.98 0 0 513.64 -372.98 0 -60.07 142.24 263.93 263.93 -363.5 363.5 -263.93 -263.93 -142.24 58.48 0 373 -515.22 0 0 -373 -142.25 -60.06 -262.33 263.93 -363.5 -363.5 262.33 -263.93 -56.89 -142.24 -373 0 0 -407.76 0.03 -0.04zm1472.97 -126.45c-71.14,-71.13 -169.11,-115.38 -278.17,-115.38 -109.07,0 -207.04,44.25 -278.17,115.38 -71.13,71.13 -115.38,169.1 -115.38,278.17 0,107.48 44.25,207.03 115.38,276.57 71.13,71.14 169.1,115.38 278.17,115.38 109.06,0 207.03,-44.24 278.17,-113.79 71.13,-71.14 113.79,-170.69 113.79,-278.17 0,-109.07 -42.69,-207.04 -113.79,-278.17zm-85.38 -189.65c63.21,25.27 118.55,63.21 164.38,109.06 47.41,45.83 83.76,102.73 110.62,164.38 23.72,60.06 37.93,126.44 37.93,194.41 0,67.96 -14.23,132.74 -37.93,192.81 -25.28,60.07 -60.06,113.79 -104.31,158.04l-6.31 6.31c-45.83,45.83 -101.14,83.76 -164.38,110.62 -60.06,23.72 -124.86,37.93 -192.81,37.93 -67.96,0 -134.34,-14.24 -194.41,-37.93 -61.65,-26.86 -116.96,-63.21 -164.36,-110.62 -45.83,-45.83 -83.76,-102.73 -109.07,-164.38 -25.28,-60.06 -37.93,-124.86 -37.93,-192.81 0,-140.66 55.31,-267.1 147,-358.76l6.31 -4.75c45.83,-44.25 99.58,-80.62 158.03,-104.31 60.07,-25.28 126.45,-39.52 194.41,-39.52 67.97,0 132.76,14.24 192.83,39.52l0.01 0z"/>
  <path class="fil0" d="M20127.82 23259.14l237.07 237.07 -118.55 282.9 -335.07 0 0 287.64 335.07 0 116.96 282.88 -237.07 237.07 203.89 202.31 237.07 -237.07 281.31 118.55 0 335.05 287.64 0 0 -335.05 282.9 -115.38 237.07 235.48 202.29 -202.29 -237.05 -237.07 118.53 -282.9 335.07 0 0 -287.64 -335.07 0 -115.36 -282.88 237.05 -235.49 -203.89 -203.89 -237.07 237.07 -281.31 -118.55 0 -335.05 -287.64 0 0 335.05 -282.88 115.38 -237.07 -235.48 -203.89 202.29zm309.76 -257.6c-15.8,-41.1 -37.93,-77.45 -67.97,-107.48 -52.17,-52.17 -124.86,-83.76 -203.89,-83.76 -79.03,0 -150.14,31.62 -202.29,83.76 -52.17,52.17 -83.76,123.27 -83.76,202.29 0,79.04 31.61,151.73 83.76,203.9 31.61,31.61 69.53,55.31 113.79,69.53l-109.07 -109.06 363.5 -363.5 105.9 104.31 0.03 0zm-233.9 493.09c-12.65,1.58 -25.28,3.17 -37.93,3.17 -53.73,0 -104.31,-11.07 -151.72,-31.62 -49,-20.55 -93.25,-49 -131.18,-86.93 -36.34,-36.35 -66.38,-80.62 -86.93,-129.59 -18.96,-47.41 -30.03,-99.58 -30.03,-153.31 0,-53.72 11.07,-104.31 30.03,-151.72 20.55,-49 50.59,-93.24 86.93,-129.59 37.93,-37.93 82.18,-67.96 131.18,-88.51 47.41,-18.97 97.98,-30.03 151.72,-30.03 53.73,0 105.89,11.06 153.31,30.03 49,20.55 93.24,50.58 129.58,86.93l9.49 11.07c33.2,34.76 60.06,75.86 77.44,120.1 20.55,47.41 30.04,98 30.04,151.72 0,11.07 0,22.14 0,33.21l30.03 30.03 142.24 -58.48 0 -109.07 -26.86 0 -83.76 -205.43 172.27 -172.28 -148.55 -148.55 -172.27 172.27 -207.04 -86.93 0 -243.38 -210.19 0 0 244.97 -205.45 83.76 -172.28 -172.28 -148.55 148.56 172.27 172.27 -86.91 205.45 -243.38 0 0 210.19 244.95 0 83.76 207.04 -172.27 172.27 148.55 148.55 172.27 -172.27 205.45 85.34 0 23.73 112.21 0 58.48 -142.24 -26.86 -28.45 -0.03 0zm-404.59 278.17l-116.96 115.36 -309.76 -308.19 200.72 -199.14 -26.86 -66.36 -282.88 0 0 -437.78 282.88 0 26.86 -64.8 -199.12 -199.12 309.76 -309.76 199.12 200.72 66.38 -26.86 0 -282.9 436.21 0 0 282.9 66.36 26.86 199.14 -199.14 308.19 308.19 -115.36 115.38 407.74 0 0 373 142.24 60.06 263.93 -263.93 363.5 365.09 -263.93 263.93 58.48 142.24 373 0 0 513.64 -373 0 -60.06 142.24 263.93 263.93 -363.5 363.5 -263.93 -263.93 -142.24 58.48 0 373 -515.23 0 0 -373 -142.24 -60.06 -262.35 263.93 -363.5 -363.5 262.35 -263.93 -56.9 -142.24 -372.98 0 0 -407.76 0.01 -0.04zm1472.97 -126.45c-71.13,-71.13 -169.1,-115.38 -278.17,-115.38 -109.06,0 -207.03,44.25 -278.15,115.38 -71.14,71.13 -115.38,169.1 -115.38,278.17 0,107.48 44.24,207.03 115.38,276.57 71.13,71.14 169.1,115.38 278.15,115.38 109.07,0 207.04,-44.24 278.17,-113.79 71.14,-71.14 113.79,-170.69 113.79,-278.17 0,-109.07 -42.68,-207.04 -113.79,-278.17zm-85.37 -189.65c63.21,25.27 118.55,63.21 164.38,109.06 47.41,45.83 83.74,102.73 110.62,164.38 23.72,60.06 37.93,126.44 37.93,194.41 0,67.96 -14.24,132.74 -37.93,192.81 -25.28,60.07 -60.07,113.79 -104.31,158.04l-6.31 6.31c-45.83,45.83 -101.14,83.76 -164.38,110.62 -60.07,23.72 -124.86,37.93 -192.81,37.93 -67.97,0 -134.35,-14.24 -194.41,-37.93 -61.65,-26.86 -116.97,-63.21 -164.38,-110.62 -45.83,-45.83 -83.76,-102.73 -109.06,-164.38 -25.28,-60.06 -37.93,-124.86 -37.93,-192.81 0,-140.66 55.31,-267.1 146.98,-358.76l6.31 -4.75c45.83,-44.25 99.59,-80.62 158.04,-104.31 60.07,-25.28 126.44,-39.52 194.41,-39.52 67.96,0 132.76,14.24 192.81,39.52l0.03 0z"/>
  <g id="_2591183062928">
   <path class="fil3" d="M14779.69 22230.01l-1403.98 0c-16.45,0 -29.24,4.45 -37.23,12.28l-0.22 0.22c-7.83,7.99 -12.28,20.77 -12.28,37.23l0 2737.73c0,16.56 4.5,29.39 12.4,37.34 8.06,7.84 20.89,12.4 37.33,12.4l1868.12 0c16.46,0 29.27,-4.56 37.23,-12.52 7.96,-7.96 12.5,-20.77 12.5,-37.23l0 -2273.58 -513.88 -513.88zm-1403.98 -110.28l1426.77 0 0 55.09 38.95 -38.95 562.41 562.41 0 2319.2c0,46.9 -16.23,86.56 -44.84,115.17 -28.61,28.61 -68.28,44.84 -115.17,44.84l-1868.12 0c-46.87,0 -86.56,-16.23 -115.17,-44.84 -28.58,-28.83 -44.84,-68.44 -44.84,-115.17l0 -2737.73c0,-46.71 16.26,-86.34 44.84,-114.96l0.22 -0.22c28.61,-28.58 68.25,-44.84 114.96,-44.84z"/>
   <path class="fil1" d="M15031.9 23538.28c-4.37,-17.5 -17.48,-28.41 -34.95,-30.6l-441.38 -65.55 -198.82 -399.84c-15.29,-30.58 -63.37,-30.58 -78.65,0l-198.83 399.84 -441.38 65.55c-17.48,2.19 -30.58,13.1 -34.95,30.6 -6.56,15.28 -2.19,32.77 10.91,45.87l319.02 310.27 -74.28 441.38c-4.37,15.28 2.18,32.77 17.48,43.68 13.1,8.73 30.6,10.92 45.87,2.19l395.47 -207.57 395.47 207.57c6.56,4.37 13.1,6.54 19.67,6.54 0,0 2.19,0 2.19,0 24.04,0 43.68,-19.67 43.68,-45.87 0,-6.54 0,-10.91 -2.18,-17.48l-74.28 -430.44 319 -310.27c13.1,-13.1 17.48,-30.6 10.91,-45.87zm-408.59 310.25c-10.92,8.73 -15.29,24.04 -13.1,39.32l63.37 373.61 -334.29 -176.97c-6.56,-4.37 -15.29,-4.37 -21.86,-4.37 -6.54,0 -15.28,0 -21.85,4.37l-334.29 176.97 63.36 -373.61c2.19,-15.28 -2.18,-30.58 -13.1,-39.32l-270.92 -266.57 375.81 -52.45c15.29,-2.18 26.23,-13.1 32.77,-26.22l168.25 -338.66 168.23 338.66c6.54,13.1 17.48,24.04 32.77,26.22l375.81 52.45 -270.92 266.57 -0.04 0z"/>
  </g>
  <polygon class="fil7" points="14221.28,3281.74 13996.23,3049.52 14220.01,2819.09 14264.63,2861.23 14076.69,3047.03 14263.36,3236.88 "/>
  <g id="_2591183062064">
   <g id="_2370785985808">
    <path class="fil9" d="M2261.86 4934.86c237.21,0 217.48,18.48 245.6,-85.1 32.74,-120.7 153.86,-160.16 153.86,-309.98l0 -47.26c0,-141.77 -145.89,-287.73 -287.75,-287.73 -64.88,0 -110.71,1.75 -168.96,32.9 -24.35,13 -70.92,47.09 -86.96,67.65 -46.17,59.27 -92.58,144.37 -81.17,227.55 29.12,212.44 103.74,161.5 154.11,314.36 14.6,44.24 9.74,87.63 71.27,87.63l0 -0.01z"/>
    <path class="fil9" d="M2201.77 5029.29c0,27.79 2.94,53.06 24.59,69.93 14.36,11.16 7.13,3.02 19.8,10.24 24.93,14.2 6.47,65.81 54.39,65.81 100.06,0 126.25,13.33 139,-41.3 13.1,-55.91 54.48,3.01 56.92,-114.08 0.5,-23.34 -15.54,-42.14 -41.39,-42.14l-206.15 0c-34.09,0 -47.26,18.21 -47.26,51.54l0.1 0z"/>
    <path class="fil9" d="M1742.21 4514c0,23 10.06,38.62 34.32,38.62l124.57 0c47.6,0 47.6,-73.02 0,-73.02 -46.91,0 -128.92,-7.97 -148.81,10.06 -7.3,6.65 -10.08,11.92 -10.08,24.27l0 0.07z"/>
    <path class="fil9" d="M1909.66 4110.26c0,27.62 30.38,45.41 56.9,71.93 20.65,20.65 41.48,52.64 71.94,52.64 16.87,0 30.04,-17.38 30.04,-42.98 0,-11.16 -87.22,-115.92 -124.57,-115.92 -20.72,0 -34.34,13.6 -34.34,34.34l0.01 0z"/>
    <path class="fil9" d="M2798.72 4552.62l124.57 0c51.04,0 39.54,-73.02 4.28,-73.02l-128.85 0c-47.58,0 -47.58,73.02 0,73.02z"/>
    <path class="fil9" d="M2313.4 3942.82l0 124.57c0,46.41 73.02,46.41 73.02,0l0 -124.57c0,-46.41 -73.02,-46.41 -73.02,0z"/>
    <path class="fil9" d="M2631.19 4191.84c0,21.75 8.31,42.98 34.34,42.98 26.35,0 124.57,-106.94 124.57,-115.92 0,-26.95 -6.63,-42.98 -38.62,-42.98 -27.78,0 -120.27,103.91 -120.27,115.92l-0.01 0z"/>
    <path class="fil9" d="M2631.19 4827.51c0,32.73 19.22,42.81 52.64,76.21 20.64,20.64 41.46,52.62 71.93,52.62 20.81,0 34.34,-13.58 34.34,-34.32 0,-26.11 -105.43,-124.57 -120.29,-124.57 -16.78,0 -38.69,16.36 -38.69,30.04l0.07 0.01z"/>
    <path class="fil9" d="M1909.66 4921.95c0,30.96 21.15,34.32 38.6,34.32 27.79,0 120.29,-103.9 120.29,-115.99 0,-28.29 -17.29,-42.98 -34.34,-42.98 -23.84,0 -124.57,100.72 -124.57,124.57l0.01 0.09z"/>
   </g>
  </g>
  <g id="_2591183066672">
   <g id="_2370786037552">
    <path class="fil11" d="M3528.14 4934.86c237.17,0 217.5,18.45 245.57,-85.16 32.67,-120.7 153.91,-160.14 153.91,-309.99l0 -47.19c0,-141.7 -145.9,-287.75 -287.75,-287.75 -64.95,0 -110.65,1.75 -168.95,32.95 -24.42,13.01 -70.92,47.06 -86.93,67.66 -46.09,59.25 -92.61,144.28 -81.09,227.55 29.15,212.47 103.72,161.49 154.04,314.33 14.5,44.19 9.77,87.6 71.33,87.6l-0.13 0z"/>
    <path class="fil11" d="M3468.07 5029.22c0,27.79 2.99,53.03 24.55,69.99 14.37,11.25 7.04,2.98 19.79,10.3 24.96,14.24 6.37,65.77 54.37,65.77 100.07,0 126.25,13.28 139,-41.36 13.14,-56.01 54.51,2.99 56.94,-114.04 0.54,-23.34 -15.6,-42.18 -41.36,-42.18l-206.11 0c-34.03,0 -47.19,18.17 -47.19,51.53z"/>
    <path class="fil11" d="M3008.52 4513.94c0,23.06 10.17,38.66 34.31,38.66l124.48 0c47.61,0 47.61,-72.95 0,-72.95 -46.91,0 -128.95,-8 -148.88,10.02 -7.32,6.65 -10.03,11.95 -10.03,24.27l0.13 0z"/>
    <path class="fil11" d="M3175.98 4110.28c0,27.66 30.36,45.42 56.94,72 20.62,20.61 41.49,52.61 71.87,52.61 16.94,0 30.1,-17.35 30.1,-42.98 0,-11.13 -87.19,-115.95 -124.48,-115.95 -20.75,0 -34.31,13.57 -34.31,34.32l-0.13 0z"/>
    <path class="fil11" d="M4064.97 4552.6l124.48 0c50.99,0 39.46,-72.95 4.34,-72.95l-128.82 0c-47.6,0 -47.6,72.95 0,72.95z"/>
    <path class="fil11" d="M3579.66 3942.8l0 124.62c0,46.37 72.95,46.37 72.95,0l0 -124.62c0,-46.37 -72.95,-46.37 -72.95,0z"/>
    <path class="fil11" d="M3897.51 4191.9c0,21.69 8.4,42.98 34.31,42.98 26.3,0 124.48,-106.85 124.48,-115.93 0,-26.99 -6.65,-43 -38.64,-43 -27.79,0 -120.29,103.87 -120.29,115.95l0.15 0z"/>
    <path class="fil11" d="M3897.51 4827.45c0,32.82 19.25,42.85 52.61,76.21 20.61,20.62 41.49,52.61 71.87,52.61 20.75,0 34.31,-13.55 34.31,-34.31 0,-26.17 -105.36,-124.48 -120.27,-124.48 -16.81,0 -38.66,16.42 -38.66,30.1l0.15 -0.13z"/>
    <path class="fil11" d="M3175.98 4921.98c0,30.92 21.15,34.31 38.64,34.31 27.79,0 120.29,-103.87 120.29,-115.93 0,-28.2 -17.22,-43 -34.32,-43 -23.85,0 -124.48,100.76 -124.48,124.49l-0.13 0.13z"/>
   </g>
  </g>
  <g id="_2591183068784">
   <path id="Fill-195" class="fil2" d="M13345.68 12379.4c0,0 -7.23,-78.52 -42.35,-107.43 -36.15,-42.35 -85.75,-42.35 -107.43,-42.35 -149.79,-14.47 -371.9,-14.47 -371.9,-14.47l0 0c0,0 -222.11,0 -371.9,14.47 -21.69,0 -71.29,0 -107.43,42.35 -35.12,28.92 -42.35,107.43 -42.35,107.43 0,0 -14.47,85.75 -14.47,171.49l0 78.5c0,85.75 14.47,171.49 14.47,171.49 0,0 7.23,78.52 42.35,107.43 36.15,43.39 92.98,43.39 114.66,49.6 85.75,7.23 364.67,7.23 364.67,7.23 0,0 222.11,0 371.9,-7.23 21.69,-7.23 71.29,-7.23 107.43,-49.6 35.12,-28.92 42.35,-107.43 42.35,-107.43 0,0 14.47,-85.75 14.47,-171.49l0 -78.5c0,-85.75 -14.47,-171.49 -14.47,-171.49zm-629.12 350.21l0 -300.63 286.16 150.83 -286.16 149.8 0 0z"/>
   <path class="fil12" d="M12827.09 11557.08c286.16,0 542.36,115.7 728.31,302.69 186.99,188.02 301.65,447.32 301.65,733.48 0,286.16 -114.66,543.39 -300.61,729.34 -185.95,185.95 -443.19,300.61 -729.34,300.61 -286.16,0 -545.45,-114.66 -733.48,-301.65 -186.97,-185.95 -302.67,-442.15 -302.67,-728.31 0,-285.13 115.7,-544.43 303.71,-732.44 188.02,-188.02 447.32,-303.72 732.44,-303.72zm693.18 338.85c-176.65,-178.72 -421.48,-288.23 -693.18,-288.23 -271.7,0 -518.59,110.54 -696.28,289.25 -178.72,177.7 -289.25,424.6 -289.25,696.29 0,271.7 109.49,516.52 288.21,693.18 177.68,177.68 424.6,286.16 697.31,286.16 272.73,0 517.57,-108.47 694.22,-285.12 176.65,-176.66 285.12,-421.5 285.12,-694.22 0,-272.73 -108.47,-519.63 -286.16,-697.31z"/>
  </g>
  <path class="fil3" d="M8301.8 9347.03c125.31,0 238.51,50.66 320.46,132.79 82.15,81.93 132.79,195.14 132.79,320.48 0,114.96 -42.94,220.02 -113.64,299.96l260.77 260.77 -44.05 44.05 -260.98 -260.99c-79.29,68.28 -182.58,109.46 -295.36,109.46 -125.33,0 -238.53,-50.66 -320.48,-132.79 -81.92,-81.92 -132.79,-195.12 -132.79,-320.46 0,-125.33 50.87,-238.53 132.79,-320.48 81.93,-82.15 195.14,-132.79 320.48,-132.79zm-47.58 647.53l0 -150.43 -150.43 0 0 -87.21 150.43 0 0 -150.42 87 0 0 150.42 150.62 0 0 87.21 -150.62 0 0 150.43 -87 0zm323.97 -470.66c-70.7,-70.91 -168.5,-114.53 -276.38,-114.53 -107.93,0 -205.73,43.6 -276.4,114.53 -70.91,70.7 -114.53,168.5 -114.53,276.4 0,107.92 43.6,205.71 114.53,276.38 70.7,70.7 168.5,114.55 276.4,114.55 107.92,0 205.71,-43.84 276.38,-114.55 70.7,-70.7 114.55,-168.5 114.55,-276.38 0,-107.93 -43.84,-205.73 -114.55,-276.4z"/>
  <path class="fil6" d="M11376.95 14981.42c-264.54,0 -499.68,235.14 -499.68,499.68 0,264.54 235.14,499.68 499.68,499.68 264.54,0 499.68,-235.14 499.68,-499.68 0,-264.54 -235.14,-499.68 -499.68,-499.68zm58.8 205.74l-29.4 382.11 -88.18 0 0 -382.11 117.58 0zm-58.8 587.88c-29.4,0 -58.8,-29.4 -58.8,-58.8 0,-29.4 29.4,-29.4 58.8,-29.4 29.4,0 58.8,0 58.8,29.4 0,29.4 -29.4,58.8 -58.8,58.8z"/>
  <g id="_2591183071312">
   <g id="_2618057567344">
    <g>
     <path class="fil10" d="M12356.37 4555.08l-310.4 0 0 266.06 310.4 0 0 -266.06zm-88.68 177.35l-133.04 0 0 -88.7 133.04 0 0 88.7z"/>
     <path class="fil10" d="M12045.97 5220.21l310.4 0 0 -266.06 -310.4 0 0 266.06zm88.68 -177.38l133.04 0 0 88.7 -133.04 0 0 -88.7z"/>
     <path class="fil10" d="M13287.6 4466.39l0 -44.34 0 -88.68 0 -266.07 -266.07 0 0 -88.68 -88.68 0 0 88.68 -310.4 0 0 -88.68 -88.7 0 0 88.68 -310.4 0 0 -88.68 -88.7 0 0 88.68 -266.06 0 0 266.07 0 88.68 0 1019.88 1241.6 0c88.7,0 177.38,-88.68 177.38,-177.38l0 -487.78 -88.68 0 0 487.78c0,44.36 -44.36,88.7 -88.7,88.7l-1152.92 0 0 -931.2 1241.61 0 0 133.04 -88.7 88.68 0 -88.68 -665.15 0 0 665.15 665.15 0 0 -266.06 -133.04 0 0 177.36 -443.44 0 0 -487.78 443.44 0 0 88.7 -221.72 177.36 -88.68 -133.02 -88.68 44.34 177.36 221.72 709.51 -620.81 -44.34 -88.68 -133.04 133.02 0.03 0zm-88.7 -133.02l-1241.6 0 0 -177.38 177.38 0 0 88.68 88.68 0 0 -88.68 310.41 0 0 88.68 88.68 0 0 -88.68 310.41 0 0 88.68 88.68 0 0 -88.68 177.38 0 0 177.38 -0.03 0z"/>
    </g>
   </g>
  </g>
  <polygon class="fil7" points="9746.61,760.47 10127.89,1141.74 10509.15,760.47 10556.82,808.14 10175.54,1189.41 10556.82,1570.68 10509.15,1618.35 10127.89,1237.07 9746.61,1618.35 9698.94,1570.68 10080.22,1189.41 9698.94,808.14 "/>
  <polygon class="fil13" points="8434.18,760.47 8815.44,1141.74 9196.72,760.47 9244.39,808.14 8863.11,1189.41 9244.39,1570.68 9196.72,1618.35 8815.44,1237.07 8434.18,1618.35 8386.51,1570.68 8767.78,1189.41 8386.51,808.14 "/>
  <path class="fil14" d="M11903.88 7797.74l0 0c-35.62,0 -71.23,0 -71.23,0 -35.62,0 -35.62,0 -71.24,-35.62 0,0 -35.62,-35.62 -35.62,-35.62 0,-35.61 0,-71.23 0,-71.23l0 -71.24 -142.47 0 0 -106.85 142.47 0 0 -142.49 -142.47 0 0 -106.85 142.47 0 0 -142.47 -142.47 0 0 -106.86 142.47 0 0 -71.23c0,-35.62 0,-71.24 0,-71.24 0,-35.62 35.62,-35.62 35.62,-71.24 35.62,0 35.62,0 71.24,-35.61 0,0 35.61,0 35.61,0l1068.62 0 534.31 498.69 142.47 0 0 427.44c0,0 0,35.62 0,71.24 0,0 -35.61,35.62 -35.61,35.62 0,35.61 -35.62,35.61 -35.62,35.61 -35.62,0 -35.62,0 -71.24,0 0,35.62 0,35.62 -35.62,71.24 0,0 0,35.62 -35.61,71.24 0,0 -35.62,35.62 -71.24,35.62 -35.62,0 -35.62,0 -71.24,0 -35.61,0 -71.23,0 -106.85,0 0,0 -35.62,-35.62 -71.24,-35.62 0,-35.62 -35.62,-71.24 -35.62,-71.24 0,-35.62 0,-35.62 0,-71.24l-676.78 0c0,35.62 -35.62,35.62 -35.62,71.24 0,0 0,35.62 -35.61,71.24 -35.62,0 -35.62,35.62 -71.24,35.62 -35.62,0 -71.24,0 -71.24,0 -35.61,0 -71.23,0 -106.85,0 -35.62,0 -35.62,-35.62 -71.24,-35.62 -35.62,-35.62 -35.62,-71.24 -35.62,-71.24 0,-35.62 -35.61,-35.62 -35.61,-71.24l-0.06 -0.04zm890.52 -427.43l178.09 0 0 106.86 -213.71 0 0 -106.86 35.62 0zm0 -463.07l0 320.56 427.46 0 0 106.86 -534.31 0 0 -463.08 106.85 0 0 35.62 0 0.03zm-961.75 569.93l106.85 0 0 106.85 -106.85 0 0 71.24c0,0 0,0 0,35.62 0,0 0,0 0,0 0,0 35.61,0 35.61,0 0,35.61 0,35.61 35.62,35.61l0 0c0,-35.61 35.62,-35.61 35.62,-71.23 0,0 0,-35.62 35.62,-71.24 35.62,-35.62 106.85,-35.62 178.09,-35.62 0,0 35.62,0 71.23,0 35.62,0 35.62,35.62 71.24,35.62 35.62,35.62 35.62,71.24 35.62,71.24 35.62,35.62 35.62,35.62 35.62,71.23l641.16 0c35.62,-35.61 35.62,-35.61 35.62,-71.23 0,0 35.62,-35.62 35.62,-71.24 35.62,-35.62 106.85,-35.62 178.09,-35.62 35.62,0 35.62,0 71.23,0 35.62,0 71.24,35.62 71.24,35.62 35.62,35.62 35.62,71.24 71.24,71.24 0,35.62 0,35.62 0,71.23 0,0 0,0 0,-35.61 35.61,0 35.61,0 35.61,0 0,0 0,0 0,0 35.62,-35.62 35.62,-35.62 35.62,-35.62l0 -320.58 -106.85 0 -534.31 -498.69 -1032.99 0c0,0 0,0 0,0 0,0 -35.62,0 -35.62,0 0,35.62 0,35.62 0,35.62 0,0 0,0 0,35.62l0 71.23 463.07 0 0 106.86 -463.07 0 0 142.47 249.34 0 0 106.86 -249.34 0 0 142.47 0.06 0.03zm1496.06 178.09c0,0 0,0 -35.62,0 0,-35.62 -35.62,-35.62 -35.62,-35.62 -35.61,0 -35.61,0 -71.23,35.62 0,0 0,0 -35.62,0 0,35.62 0,35.62 -35.62,71.23 0,0 0,0 0,35.62 0,0 0,35.62 0,35.62 35.62,35.62 35.62,35.62 35.62,35.62 35.62,35.62 35.62,35.62 35.62,35.62 35.62,0 35.62,35.61 71.23,35.61 0,0 35.62,-35.61 35.62,-35.61 35.62,0 35.62,0 35.62,-35.62 35.62,0 35.62,0 35.62,-35.62 0,0 0,-35.62 0,-35.62 0,-35.62 0,-35.62 0,-35.62 0,-35.61 0,-35.61 -35.62,-71.23zm-1104.24 0c0,0 -35.62,0 -35.62,0 -35.61,-35.62 -35.61,-35.62 -35.61,-35.62 -35.62,0 -35.62,0 -71.24,35.62 0,0 -35.62,0 -35.62,0 0,35.62 -35.62,35.62 -35.62,71.23 0,0 0,0 0,35.62 0,0 0,35.62 0,35.62 0,35.62 35.62,35.62 35.62,35.62 0,35.62 35.62,35.62 35.62,35.62 35.62,0 35.62,35.61 71.24,35.61 0,0 0,-35.61 35.61,-35.61 0,0 35.62,0 35.62,-35.62 0,0 35.62,0 35.62,-35.62 0,0 0,-35.62 0,-35.62 0,-35.62 0,-35.62 0,-35.62 0,-35.61 -35.62,-35.61 -35.62,-71.23z"/>
  <g id="_2591183073456">
   <g id="_2654256553552">
    <g>
     <g id="Icon-Like">
      <path id="Fill-4_2_" class="fil1" d="M28550.53 9875.06c0,96.54 75.76,148.53 181.95,148.53l305.97 0c-21.54,81.69 -33.42,160.41 -33.42,227.25 0,262.89 72.78,317.85 136.64,317.85 42.33,0 72.03,-2.96 115.12,-30.45 11.89,-5.94 17.82,-17.82 20.8,-30.45l45.3 -245.07c49.01,-130.7 173.04,-242.84 273.29,-318.59l0 -648.33c-33.42,0 -75.76,-17.82 -115.12,-39.36 -49.01,-23.76 -100.26,-48.27 -158.19,-48.27l-432.96 0c-90.61,0 -157.44,72.78 -157.44,136.64 0,11.89 0,23.76 2.96,33.42 -57.92,20.8 -94.32,69.07 -94.32,124.03 0,27.47 6.69,51.25 15.6,69.81 -33.42,23.76 -69.81,63.12 -69.81,112.14 0,23.76 11.89,54.21 30.45,75.76 -39.36,29.71 -66.83,72.78 -66.83,115.12l0 0 0 -0.01zm93.57 0c0,-57.92 60.9,-63.87 69.81,-91.34 9.65,-30.45 -36.4,-42.33 -36.4,-96.54 0,-57.92 69.81,-57.92 78.72,-85.41 12.62,-32.67 -20.8,-45.3 -20.8,-99.52 0,-2.96 0,-5.94 0,-8.91 8.91,-46.05 78.72,-49.01 90.61,-66.83 12.62,-21.54 -2.96,-33.42 -2.96,-81.69 0,-27.47 30.45,-46.05 66.83,-46.05l432.96 0c33.42,0 75.76,18.56 115.12,40.11 36.4,17.82 72.78,35.65 112.14,45.3l0 481.23c-112.14,85.41 -256.96,215.36 -314.88,372.81 0,2.96 0,5.94 -2.96,5.94l-42.33 227.25c-15.6,6.69 -27.47,6.69 -51.98,6.69 -8.91,0 -45.3,-54.96 -45.3,-227.25 0,-66.83 12.62,-142.59 36.4,-227.25l12.62 0c23.76,0 45.3,-21.54 45.3,-46.05 0,-23.76 -21.54,-45.3 -45.3,-45.3l-409.2 0c-45.3,0 -88.37,-20.8 -88.37,-57.18l0 0 -0.01 -0.01z"/>
      <path id="Fill-6_2_" class="fil1" d="M29641.48 9205.2l272.54 0c51.25,0 90.61,39.36 90.61,90.61l0 636.44c0,51.98 -39.36,91.34 -90.61,91.34l-272.54 0c-51.98,0 -91.34,-39.36 -91.34,-91.34l0 -636.44c0,-51.25 39.36,-90.61 91.34,-90.61l0 0zm272.54 727.05l0 -636.44 -272.54 0 0 636.44 272.54 0 0 0zm90.61 636.44z"/>
     </g>
    </g>
   </g>
  </g>
  <g id="_2591183073648">
   <g id="_2618057581520">
    <g>
     <g id="Icon-Like_4">
      <path id="Fill-4_2__5" class="fil6" d="M30191.31 9875.06c0,96.54 75.76,148.53 181.95,148.53l305.97 0c-21.54,81.69 -33.42,160.41 -33.42,227.25 0,262.89 72.78,317.85 136.64,317.85 42.33,0 72.03,-2.96 115.12,-30.45 11.89,-5.94 17.82,-17.82 20.8,-30.45l45.3 -245.07c49.01,-130.7 173.04,-242.84 273.29,-318.59l0 -648.33c-33.42,0 -75.76,-17.82 -115.12,-39.36 -49.01,-23.76 -100.26,-48.27 -158.19,-48.27l-432.96 0c-90.61,0 -157.44,72.78 -157.44,136.64 0,11.89 0,23.76 2.96,33.42 -57.92,20.8 -94.32,69.07 -94.32,124.03 0,27.47 6.69,51.25 15.6,69.81 -33.42,23.76 -69.81,63.12 -69.81,112.14 0,23.76 11.89,54.21 30.45,75.76 -39.36,29.71 -66.83,72.78 -66.83,115.12l0 0 0 -0.01zm93.57 0c0,-57.92 60.9,-63.87 69.81,-91.34 9.65,-30.45 -36.4,-42.33 -36.4,-96.54 0,-57.92 69.81,-57.92 78.72,-85.41 12.62,-32.67 -20.8,-45.3 -20.8,-99.52 0,-2.96 0,-5.94 0,-8.91 8.91,-46.05 78.72,-49.01 90.61,-66.83 12.62,-21.54 -2.96,-33.42 -2.96,-81.69 0,-27.47 30.45,-46.05 66.83,-46.05l432.96 0c33.42,0 75.76,18.56 115.12,40.11 36.4,17.82 72.78,35.65 112.14,45.3l0 481.23c-112.14,85.41 -256.96,215.36 -314.88,372.81 0,2.96 0,5.94 -2.96,5.94l-42.33 227.25c-15.6,6.69 -27.47,6.69 -51.98,6.69 -8.91,0 -45.3,-54.96 -45.3,-227.25 0,-66.83 12.62,-142.59 36.4,-227.25l12.62 0c23.76,0 45.3,-21.54 45.3,-46.05 0,-23.76 -21.54,-45.3 -45.3,-45.3l-409.2 0c-45.3,0 -88.37,-20.8 -88.37,-57.18l0 0 -0.01 -0.01z"/>
      <path id="Fill-6_2__6" class="fil6" d="M31282.26 9205.2l272.54 0c51.25,0 90.61,39.36 90.61,90.61l0 636.44c0,51.98 -39.36,91.34 -90.61,91.34l-272.54 0c-51.98,0 -91.34,-39.36 -91.34,-91.34l0 -636.44c0,-51.25 39.36,-90.61 91.34,-90.61l0 0zm272.54 727.05l0 -636.44 -272.54 0 0 636.44 272.54 0 0 0zm90.61 636.44z"/>
     </g>
    </g>
   </g>
  </g>
  <g id="_2591183074576">
   <path class="fil12" d="M19041.41 11566.46c286.16,0 544.43,115.72 731.4,301.67 186.99,186.97 301.65,445.25 301.65,731.4 0,286.16 -114.66,544.41 -301.65,731.4 -186.97,186.99 -445.25,301.65 -731.4,301.65 -286.16,0 -544.43,-114.66 -731.4,-301.65 -185.95,-186.99 -301.65,-445.25 -301.65,-731.4 0,-286.16 114.66,-544.43 301.65,-731.4 186.97,-186.99 445.25,-301.67 731.4,-301.67zm696.28 337.81c-177.68,-177.68 -423.54,-287.19 -696.28,-287.19 -271.7,0 -517.56,109.51 -695.25,287.19 -177.68,177.68 -287.18,423.56 -287.18,695.25 0,272.73 109.49,518.59 287.18,696.28 177.7,176.66 423.56,286.16 695.25,286.16 272.73,0 518.59,-109.49 695.25,-287.19 177.68,-176.65 287.18,-422.51 287.18,-695.24 0,-271.7 -109.49,-517.57 -286.16,-695.25z"/>
   <g id="_2160349433792">
    <path class="fil2" d="M19322.4 12386.72l-194.2 0 0 -128.1c0,-45.45 36.15,-55.79 55.78,-55.79 21.7,0 133.27,0 133.27,0l0 -209.71 -183.89 0c-209.71,0 -256.2,152.9 -256.2,255.18l0 138.43 -116.72 0 0 214.87 116.72 0c0,276.87 0,604.34 0,604.34l251.04 0c0,0 0,-332.64 0,-604.34l173.55 0 20.65 -214.87 0 0z"/>
   </g>
  </g>
  <g id="_2591183074992">
   <path class="fil1" d="M10183.06 20045.58l1.96 563.5c-29.44,15.71 -367.17,5.9 -396.6,5.9 -68.73,0 -359.33,9.81 -398.57,-3.93l-1.97 -569.4c43.2,-11.79 333.8,-3.93 400.54,-3.93l375 0c37.32,3.93 5.9,-1.96 19.64,7.86zm-907.1 565.48l-223.84 1.96 -1.96 -1370.49 2491.59 -1.96 0 1370.49 -1242.85 1.96 -1.96 -685.24 -1017.06 -1.96 -3.93 685.24zm1920.23 -1484.36l-102.1 0c-11.79,-7.84 -5.9,15.71 -9.83,-25.51 -1.96,-5.9 0,-25.53 0,-33.39 0,-21.6 0,-45.16 0,-66.76l0 -388.75c0,-86.4 -3.93,-463.37 1.97,-514.42 35.34,-7.86 84.43,-11.79 117.82,1.96l1.96 1007.25c-5.89,29.46 3.93,11.79 -9.81,19.63zm-671.49 -1028.83l109.96 1.96 0 1026.88 -111.92 0 1.96 -1028.83zm-115.83 1028.83l-1472.57 0 0 1484.36 -111.92 1.96 0 111.93 2943.18 1.96 0 -113.89 -109.96 0 -1.97 -1486.32 -339.67 0 0 -1142.71 -339.68 0 0 1142.71 -225.79 0 -1.97 -1140.74 -337.71 -1.97 -1.97 1142.71 0.04 0z"/>
   <polygon class="fil1" points="9277.92,19012.8 10183.06,19012.8 10183.06,18898.94 9277.92,18898.94 "/>
   <polygon class="fil1" points="10522.75,19927.77 10862.43,19927.77 10862.43,19811.93 10524.7,19811.93 "/>
   <polygon class="fil1" points="10976.29,19927.77 11315.97,19925.82 11314.01,19811.93 10976.29,19811.93 "/>
   <path class="fil1" d="M11094.11 19126.69l-1.97 -1026.88 7.86 0 98.19 1.97 -1.97 1024.9c13.74,-7.84 3.93,9.83 9.81,-19.63l-1.96 -1007.25c-33.39,-13.74 -82.47,-9.81 -117.82,-1.96 -5.89,51.04 -1.96,428.01 -1.96,514.42l0 388.75c0,21.6 0,45.16 0,66.76 0,7.86 -1.97,27.49 0,33.39 3.93,41.23 -1.97,17.67 9.81,25.51z"/>
   <path class="fil1" d="M10185.02 20609.08l-785.37 0 -1.97 -561.55 785.38 -1.96c-13.74,-9.81 17.67,-3.93 -19.64,-7.86l-375 0c-66.76,0 -357.35,-7.86 -400.54,3.93l1.97 569.4c39.27,13.74 329.87,3.93 398.57,3.93 29.44,0 367.17,9.81 396.6,-5.9z"/>
  </g>
  <g id="_2591183075984">
   <path class="fil15" d="M6515.26 20045.58l1.96 563.5c-29.44,15.71 -367.17,5.9 -396.6,5.9 -68.73,0 -359.33,9.81 -398.57,-3.93l-1.97 -569.4c43.2,-11.79 333.8,-3.93 400.54,-3.93l375 0c37.32,3.93 5.9,-1.96 19.64,7.86zm-907.1 565.48l-223.84 1.96 -1.96 -1370.49 2491.59 -1.96 0 1370.49 -1242.85 1.96 -1.96 -685.24 -1017.06 -1.96 -3.93 685.24zm1920.23 -1484.36l-102.12 0c-11.77,-7.84 -5.89,15.71 -9.81,-25.51 -1.96,-5.9 0,-25.53 0,-33.39 0,-21.6 0,-45.16 0,-66.76l0 -388.75c0,-86.4 -3.93,-463.37 1.97,-514.42 35.34,-7.86 84.43,-11.79 117.8,1.96l1.97 1007.25c-5.89,29.46 3.93,11.79 -9.81,19.63zm-671.49 -1028.83l109.96 1.96 0 1026.88 -111.92 0 1.96 -1028.83zm-115.83 1028.83l-1472.57 0 0 1484.36 -111.92 1.96 0 111.93 2943.18 1.96 0 -113.89 -109.96 0 -1.97 -1486.32 -339.67 0 0 -1142.71 -339.68 0 0 1142.71 -225.79 0 -1.97 -1140.74 -337.71 -1.97 -1.97 1142.71 0.04 0z"/>
   <polygon class="fil15" points="5610.12,19012.8 6515.26,19012.8 6515.26,18898.94 5610.12,18898.94 "/>
   <polygon class="fil15" points="6854.94,19927.77 7194.63,19927.77 7194.63,19811.93 6856.9,19811.93 "/>
   <polygon class="fil15" points="7308.49,19927.77 7648.17,19925.82 7646.2,19811.93 7308.49,19811.93 "/>
   <path class="fil15" d="M7426.3 19126.69l-1.97 -1026.88 7.86 0 98.17 1.97 -1.96 1024.9c13.74,-7.84 3.93,9.83 9.81,-19.63l-1.96 -1007.25c-33.39,-13.74 -82.47,-9.81 -117.82,-1.96 -5.89,51.04 -1.96,428.01 -1.96,514.42l0 388.75c0,21.6 0,45.16 0,66.76 0,7.86 -1.97,27.49 0,33.39 3.91,41.23 -1.97,17.67 9.81,25.51z"/>
   <path class="fil15" d="M6517.22 20609.08l-785.37 0 -1.97 -561.55 785.38 -1.96c-13.74,-9.81 17.67,-3.93 -19.64,-7.86l-375 0c-66.76,0 -357.35,-7.86 -400.54,3.93l1.97 569.4c39.27,13.74 329.85,3.93 398.57,3.93 29.44,0 367.17,9.81 396.6,-5.9z"/>
  </g>
  <g id="_2591183077904">
   <g id="_2618057605296">
    <g>
     <path class="fil16" d="M20713.57 10504.64c0,75.98 37.97,113.99 75.96,151.96l0 0c37.99,37.99 113.98,75.98 151.96,75.98 37.99,0 113.98,-37.99 151.96,-75.98l569.89 -569.87c0,0 0,0 0,0 75.96,37.99 113.98,37.99 189.94,37.99 113.99,0 227.94,-37.99 303.93,-113.98l113.99 -113.99c113.98,-113.98 151.96,-303.93 75.96,-493.88l-37.99 -37.97 -227.93 227.93c-37.99,0 -75.98,37.99 -75.98,37.99 -37.99,0 -75.96,-37.99 -113.98,-75.98l0 0c-37.99,-37.97 -75.98,-75.96 -75.98,-113.98 0,-37.99 0,-37.99 37.99,-75.96l227.94 -227.94 -75.98 -37.99c-151.96,-75.96 -341.92,-37.97 -455.89,75.98l-113.98 113.98c-151.96,113.98 -151.96,303.93 -75.98,493.88 0,0 -37.97,0 -37.97,0l-569.89 569.87c-37.97,37.99 -37.97,113.99 -37.97,151.96l-0.03 0zm113.95 -75.99l569.87 -569.87c37.99,0 37.99,0 37.99,0l75.98 -37.99 -37.99 -37.99c-75.98,-151.96 -75.98,-303.93 37.99,-417.91l113.98 -113.99c37.99,-37.97 113.98,-75.96 189.95,-75.96 37.97,0 75.96,0 75.96,0l-113.98 113.98c-37.99,37.99 -75.98,113.98 -37.99,189.95 0,37.99 0,113.98 75.98,151.96l0 0c37.99,75.98 113.98,75.98 189.95,75.98 37.97,0 113.98,0 151.96,-37.99l113.98 -113.99c0,113.99 0,189.95 -75.98,265.96l-113.98 113.98c-75.98,75.98 -151.96,113.98 -227.94,113.98 -75.96,0 -113.98,-37.99 -189.94,-75.96l-37.99 -37.99 -37.99 75.96c0,0 0,0 0,0l-569.87 607.87c-37.99,0 -37.99,0 -75.98,0 -37.99,0 -37.99,0 -75.96,-37.99l0 0c-37.99,-37.99 -37.99,-37.99 -37.99,-75.98 0,-37.99 0,-37.99 0,-75.96l-0.03 -0.06z"/>
    </g>
   </g>
  </g>
  <path class="fil8" d="M15225.08 10699.67c-117.56,-39.19 -274.3,-78.37 -391.85,-117.56 -117.56,-78.37 -195.93,-156.74 -274.3,-274.3 -78.37,-156.74 -39.19,-313.48 0,-470.22 39.19,-117.56 78.37,-274.28 -39.19,-431.02l-39.19 -39.19 313.48 -313.48 39.19 39.19c78.37,39.19 156.74,78.37 195.93,78.37 78.37,0 117.56,0 195.93,-39.19l39.19 0 39.19 0c39.19,39.19 117.56,39.19 156.74,39.19 78.37,0 156.74,-39.19 195.93,-78.37l78.37 -39.19 313.48 313.48 -39.19 39.19c-117.56,156.74 -78.37,313.47 -39.19,431.02 39.19,156.74 78.37,313.48 0,470.22 -78.37,117.56 -195.93,195.93 -313.48,274.3 -117.56,39.19 -235.11,78.37 -391.85,117.56l0 0 -39.19 0zm-195.93 -862.09l156.74 156.73 352.67 -391.84 78.37 117.56 -431.04 431.02 -235.11 -195.93 78.37 -117.54zm-117.56 626.95c78.37,39.19 235.11,78.37 352.67,117.56 117.56,-39.19 235.11,-78.37 352.67,-117.56 78.37,-39.19 195.93,-117.56 235.11,-195.93 78.37,-156.74 39.19,-274.3 0,-391.84 -39.19,-156.74 -78.37,-313.48 39.19,-470.22l-195.93 -195.93c-78.37,39.19 -117.56,78.37 -195.93,78.37 -78.37,0 -156.74,0 -235.11,-39.19 -78.37,39.19 -156.74,39.19 -235.11,39.19 -78.37,0 -156.74,-39.19 -195.93,-78.37l-195.93 195.93c117.56,156.74 78.37,313.48 39.19,470.22 -39.19,117.54 -78.37,235.1 0,391.84 39.19,78.37 117.56,156.74 235.11,195.93z"/>
  <path class="fil3" d="M14559.84 28280.53l-1572.34 0c-49.35,0 -91.66,-21.15 -126.9,-56.4 -28.22,-28.22 -49.35,-70.5 -49.35,-119.86l0 -1515.95c0,-49.35 21.16,-91.65 49.35,-126.9 35.24,-28.22 77.55,-49.35 126.9,-49.35l2298.57 0c49.35,0 91.66,21.16 126.9,49.35 28.22,35.26 49.35,77.55 49.35,126.9l0 1015.34c14.09,7.05 28.22,7.05 49.34,14.09 91.66,35.26 211.52,56.4 352.55,49.35l49.35 0 7.05 56.4c35.26,338.46 -21.15,599.31 -141.03,803.78 -119.86,204.45 -303.17,345.48 -535.86,444.2l-21.15 14.09 -21.16 -14.09c-232.67,-98.71 -416.01,-239.74 -535.86,-444.2 -42.31,-77.57 -77.55,-155.12 -105.77,-246.78l0.04 0.03zm789.69 -740.33l0 -458.29 -2418.44 0 0 1022.36c0,14.09 0,28.22 14.09,42.31 7.05,7.07 28.22,14.09 42.31,14.09l1544.12 0c-21.15,-126.9 -21.15,-274.98 -7.05,-437.14l7.05 -56.4 56.42 0c133.96,7.07 253.83,-14.09 345.48,-49.34 98.71,-35.26 176.28,-84.62 253.83,-141.03l35.26 -28.22 35.24 28.22c28.22,21.15 56.4,42.31 91.66,63.46l0.01 -0.03zm-585.19 930.72c98.71,169.21 260.89,296.14 458.29,387.81 197.43,-91.66 352.55,-218.59 458.3,-387.81 98.71,-176.27 148.07,-394.86 126.9,-683.94 -126.9,0 -239.74,-21.16 -338.46,-56.4 -91.65,-35.26 -176.27,-84.62 -246.77,-133.97 -70.5,49.35 -155.12,98.71 -246.78,133.97 -98.71,35.24 -211.52,56.4 -338.46,56.4 -21.15,289.08 28.22,507.67 126.9,683.94l0.06 0zm-1501.86 -662.79l726.23 0 0 112.81 -726.23 0 0 -112.81zm2087.05 -839.06l0 -380.74c0,-14.09 -7.05,-35.26 -21.15,-42.31 -7.05,-14.09 -21.15,-14.09 -42.31,-14.09l-2298.57 0c-14.09,0 -35.26,0 -42.31,14.09 -14.09,7.05 -14.09,28.22 -14.09,42.31l0 380.74 2418.44 0z"/>
  <path class="fil4" d="M18122.03 28280.53l-1572.34 0c-49.35,0 -91.66,-21.15 -126.9,-56.4 -28.22,-28.22 -49.35,-70.5 -49.35,-119.86l0 -1515.95c0,-49.35 21.15,-91.65 49.35,-126.9 35.24,-28.22 77.55,-49.35 126.9,-49.35l2298.57 0c49.34,0 91.65,21.16 126.9,49.35 28.22,35.26 49.35,77.55 49.35,126.9l0 1015.34c14.09,7.05 28.2,7.05 49.34,14.09 91.66,35.26 211.52,56.4 352.55,49.35l49.35 0 7.05 56.4c35.26,338.46 -21.15,599.31 -141.03,803.78 -119.86,204.45 -303.17,345.48 -535.86,444.2l-21.15 14.09 -21.16 -14.09c-232.67,-98.71 -416.01,-239.74 -535.86,-444.2 -42.31,-77.57 -77.55,-155.12 -105.77,-246.78l0.04 0.03zm789.69 -740.33l0 -458.29 -2418.44 0 0 1022.36c0,14.09 0,28.22 14.09,42.31 7.05,7.07 28.22,14.09 42.31,14.09l1544.12 0c-21.15,-126.9 -21.15,-274.98 -7.05,-437.14l7.05 -56.4 56.4 0c133.97,7.07 253.83,-14.09 345.5,-49.34 98.71,-35.26 176.27,-84.62 253.83,-141.03l35.24 -28.22 35.26 28.22c28.22,21.15 56.4,42.31 91.65,63.46l0.03 -0.03zm-585.19 930.72c98.71,169.21 260.89,296.14 458.29,387.81 197.43,-91.66 352.55,-218.59 458.3,-387.81 98.71,-176.27 148.05,-394.86 126.9,-683.94 -126.9,0 -239.74,-21.16 -338.46,-56.4 -91.66,-35.26 -176.28,-84.62 -246.78,-133.97 -70.5,49.35 -155.12,98.71 -246.77,133.97 -98.71,35.24 -211.52,56.4 -338.46,56.4 -21.16,289.08 28.22,507.67 126.9,683.94l0.06 0zm-1501.86 -662.79l726.23 0 0 112.81 -726.23 0 0 -112.81zm2087.05 -839.06l0 -380.74c0,-14.09 -7.05,-35.26 -21.15,-42.31 -7.07,-14.09 -21.16,-14.09 -42.31,-14.09l-2298.57 0c-14.09,0 -35.26,0 -42.31,14.09 -14.09,7.05 -14.09,28.22 -14.09,42.31l0 380.74 2418.44 0z"/>
  <g id="_2591183080432">
   <path class="fil12" d="M15899.11 11566.87c285.13,0 543.39,114.68 730.38,301.65 186.99,186.99 303.71,445.25 303.71,730.38 0,285.12 -116.72,543.39 -303.71,730.37 -186.99,186.99 -445.25,303.72 -730.38,303.72 -285.12,0 -543.39,-116.74 -730.37,-303.72 -186.99,-186.97 -301.65,-445.25 -301.65,-730.37 0,-285.13 115.7,-543.39 301.65,-730.38 186.97,-185.95 445.25,-301.65 730.37,-301.65zm695.25 337.81c-177.68,-177.68 -423.56,-288.23 -695.25,-288.23 -270.66,0 -516.52,110.54 -694.22,288.23 -177.68,177.68 -288.21,423.56 -288.21,694.22 0,271.7 110.53,517.56 288.21,695.24 177.7,177.7 423.56,288.23 694.22,288.23 271.7,0 517.57,-110.53 695.25,-288.23 177.68,-177.68 288.21,-423.54 288.21,-695.24 0,-270.66 -110.53,-516.53 -288.21,-694.22z"/>
   <path class="fil2" d="M15899.11 12325.15c-149.79,0 -270.66,121.89 -270.66,271.68 0,149.8 118.8,270.67 270.66,270.67 149.8,0 271.7,-123.97 271.7,-270.67 0,-149.79 -123.97,-271.68 -271.7,-271.68zm0 443.17c-95.03,0 -174.59,-76.44 -174.59,-171.49 0,-96.07 79.55,-174.59 174.59,-174.59 92.98,0 172.53,78.52 172.53,174.59 0,95.05 -79.55,171.49 -172.53,171.49z"/>
   <circle class="fil2" cx="16179.07" cy="12319.97" r="61.98"/>
   <path class="fil2" d="M16340.23 12158.81c-56.81,-55.78 -136.35,-83.67 -223.13,-83.67l-438.02 0c-182.85,0 -303.72,120.87 -303.72,303.72l0 434.91c0,89.88 27.9,169.43 86.78,226.25 56.81,55.79 133.27,83.67 220.04,83.67l431.83 0c89.88,0 166.32,-29.95 223.13,-83.67 56.83,-54.75 86.78,-133.27 86.78,-223.13l0 -438.02c0,-86.78 -29.95,-163.23 -83.69,-220.05l0 0zm-8.25 658.07c0,65.08 -25.84,118.8 -61.98,154.96 -40.3,34.09 -90.92,53.72 -156,53.72l-431.83 0c-61.98,0 -115.7,-19.63 -154.96,-53.72 -37.18,-39.26 -56.81,-92.98 -56.81,-158.07l0 -434.91c0,-61.98 19.63,-115.72 56.81,-151.86 36.16,-37.2 92.98,-56.83 154.96,-56.83l438.02 0c61.98,0 115.7,19.63 151.86,56.83 37.18,39.26 59.92,92.98 59.92,151.86l0 438.02 0 0z"/>
  </g>
  <g id="_2591183080912">
   <g id="_2334373464128">
    <path class="fil17" d="M9906.81 4741.69c-220.84,0 -400.54,-179.7 -400.54,-400.56 0,-220.86 179.7,-400.53 400.54,-400.53 220.87,0 400.53,179.7 400.53,400.53 0.03,220.86 -179.66,400.56 -400.53,400.56zm0 -755.82c-195.91,0 -355.28,159.37 -355.28,355.25 0,195.91 159.37,355.3 355.28,355.3 195.9,0 355.28,-159.38 355.28,-355.3 0.01,-195.9 -159.37,-355.25 -355.28,-355.25z"/>
    <path class="fil17" d="M9906.87 4140.99c-73.1,0.1 -132.39,59.38 -132.48,132.5 0.44,13.63 11.63,24.46 25.28,24.46 13.64,0 24.84,-10.84 25.28,-24.46 0,-45.25 36.69,-81.93 81.92,-81.93 45.25,0 81.93,36.69 81.93,81.93 0,45.23 -36.69,81.92 -81.93,81.92 -13.95,0.01 -25.25,11.32 -25.27,25.27l0 97.18c0.63,13.51 11.76,24.14 25.27,24.14 13.52,0 24.65,-10.63 25.27,-24.13l0 -74.34c62.22,-12.14 107.13,-66.66 107.13,-130.04 0,-73.14 -59.25,-132.45 -132.38,-132.5l-0.01 0zm0 401.3c-13.9,0.01 -25.19,11.3 -25.19,25.21 0,13.93 11.3,25.22 25.22,25.22 0,0 0.01,0 0.03,0 13.9,-0.01 25.19,-11.3 25.19,-25.22 0,-13.92 -11.3,-25.21 -25.22,-25.21 0,0 -0.01,0 -0.03,0l0 0z"/>
   </g>
  </g>
  <g id="_2591183083568">
   <g id="_2370789019296">
    <path class="fil18" d="M8850.4 4741.69c-220.86,0 -400.56,-179.7 -400.56,-400.56 0,-220.86 179.7,-400.53 400.56,-400.53 220.86,0 400.53,179.7 400.53,400.53 0.03,220.86 -179.67,400.56 -400.53,400.56zm0 -755.82c-195.91,0 -355.28,159.37 -355.28,355.25 0,195.91 159.37,355.3 355.28,355.3 195.88,0 355.27,-159.38 355.27,-355.3 0.03,-195.9 -159.35,-355.25 -355.27,-355.25z"/>
    <path class="fil18" d="M8850.46 4140.99c-73.11,0.1 -132.39,59.38 -132.5,132.5 0.45,13.63 11.64,24.46 25.28,24.46 13.66,0 24.84,-10.84 25.28,-24.46 0,-45.25 36.7,-81.93 81.93,-81.93 45.23,0 81.92,36.69 81.92,81.93 0,45.23 -36.69,81.92 -81.92,81.92 -13.95,0.01 -25.25,11.32 -25.27,25.27l0 97.18c0.61,13.51 11.74,24.14 25.27,24.14 13.51,0 24.64,-10.63 25.27,-24.13l0 -74.34c62.22,-12.14 107.13,-66.66 107.13,-130.04 0,-73.14 -59.27,-132.45 -132.39,-132.5l0 0zm0 401.3c-13.92,0.01 -25.19,11.3 -25.19,25.21 0,13.93 11.29,25.22 25.22,25.22 0,0 0.01,0 0.03,0 13.9,-0.01 25.18,-11.3 25.18,-25.22 0,-13.92 -11.29,-25.21 -25.21,-25.21 -0.01,0 -0.03,0 -0.03,0l0 0z"/>
   </g>
  </g>
  <g id="_2591183082800">
   <g id="_2334373444256">
    <path class="fil9" d="M0.12 4868.67l0 51.51c15.96,4.29 34.91,27.65 78.38,-20.37l33.21 -35.56c20.64,-21.79 51.53,-62.55 73.07,-64.36 2.85,10.78 11.16,24.01 15.96,35.56 8.82,20.9 6.75,101.87 65.66,101.87l193.24 0c29.59,0 52.05,-23.75 55.81,-60.07 1.69,-15.85 4.03,-21.03 7.14,-31.55 34.39,-116.02 151.7,-147.29 151.7,-324.95 0,-111.86 -47.23,-155.59 -47.23,-171.81 0,-13.12 77.22,-82.93 95.25,-102.26 12.72,-13.63 2.34,-8.56 16.36,-13.76l0 -42.97c-12.98,-3.49 -9.48,0 -12.85,-12.84l-42.95 0c-7.54,20.75 -162.35,168.83 -168.59,175.06 -29.72,29.72 -56.2,56.33 -85.92,85.92 -8.31,8.31 -13.35,13.36 -21.02,21.94l-64.1 64.76c-57.62,57.35 -112.25,114.97 -170.4,173.24 -29.72,29.72 -56.2,56.32 -85.92,85.92l-31.65 32.83c-13.12,12.59 -41.54,47.1 -55.28,52.04l0.12 -0.15z"/>
    <path class="fil9" d="M51.64 4516.45c0,60.99 18.18,132.5 53.6,178.3 11.16,14.42 1.3,10.14 23.75,10.65 6.22,-23.63 232.29,-235.02 264.99,-271.89 6.75,-7.65 4.54,-6.09 12.08,-13.76 28.8,-29.33 132.63,-131.33 143.79,-152.48 -43.6,-29.21 -88.11,-57.89 -158.96,-60.35 -91.24,-3.11 -169.36,11.93 -237.23,80.71 -24.65,25.05 -32.7,29.08 -50.74,61 -31.8,56.32 -51.26,86.04 -51.26,167.78l-0.01 0.03z"/>
    <path class="fil9" d="M214.91 5019.07c0,86.3 20.89,72.54 46.33,95.39 16.49,14.79 15.45,63.46 43.87,63.46 79.67,0 126.52,12.72 143.79,-23.75 6.48,-13.76 4.41,-25.44 14.27,-37.24 1.43,-1.69 48.15,-29.08 48.15,-55.02l0 -51.53c0,-12.59 -21.81,-34.39 -34.39,-34.39l-227.62 0c-15.32,0 -34.39,24.92 -34.39,42.95l0 0.13z"/>
   </g>
  </g>
  <g id="_2591183084592">
   <g id="_2334373472416">
    <path class="fil11" d="M848.43 4868.68l0 51.56c15.89,4.29 35.01,27.71 78.38,-20.4l33.3 -35.45c20.61,-21.69 51.56,-62.49 73.02,-64.22 2.79,10.75 11.17,24.05 15.89,35.65 8.81,20.84 6.66,101.81 65.72,101.81l193.31 0c29.63,0 51.98,-23.63 55.83,-60.14 1.72,-15.89 4.07,-21.03 7.08,-31.58 34.37,-115.98 151.63,-147.33 151.63,-324.95 0,-111.9 -47.25,-155.72 -47.25,-171.83 0,-13.1 77.1,-82.9 95.36,-102.23 12.68,-13.52 2.37,-8.59 16.33,-13.74l0 -42.95c-12.9,-3.45 -9.45,0 -12.9,-12.9l-42.95 0c-7.51,20.84 -162.36,168.82 -168.6,175.06 -29.63,29.63 -56.05,56.26 -85.92,85.91 -8.37,8.38 -13.32,13.54 -21.05,21.91l-64 64.86c-57.56,57.34 -112.11,114.9 -170.32,173.11 -29.63,29.63 -56.26,56.26 -85.91,85.91l-31.58 32.88c-13.1,12.66 -41.45,47.03 -55.41,51.98l0.01 -0.23z"/>
    <path class="fil11" d="M899.97 4516.66c0,60.99 18.26,132.51 53.69,178.27 11.17,14.39 1.29,10.09 23.62,10.73 6.22,-23.62 232.18,-234.96 265.04,-271.9 6.86,-7.52 4.5,-6.02 12.02,-13.76 28.79,-29.2 132.53,-131.23 143.9,-152.49 -43.6,-29.21 -88.05,-57.98 -158.93,-60.35 -91.28,-3.01 -169.23,11.8 -237.1,80.75 -24.71,24.92 -32.66,29.01 -50.69,60.99 -31.8,56.27 -51.34,86.13 -51.34,167.75l-0.2 0z"/>
    <path class="fil11" d="M1063.21 5019.03c0,86.34 20.83,72.38 46.17,95.36 16.53,14.82 15.47,63.37 43.81,63.37 79.68,0 126.51,12.66 143.68,-23.85 6.44,-13.74 4.29,-25.56 14.39,-37.16 1.5,-1.71 48.12,-28.99 48.12,-54.97l0 -51.56c0,-12.66 -21.7,-34.37 -34.37,-34.37l-227.68 0c-15.25,0 -34.37,24.92 -34.37,42.97l0.23 0.2z"/>
   </g>
  </g>
  <g id="_2591183083952">
   <rect class="fil5 str1" x="23558.93" y="8937.6" width="1880.98" height="1880.98"/>
   <polygon class="fil2" points="24715.88,9585.69 24424.75,9876.83 24715.88,10165.42 24627.27,10256.57 24245,9876.83 24627.27,9494.56 "/>
  </g>
  <g id="_2591183087216">
   <polygon class="fil10" points="2217.28,986.49 2020.67,1182.77 2217.28,1377.64 2157.3,1439.03 1899.65,1182.77 2157.3,924.77 "/>
   <path class="fil19" d="M2090.72 154.96c283.31,0 540.25,115.13 726.12,300.64 185.86,185.86 300.64,442.81 300.64,726.47 0,283.31 -114.78,540.25 -300.64,726.12 -185.86,185.86 -442.81,300.64 -726.12,300.64 -283.66,0 -540.6,-114.78 -726.47,-300.64 -185.53,-185.86 -300.64,-442.81 -300.64,-726.12 0,-283.66 115.12,-540.6 300.64,-726.47 185.86,-185.53 442.81,-300.64 726.47,-300.64zm687.98 338.79c-176.17,-176.15 -419.25,-285.05 -687.98,-285.05 -268.75,0 -512.17,108.89 -688.33,285.05 -176.15,176.15 -285.03,419.59 -285.03,688.32 0,268.75 108.88,511.83 285.03,687.98 176.17,176.15 419.59,285.05 688.33,285.05 268.75,0 511.82,-108.89 687.98,-285.05 176.15,-176.15 285.03,-419.24 285.03,-687.98 0,-268.73 -108.88,-512.17 -285.03,-688.32z"/>
  </g>
  <g id="_2591183087568">
   <polygon class="fil6" points="4555.39,986.49 4358.78,1182.77 4555.39,1377.64 4495.39,1439.03 4237.76,1182.77 4495.39,924.77 "/>
   <path class="fil20" d="M4428.82 154.96c283.31,0 540.25,115.13 726.12,300.64 185.86,185.86 300.64,442.81 300.64,726.47 0,283.31 -114.78,540.25 -300.64,726.12 -185.86,185.86 -442.81,300.64 -726.12,300.64 -283.66,0 -540.6,-114.78 -726.47,-300.64 -185.53,-185.86 -300.64,-442.81 -300.64,-726.12 0,-283.66 115.12,-540.6 300.64,-726.47 185.86,-185.53 442.81,-300.64 726.47,-300.64zm687.97 338.79c-176.15,-176.15 -419.24,-285.05 -687.97,-285.05 -268.75,0 -512.17,108.89 -688.33,285.05 -176.15,176.15 -285.03,419.59 -285.03,688.32 0,268.75 108.88,511.83 285.03,687.98 176.17,176.15 419.59,285.05 688.33,285.05 268.75,0 511.82,-108.89 687.97,-285.05 176.17,-176.15 285.05,-419.24 285.05,-687.98 0,-268.73 -108.88,-512.17 -285.05,-688.32z"/>
  </g>
  <g id="_2591183089584">
   <g id="_2618057583920">
    <g>
     <g id="Icon-Like_7">
      <path id="Fill-4_2__8" class="fil1" d="M33817.64 9896.12c0,-97.78 -79.44,-146.66 -183.32,-146.66l-305.55 0c18.33,-79.44 30.55,-158.89 30.55,-226.1 0,-262.77 -73.33,-317.76 -134.44,-317.76 -42.78,0 -73.33,0 -116.11,30.55 -12.22,6.1 -18.33,18.33 -18.33,30.55l-48.88 244.43c-48.88,128.33 -171.11,244.43 -268.88,317.76l0 647.76c30.55,0 73.33,18.33 116.11,36.66 48.88,24.45 97.78,48.88 152.77,48.88l433.87 0c91.66,0 158.89,-73.33 158.89,-134.44 0,-12.22 0,-24.45 -6.1,-36.66 61.11,-18.33 97.78,-67.23 97.78,-122.21 0,-24.45 -6.1,-48.88 -18.33,-67.23 36.66,-24.45 73.33,-67.23 73.33,-116.11 0,-18.33 -12.22,-48.88 -30.55,-73.33 36.66,-30.55 67.23,-73.33 67.23,-116.11l0 0 -0.03 0.01zm-97.78 0c0,61.11 -61.11,67.23 -67.23,91.66 -12.22,30.55 36.66,42.78 36.66,97.78 0,55 -73.33,55 -79.44,85.56 -12.22,30.55 18.33,42.78 18.33,97.78 0,6.1 0,6.1 0,12.22 -6.1,42.78 -79.44,48.88 -91.66,67.23 -6.1,18.33 6.1,30.55 6.1,79.44 0,24.45 -30.55,42.78 -67.23,42.78l-433.87 0c-30.55,0 -73.33,-18.33 -109.99,-36.66 -36.66,-18.33 -73.33,-36.66 -116.11,-48.88l0 -476.65c116.11,-85.56 256.65,-213.88 317.76,-372.76 0,-6.1 0,-6.1 0,-6.1l42.78 -226.1c18.33,-6.1 30.55,-6.1 55,-6.1 6.1,0 42.78,55 42.78,226.1 0,67.23 -12.22,140.54 -36.66,226.1l-12.22 0c-24.45,0 -42.78,24.45 -42.78,42.78 0,24.45 18.33,48.88 42.78,48.88l409.44 0c42.78,0 85.56,18.33 85.56,55l0 0 0 -0.04z"/>
      <path id="Fill-6_2__9" class="fil1" d="M32723.78 10568.31l-268.88 0c-55,0 -91.66,-42.78 -91.66,-91.66l0 -635.54c0,-55 36.66,-91.66 91.66,-91.66l268.88 0c55,0 91.66,36.66 91.66,91.66l0 635.54c0,48.88 -36.66,91.66 -91.66,91.66l0 0zm-268.88 -727.2l0 635.54 268.88 0 0 -635.54 -268.88 0 0 0zm-91.66 -635.54z"/>
     </g>
    </g>
   </g>
  </g>
  <g id="_2591183088208">
   <g id="_2618065840112">
    <g>
     <g id="Icon-Like_10">
      <path id="Fill-4_2__11" class="fil6" d="M35403.12 9896.12c0,-97.78 -79.44,-146.66 -183.32,-146.66l-305.55 0c18.33,-79.44 30.55,-158.89 30.55,-226.1 0,-262.77 -73.33,-317.76 -134.44,-317.76 -42.78,0 -73.33,0 -116.11,30.55 -12.22,6.1 -18.33,18.33 -18.33,30.55l-48.88 244.43c-48.88,128.33 -171.11,244.43 -268.88,317.76l0 647.76c30.55,0 73.33,18.33 116.11,36.66 48.88,24.45 97.78,48.88 152.77,48.88l433.87 0c91.66,0 158.89,-73.33 158.89,-134.44 0,-12.22 0,-24.45 -6.1,-36.66 61.11,-18.33 97.78,-67.23 97.78,-122.21 0,-24.45 -6.1,-48.88 -18.33,-67.23 36.66,-24.45 73.33,-67.23 73.33,-116.11 0,-18.33 -12.22,-48.88 -30.55,-73.33 36.66,-30.55 67.23,-73.33 67.23,-116.11l0 0 -0.03 0.01zm-97.78 0c0,61.11 -61.11,67.23 -67.23,91.66 -12.22,30.55 36.66,42.78 36.66,97.78 0,55 -73.33,55 -79.44,85.56 -12.22,30.55 18.33,42.78 18.33,97.78 0,6.1 0,6.1 0,12.22 -6.1,42.78 -79.44,48.88 -91.66,67.23 -6.1,18.33 6.1,30.55 6.1,79.44 0,24.45 -30.55,42.78 -67.23,42.78l-433.87 0c-30.55,0 -73.33,-18.33 -109.99,-36.66 -36.66,-18.33 -73.33,-36.66 -116.11,-48.88l0 -476.65c116.11,-85.56 256.65,-213.88 317.76,-372.76 0,-6.1 0,-6.1 0,-6.1l42.78 -226.1c18.33,-6.1 30.55,-6.1 55,-6.1 6.1,0 42.78,55 42.78,226.1 0,67.23 -12.22,140.54 -36.66,226.1l-12.22 0c-24.45,0 -42.78,24.45 -42.78,42.78 0,24.45 18.33,48.88 42.78,48.88l409.44 0c42.78,0 85.56,18.33 85.56,55l0 0 0 -0.04z"/>
      <path id="Fill-6_2__12" class="fil6" d="M34309.27 10568.31l-268.88 0c-55,0 -91.66,-42.78 -91.66,-91.66l0 -635.54c0,-55 36.66,-91.66 91.66,-91.66l268.88 0c55,0 91.66,36.66 91.66,91.66l0 635.54c0,48.88 -36.66,91.66 -91.66,91.66l0 0zm-268.88 -727.2l0 635.54 268.88 0 0 -635.54 -268.88 0 0 0zm-91.66 -635.54z"/>
     </g>
    </g>
   </g>
  </g>
  <g id="_2591183090576">
   <g id="_2370788955040">
    <path class="fil21" d="M10102.71 7235.1l0 -247.35c0,-27.12 -22.27,-49.39 -49.39,-49.39l-296.73 0c-27.12,0 -49.39,22.27 -49.39,49.39l0 247.35c0,27.12 22.27,49.39 49.39,49.39l296.73 0c27.12,0 49.39,-22.27 49.39,-49.39zm-148.37 -123.67c0,27.12 -22.27,49.39 -49.39,49.39 -27.12,0 -49.39,-22.27 -49.39,-49.39 0,-27.12 22.27,-49.38 49.39,-49.38 27.12,0 49.39,22.26 49.39,49.38z"/>
    <path class="fil22" d="M10003.73 7037.34l0 -123.67c0,-27.73 -10.94,-52.62 -28.55,-70.24 -17.8,-17.82 -42.5,-28.54 -70.24,-28.54 -27.73,0 -52.62,10.92 -70.24,28.54 -17.82,17.8 -28.54,42.5 -28.54,70.24l0 123.67 -49.39 0 0 -123.67c0,-41.49 16.39,-78.53 43.11,-105.26 26.71,-26.71 63.77,-43.11 105.26,-43.11 41.49,0 78.53,16.39 105.26,43.11 26.71,26.71 43.11,63.77 43.11,105.26l0 123.67 -49.38 0 -0.41 0z"/>
   </g>
  </g>
  <g id="_2591183090160">
   <g id="_2274102046880">
    <path class="fil23" d="M17698.39 8217.76l664.07 0 0 -201.23 -450.27 0 0 -872.88 -213.8 0 0 1074.11zm1043.92 0l0 -1074.11 -216.33 0 0 1074.11 216.33 0zm233.93 0l555.92 0c125.79,0 211.3,-85.54 211.3,-211.29l0 -176.08c0,-72.95 -35.23,-125.79 -105.67,-160.99 62.9,-37.72 95.6,-90.57 95.6,-160.98l0 -153.43c0,-125.79 -88.05,-211.3 -213.82,-211.3l-543.35 0 0 1074.11 0 -0.04zm216.33 -872.85l274.19 0c35.21,0 50.31,15.09 50.31,50.31l0 128.3c0,40.25 -10.06,50.31 -50.31,50.31l-274.19 0 0 -228.9 0 -0.03zm0 420.07l269.15 0c47.8,0 67.93,5.04 67.93,47.8l0 155.95c0,32.7 -17.61,50.31 -50.31,50.31l-286.77 0 0 -254.07zm752.13 452.78l704.32 0 0 -201.23 -488 0 0 -246.52 394.92 0 0 -201.24 -394.92 0 0 -221.35 488 0 0 -203.75 -704.32 0 0 1074.12 0 -0.03zm1506.77 -407.49c90.57,-25.16 145.89,-100.63 145.89,-201.24l0 -254.05c0,-125.79 -85.54,-211.3 -211.29,-211.3l-548.39 0 0 1074.12 216.33 0 0 -397.43 173.57 0 171.04 397.43 231.42 0 -178.59 -407.49 0.03 -0.03zm-67.93 -241.49c0,35.23 -17.6,50.31 -50.31,50.31l-279.22 0 0 -271.67 279.22 0c32.72,0 50.31,15.1 50.31,50.31l0 171.04zm1106.82 -425.12l-777.29 0 0 201.23 281.74 0 0 872.88 213.8 0 0 -872.88 281.74 0 0 -201.23zm603.73 832.63l70.44 241.48 231.42 0 -347.15 -1074.11 -251.54 0 -344.63 1074.11 221.35 0 72.97 -241.48 347.15 0zm-57.86 -203.75l-231.42 0 118.23 -392.41 113.22 392.41 -0.03 0z"/>
    <polygon class="fil18" points="16282.16,7840.46 16936.2,7178.87 16654.45,6746.22 "/>
    <polygon class="fil24" points="15389.15,5790.34 16767.64,5785.32 17544.92,6572.66 17009.12,7108.46 16724.88,6683.32 "/>
    <polygon class="fil18" points="17612.84,6504.73 17253.12,6139.99 17776.35,6031.82 17965.01,6223 17695.86,6255.7 "/>
   </g>
  </g>
  <path class="fil23" d="M17504.91 5425.58l572.82 0 0 -173.83 -389.13 0 0 -750.59 -183.7 0 0 924.42 0.01 0zm896.74 0l0 -924.42 -183.7 0 0 924.42 183.7 0zm203.48 0l478.02 0c108.65,0 181.73,-75.05 181.73,-181.73l0 -152.1c0,-63.21 -29.63,-108.65 -90.87,-138.27 53.32,-31.61 80.98,-79.01 80.98,-138.27l0 -132.34c0,-106.67 -75.05,-181.73 -181.73,-181.73l-468.13 0 0 924.42zm185.66 -752.56l235.05 0c29.65,0 43.45,13.83 43.45,43.44l0 110.63c0,35.56 -7.9,43.45 -43.45,43.45l-235.05 0 0 -197.52zm0 361.46l231.11 0c41.46,0 59.25,5.93 59.25,41.48l0 134.31c0,29.65 -15.8,43.45 -43.45,43.45l-246.91 0 0 -219.25 0 0.01zm647.88 391.11l604.43 0 0 -173.83 -418.74 0 0 -211.35 339.74 0 0 -173.83 -339.74 0 0 -191.59 418.74 0 0 -173.83 -604.43 0 0 924.42zm1295.78 -349.63c77.03,-21.73 126.41,-88.89 126.41,-175.8l0 -217.28c0,-106.67 -75.05,-181.74 -181.73,-181.74l-472.09 0 0 924.44 185.66 0 0 -343.68 148.15 0 150.11 343.68 197.52 0 -154.07 -349.61 0.04 0zm-59.25 -209.38c0,29.63 -13.83,43.45 -43.45,43.45l-239.01 0 0 -235.05 239.01 0c29.63,0 43.45,13.83 43.45,43.44l0 148.15 0 0.01zm952.07 -365.42l-667.64 0 0 171.86 242.95 0 0 752.56 183.72 0 0 -752.56 240.98 0 0 -171.86 -0.01 0zm521.47 717.03l59.25 207.39 199.49 0 -298.26 -924.42 -215.31 0 -298.26 924.42 191.59 0 61.24 -207.39 300.23 0 0.03 0zm-49.38 -175.81l-199.5 0 100.75 -337.75 98.77 337.75 -0.01 0z"/>
  <polygon class="fil18" points="15937.9,5626.26 16386.83,5171.34 16193.14,4875.55 "/>
  <polygon class="fil24" points="15326.83,4222.43 16269.73,4217.93 16802.72,4756.94 16436.38,5124.78 16241.19,4832.01 "/>
  <polygon class="fil18" points="16849.28,4710.39 16603.04,4461.16 16960.38,4387.58 17090.99,4516.7 16906.33,4540.74 "/>
  <path class="fil6" d="M18531.64 3121.29c20.42,-20.42 40.84,-61.27 40.84,-102.12 0,-122.54 -102.12,-224.68 -224.67,-224.68 -122.55,0 -224.68,102.12 -224.68,224.68 0,40.85 20.42,81.7 20.42,102.12l204.24 326.8 183.8 -326.8 0.06 0zm-183.82 -265.52c81.7,0 142.97,61.27 142.97,142.95 0,81.7 -61.27,142.97 -142.97,142.97 -81.69,0 -142.97,-61.27 -142.97,-142.97 0,-81.69 61.28,-142.95 142.97,-142.95z"/>
  <g id="_2591183096176">
   <polygon class="fil7" points="6251.26,773.22 7417.39,773.22 7417.39,875.45 6251.26,875.45 "/>
   <polygon class="fil7" points="6251.26,1080.61 7417.39,1080.61 7417.39,1182.84 6251.26,1182.84 "/>
   <polygon class="fil7" points="6251.26,1407.22 7417.39,1407.22 7417.39,1509.45 6251.26,1509.45 "/>
  </g>
  <g id="_2591183094992">
   <path class="fil13" d="M27404.77 6974.92c1990.89,-13.55 3575.49,-1598.13 3589.02,-3589.02l-1178.3 0c-13.54,1340.81 -1069.95,2397.22 -2410.75,2410.75 -582.39,0 -1124.12,-203.17 -1557.52,-582.39l677.19 -677.19 -2559.72 -338.6 352.14 2546.2 690.73 -690.74c650.08,582.39 1489.78,920.99 2397.22,920.99z"/>
   <path class="fil13" d="M27553.74 0c-1990.89,13.54 -3575.49,1598.13 -3589.02,3589.02l1178.3 0c0,-1340.81 1069.96,-2410.75 2410.77,-2410.75 568.83,0 1124.1,203.16 1557.52,568.83l-677.2 690.73 2559.74 338.6 -352.14 -2546.19 -690.74 690.73c-650.07,-595.91 -1503.32,-920.97 -2397.22,-920.97z"/>
  </g>
  <g id="_2591183095888">
   <path class="fil25" d="M34801.44 6974.92c1990.89,-13.55 3575.49,-1598.13 3589.02,-3589.02l-1178.3 0c-13.54,1340.81 -1069.95,2397.22 -2410.75,2410.75 -582.39,0 -1124.12,-203.17 -1557.52,-582.39l677.19 -677.19 -2559.72 -338.6 352.14 2546.2 690.73 -690.74c650.08,582.39 1489.78,920.99 2397.22,920.99z"/>
   <path class="fil25" d="M34950.41 0c-1990.89,13.54 -3575.49,1598.13 -3589.02,3589.02l1178.3 0c0,-1340.81 1069.96,-2410.75 2410.77,-2410.75 568.83,0 1124.1,203.16 1557.52,568.83l-677.2 690.73 2559.74 338.6 -352.14 -2546.19 -690.74 690.73c-650.07,-595.91 -1503.32,-920.97 -2397.22,-920.97z"/>
  </g>
  <circle class="fil26" cx="9225.93" cy="3223.71" r="202.79"/>
  <circle class="fil27" cx="9915.44" cy="3223.71" r="202.79"/>
  <path class="fil14" d="M12674.79 10699.67c-117.56,-39.19 -274.3,-78.37 -391.85,-117.56 -117.56,-78.37 -195.93,-156.74 -274.3,-274.3 -78.37,-156.74 -39.19,-313.48 0,-470.22 39.19,-117.56 78.37,-274.28 -39.19,-431.02l-39.19 -39.19 313.48 -313.48 39.19 39.19c78.37,39.19 156.74,78.37 195.93,78.37 78.37,0 117.56,0 195.93,-39.19l39.19 0 39.19 0c39.19,39.19 117.56,39.19 156.74,39.19 78.37,0 156.74,-39.19 195.93,-78.37l78.37 -39.19 313.48 313.48 -39.19 39.19c-117.56,156.74 -78.37,313.47 -39.19,431.02 39.19,156.74 78.37,313.48 0,470.22 -78.37,117.56 -195.93,195.93 -313.48,274.3 -117.56,39.19 -235.11,78.37 -391.85,117.56l0 0 -39.19 0zm-195.93 -862.09l156.74 156.73 352.67 -391.84 78.37 117.56 -431.04 431.02 -235.11 -195.93 78.37 -117.54zm-117.56 626.95c78.37,39.19 235.11,78.37 352.67,117.56 117.56,-39.19 235.11,-78.37 352.67,-117.56 78.37,-39.19 195.93,-117.56 235.11,-195.93 78.37,-156.74 39.19,-274.3 0,-391.84 -39.19,-156.74 -78.37,-313.48 39.19,-470.22l-195.93 -195.93c-78.37,39.19 -117.56,78.37 -195.93,78.37 -78.37,0 -156.74,0 -235.11,-39.19 -78.37,39.19 -156.74,39.19 -235.11,39.19 -78.37,0 -156.74,-39.19 -195.93,-78.37l-195.93 195.93c117.56,156.74 78.37,313.48 39.19,470.22 -39.19,117.54 -78.37,235.1 0,391.84 39.19,78.37 117.56,156.74 235.11,195.93z"/>
  <g id="_2591183097232">
   <g id="_2370788955040_13">
    <path class="fil28" d="M10102.71 8287.18l0 -247.35c0,-27.12 -22.27,-49.39 -49.39,-49.39l-296.73 0c-27.12,0 -49.39,22.27 -49.39,49.39l0 247.35c0,27.12 22.27,49.39 49.39,49.39l296.73 0c27.12,0 49.39,-22.27 49.39,-49.39zm-148.37 -123.67c0,27.12 -22.27,49.39 -49.39,49.39 -27.12,0 -49.39,-22.27 -49.39,-49.39 0,-27.12 22.27,-49.38 49.39,-49.38 27.12,0 49.39,22.26 49.39,49.38z"/>
    <path class="fil29" d="M10003.73 8089.43l0 -123.67c0,-27.73 -10.94,-52.62 -28.55,-70.24 -17.8,-17.82 -42.5,-28.54 -70.24,-28.54 -27.73,0 -52.62,10.92 -70.24,28.54 -17.82,17.8 -28.54,42.5 -28.54,70.24l0 123.67 -49.39 0 0 -123.67c0,-41.49 16.39,-78.53 43.11,-105.26 26.71,-26.71 63.77,-43.11 105.26,-43.11 41.49,0 78.53,16.39 105.26,43.11 26.71,26.71 43.11,63.77 43.11,105.26l0 123.67 -49.38 0 -0.41 0z"/>
   </g>
  </g>
  <g id="_2591183097040">
   <rect class="fil30 str2" transform="matrix(0.698972 -0.698972 0.864271 0.864271 6400.27 3078.64)" width="1146.39" height="77.27"/>
   <rect class="fil30 str2" transform="matrix(0.698972 0.698972 -0.864271 0.864271 6467.06 2277.34)" width="1146.39" height="77.27"/>
  </g>
  <path class="fil31" d="M9842.51 9347.03c125.31,0 238.51,50.66 320.46,132.79 82.15,81.93 132.79,195.14 132.79,320.48 0,114.96 -42.94,220.02 -113.64,299.96l260.77 260.77 -44.05 44.05 -260.98 -260.99c-79.29,68.28 -182.58,109.46 -295.36,109.46 -125.33,0 -238.53,-50.66 -320.48,-132.79 -81.92,-81.92 -132.79,-195.12 -132.79,-320.46 0,-125.33 50.87,-238.53 132.79,-320.48 81.93,-82.15 195.14,-132.79 320.48,-132.79zm-47.58 647.53l0 -150.43 -150.43 0 0 -87.21 150.43 0 0 -150.42 87 0 0 150.42 150.62 0 0 87.21 -150.62 0 0 150.43 -87 0zm323.97 -470.66c-70.7,-70.91 -168.5,-114.53 -276.38,-114.53 -107.93,0 -205.73,43.6 -276.4,114.53 -70.91,70.7 -114.53,168.5 -114.53,276.4 0,107.92 43.6,205.71 114.53,276.38 70.7,70.7 168.5,114.55 276.4,114.55 107.92,0 205.71,-43.84 276.38,-114.55 70.7,-70.7 114.55,-168.5 114.55,-276.38 0,-107.93 -43.84,-205.73 -114.55,-276.4z"/>
  <g id="_2591183098352">
   <g id="_2370788955040_14">
    <path class="fil32" d="M9196.47 8371.8l0 -326.77c0,-35.84 -29.41,-65.25 -65.25,-65.25l-392.01 0c-35.84,0 -65.25,29.41 -65.25,65.25l0 326.77c0,35.83 29.41,65.24 65.25,65.24l392.01 0c35.84,0 65.25,-29.41 65.25,-65.24zm-196.01 -163.39c0,35.84 -29.43,65.25 -65.25,65.25 -35.83,0 -65.25,-29.41 -65.25,-65.25 0,-35.83 29.43,-65.24 65.25,-65.24 35.83,0 65.25,29.41 65.25,65.24z"/>
    <path class="fil33" d="M9065.7 8110.55l0 -163.39c0,-36.63 -14.44,-69.52 -37.7,-92.79 -23.53,-23.53 -56.16,-37.71 -92.8,-37.71 -36.64,0 -69.52,14.44 -92.79,37.71 -23.54,23.53 -37.71,56.16 -37.71,92.79l0 163.39 -65.25 0 0 -163.39c0,-54.81 21.66,-103.75 56.96,-139.05 35.3,-35.29 84.24,-56.96 139.05,-56.96 54.83,0 103.75,21.66 139.07,56.96 35.29,35.3 56.96,84.24 56.96,139.05l0 163.39 -65.25 0 -0.54 0z"/>
   </g>
  </g>
  <polygon class="fil31" points="8666.19,15431.5 8833.59,15598.91 9244.05,15188.48 9325.88,15270.31 8833.59,15762.54 8584.36,15513.34 "/>
  <polygon class="fil34" points="13806.03,3281.74 13580.98,3049.52 13804.76,2819.09 13849.38,2861.23 13661.44,3047.03 13848.11,3236.88 "/>
  <polygon class="fil7" points="14530.83,2819.11 14755.88,3051.33 14532.1,3281.75 14487.48,3239.62 14675.42,3053.81 14488.75,2863.96 "/>
  <polygon class="fil34" points="14946.08,2819.11 15171.13,3051.33 14947.35,3281.75 14902.73,3239.62 15090.67,3053.81 14904,2863.96 "/>
  <polygon class="fil7" points="12613.04,3205.7 12845.26,2980.64 13075.68,3204.43 13033.54,3249.04 12847.74,3061.1 12657.89,3247.76 "/>
  <polygon class="fil7" points="14221.28,3281.74 13996.23,3049.52 14220.01,2819.09 14264.63,2861.23 14076.69,3047.03 14263.36,3236.88 "/>
  <polygon class="fil7" points="12216.81,3023.96 11984.59,3249.02 11754.16,3025.23 11796.3,2980.63 11982.1,3168.56 12171.95,2981.9 "/>
 </g>
</svg>
