<?xml version="1.0" encoding="utf-8"?>
<!-- Generator: Adobe Illustrator 17.1.0, SVG Export Plug-In . SVG Version: 6.00 Build 0)  -->
<!DOCTYPE svg PUBLIC "-//W3C//DTD SVG 1.1//EN" "http://www.w3.org/Graphics/SVG/1.1/DTD/svg11.dtd">
<svg version="1.1" id="Layer_1" xmlns="http://www.w3.org/2000/svg" xmlns:xlink="http://www.w3.org/1999/xlink" x="0px" y="0px"
	 viewBox="0 0 50 50" enable-background="new 0 0 50 50" xml:space="preserve">
<path fill="#E9416D" d="M9,0v1v13H3c-1.6,0-3,1.4-3,3v21c0,1.6,1.4,3,3,3h6v8v1h1h30h1v-1v-8h6c1.6,0,3-1.4,3-3V17c0-1.6-1.4-3-3-3
	h-6V1V0h-1H10H9z M11,2h28v12H11V2z M3,16h44c0.6,0,1,0.4,1,1v21c0,0.6-0.4,1-1,1h-6V29v-1h-1H10H9v1v10H3c-0.6,0-1-0.4-1-1V17
	C2,16.4,2.4,16,3,16z M43,19c-1.1,0-2,0.9-2,2s0.9,2,2,2s2-0.9,2-2S44.1,19,43,19z M11,30h28v9.8c0,0,0,0.1,0,0.1V40
	c0,0.1,0,0.1,0,0.2V48H11v-7.8c0-0.1,0-0.3,0-0.4V30z M14.8,34c-0.6,0.1-1,0.5-0.9,1.1s0.5,1,1.1,0.9h20c0.6,0,1-0.4,1-1
	c0-0.6-0.4-1-1-1c0,0,0,0,0,0H15C15,34,14.9,34,14.8,34C14.9,34,14.8,34,14.8,34z M14.8,38c-0.6,0.1-1,0.5-0.9,1.1s0.5,1,1.1,0.9h16
	c0.6,0,1-0.4,1-1c0-0.6-0.4-1-1-1c0,0,0,0,0,0H15C15,38,14.9,38,14.8,38C14.9,38,14.8,38,14.8,38z M14.8,42c-0.6,0.1-1,0.5-0.9,1.1
	s0.5,1,1.1,0.9l0,0h20c0.6,0,1-0.4,1-1c0-0.6-0.4-1-1-1c0,0,0,0,0,0H15C15,42,14.9,42,14.8,42C14.9,42,14.8,42,14.8,42z"/>
</svg>
