<?xml version="1.0" encoding="utf-8"?>
<!-- Generator: Adobe Illustrator 17.1.0, SVG Export Plug-In . SVG Version: 6.00 Build 0)  -->
<!DOCTYPE svg PUBLIC "-//W3C//DTD SVG 1.1//EN" "http://www.w3.org/Graphics/SVG/1.1/DTD/svg11.dtd">
<svg version="1.1" id="Layer_1" xmlns="http://www.w3.org/2000/svg" xmlns:xlink="http://www.w3.org/1999/xlink" x="0px" y="0px"
	 width="28.3px" height="28.3px" viewBox="0 0 28.3 28.3" enable-background="new 0 0 28.3 28.3" xml:space="preserve">
<g id="Слой_x0020_1">
	<g id="_2768821003984">
		<path fill="#D0D0D0" d="M1.5,14.2c0-3.5,1.3-6.5,3.7-8.9c1.1-1.1,2.2-2,3.7-2.6c1.8-0.8,3.9-1.3,5.9-1.1c0.3,0,0.5,0,0.8,0
			c2.3,0.3,3.8,0.8,5.8,2.2C22,4.2,22.5,4.7,23,5.2c0.6,0.6,1,1,1.5,1.7c0.4,0.6,0.8,1.3,1.1,2c0.7,1.7,1.1,3.2,1.1,5.2
			c0,0.9-0.1,2.1-0.3,2.8c-0.5,2.4-1.7,4.4-3.4,6.1c-1.7,1.7-3.6,2.8-6.1,3.4c-1.6,0.4-4.1,0.4-5.7,0C10.5,26.3,9.8,26,9,25.7
			c-0.7-0.3-1.4-0.7-2-1.1c-1.5-1-2.9-2.6-3.8-4.1C2.1,18.6,1.5,16.4,1.5,14.2L1.5,14.2z M0,13.7c0,1.9,0.1,3.6,0.8,5.3
			c0.5,1.2,1,2.4,1.8,3.4l0.7,1c0.4,0.5,0.8,0.9,1.3,1.3c1.3,1.2,1.8,1.5,3.6,2.4c1.5,0.7,3.8,1.3,5.5,1.3c2,0,3.5-0.1,5.3-0.8
			c1.6-0.6,2.5-1.1,3.8-2.1c0.7-0.5,1.2-1,1.8-1.6c0.2-0.2,0.2-0.2,0.4-0.4l0.7-1c1-1.4,1.7-3,2.2-4.7C29,13.8,28,9,25.7,6l-2.5-2.7
			C23.1,3.2,23,3.1,22.8,3c-0.2-0.1-0.3-0.2-0.5-0.4c-0.6-0.4-1.5-0.9-2.2-1.3C19.8,1.1,19.4,1,19,0.8c-2.6-1-5.6-1.1-8.3-0.4
			C9.8,0.6,8.9,0.9,8.1,1.3C6.5,2.2,5.9,2.6,4.6,3.7L3.7,4.6C3.6,4.8,3.5,4.8,3.3,5c-0.9,1.2-1.2,1.5-2,3.1C0.7,9.5,0,11.7,0,13.7
			L0,13.7z"/>
	</g>
</g>
<g>
	<path fill="#D0D0D0" d="M12.7,18.2c0-1.1,0.1-1.9,0.4-2.4s0.8-1.1,1.7-1.8c0.6-0.6,1.1-1.2,1.5-1.7s0.5-1.1,0.5-1.8
		c0-0.8-0.2-1.3-0.6-1.8s-1-0.6-1.8-0.6c-0.6,0-1.2,0.2-1.7,0.5s-0.7,0.9-0.7,1.6H9.3l0-0.1c0-1.4,0.4-2.5,1.4-3.3s2.2-1.2,3.7-1.2
		c1.6,0,2.9,0.4,3.8,1.3s1.4,2,1.4,3.5c0,1-0.3,1.9-0.9,2.8s-1.3,1.6-2.2,2.3c-0.4,0.4-0.7,0.8-0.8,1.1s-0.2,0.9-0.2,1.5H12.7z
		 M15.6,23h-2.9v-2.7h2.9V23z"/>
</g>
</svg>
