<?xml version="1.0" encoding="utf-8"?>
<!-- Generator: Adobe Illustrator 23.0.2, SVG Export Plug-In . SVG Version: 6.00 Build 0)  -->
<svg version="1.1" id="Layer_1" xmlns="http://www.w3.org/2000/svg" xmlns:xlink="http://www.w3.org/1999/xlink" x="0px" y="0px"
	 viewBox="0 0 100 100" style="enable-background:new 0 0 100 100;" xml:space="preserve">
<style type="text/css">
	.st0{fill-rule:evenodd;clip-rule:evenodd;fill:#7D3DAF;}
	.st1{fill-rule:evenodd;clip-rule:evenodd;fill:#FFFFFF;}
</style>
<g>
	<path class="st0" d="M92.8,50c0,23.5-18.9,42.5-42.3,42.5S7.8,73.5,7.8,50S26.7,7.5,50.1,7.5S92.8,26.5,92.8,50z"/>
	<path class="st1" d="M52.5,55.3c0,0,1.2,0,1.6-0.4l1.2-1.2c0.4-0.8,1.6-1.2,3.2-0.4c1.6,0.8,3.6,2.4,5.2,3.6
		c0.8,0.8,0.8,1.6,0.4,2.8l0,0c-0.4,0.8-1.2,2-2.4,2.8l0,0c-1.2,0.8-2.4,1.2-3.6,0.8l0,0c-2.4-0.8-8.1-3.6-11.7-6.5
		c-6-4.9-10.1-12.5-11.3-16.6l0,0c-0.8-1.2,0-2.4,0.8-3.6l0,0c0.8-0.8,1.6-1.6,2.8-2.4l0,0c0.8-0.4,2-0.4,2.8,0.4
		c0.8,0.8,2.4,3.2,3.6,5.3c0.8,1.2,0.4,2.4-0.4,2.8l-1.2,1.2c-0.8,0.8-0.8,2-0.8,2S44.9,53.2,52.5,55.3z M64.2,49.2
		c-0.4,0-0.8-0.4-0.8-0.8c0-4.5-1.2-8.1-4-10.5c-2.4-2.4-6-3.6-9.7-4c-0.4,0-0.8-0.4-0.8-0.8s0.4-0.8,0.8-0.8l0,0
		c4.4,0,8.1,1.6,10.9,4.5c2.8,2.8,4.4,6.9,4.4,11.7C65,48.8,64.6,49.2,64.2,49.2L64.2,49.2z M60.6,47.6L60.6,47.6
		c-0.4,0-0.8-0.4-0.8-0.8c0-2.4-0.8-4.5-2-6.1c-1.6-2-4-2.8-6.8-2.8c-0.4,0-0.8-0.4-0.8-0.8s0.4-0.8,0.8-0.8
		c3.2,0.4,5.6,1.2,7.3,3.2c1.6,2,2.8,4.5,2.4,7.3C61,47.2,61,47.6,60.6,47.6z M56.5,46.4c-0.4,0-0.8-0.4-0.8-0.8
		c0-2.4-1.2-3.6-3.6-4c-0.4,0-0.8-0.4-0.8-0.8c0-0.4,0.4-0.8,0.8-0.8c3.2,0,4.8,2,5.2,5.3C57.4,46,56.9,46.4,56.5,46.4L56.5,46.4z
		 M73.1,54.5c-1.6,11.7-6,12.5-7.7,13c-0.8,0.4-10.9,1.6-18.9,1.2c0,0-6,7.3-7.7,8.9c-0.4,0.8-0.8,0.8-0.8,0.8
		c-0.4,0-0.4-0.4-0.4-0.8v-9.7l0,0C25.9,64.6,26.7,52.4,26.7,46s1.2-11.3,4.8-15c6.4-5.7,19.3-4.9,19.3-4.9
		c10.9,0,16.1,3.2,17.3,4.5C72.7,34.2,74.7,42.3,73.1,54.5z M71.5,27.7c-1.6-1.2-7.3-5.7-20.1-5.7c0,0-15.3-0.8-23,6.1
		c-4,4-5.6,10.1-5.6,17.8S22.3,67.8,36,71.5l0,0v6.1c0,0,0,2.4,1.6,2.8c2,0.4,2.8-1.2,4.8-3.2c0.8-1.2,2.4-2.8,3.2-3.6
		c9.3,0.8,16.5-1.2,17.3-1.2c2-0.8,12.5-2,14.1-16.2C79.1,41.1,76.3,31.8,71.5,27.7z"/>
</g>
</svg>
